<?xml version="1.0" standalone="no"?>
<!DOCTYPE svg PUBLIC "-//W3C//DTD SVG 1.1//EN" "http://www.w3.org/Graphics/SVG/1.1/DTD/svg11.dtd" >
<svg>
<metadata>
Created by FontForge 20130207 at Sat Aug 16 19:41:23 2014
 By Аникейчик Дмитрий
(c) 1992, 1994, 1997, 2000, 2004 Adobe Systems Incorporated. All rights reserved. Protected by U.S. Patents D454,582.
</metadata>
<defs>
<font id="MyriadPro-Cond" horiz-adv-x="614" >
  <font-face 
    font-family="MyriadPro-Cond"
    font-weight="400"
    font-stretch="condensed"
    units-per-em="2048"
    panose-1="2 11 5 6 3 4 3 2 2 4"
    ascent="1536"
    descent="-512"
    x-height="991"
    cap-height="1380"
    bbox="-287 -512 1987 1915"
    underline-thickness="102"
    underline-position="-102"
    unicode-range="U+0020-FB04"
  />
<missing-glyph horiz-adv-x="1024" 
d="M102 1239v-1044l349 522zM164 102h696l-348 523zM573 717l349 -522v1044zM512 809l348 522h-696zM0 0v1434h1024v-1434h-1024z" />
    <glyph glyph-name="f_f_j" unicode="ffj" horiz-adv-x="1314" 
d="M459 1280q-158 0 -158 -248v-41h307v66q0 153 86 265t275 112q118 -1 192 -48l-33 -122q-82 39 -179 39t-140 -68t-43 -195v-49h444v-928q0 -153 -24 -237t-70 -134q-47 -50 -109 -75t-114 -27l-21 125q98 27 134 78q47 72 47 316v763h-287v-872h-158v872h-307v-872h-158
v872h-125v119h125v37q0 201 107 301q80 80 207 80q70 0 137 -31l-45 -121q-45 23 -90 23z" />
    <glyph glyph-name="f_j" unicode="fj" horiz-adv-x="849" 
d="M301 0h-158v872h-125v119h125v66q0 153 86 265t275 112q119 0 192 -48l-32 -122q-82 39 -180 39t-140 -68q-43 -68 -43 -195v-49h444v-928q1 -153 -23 -237t-71 -134t-109 -75t-114 -27l-20 125q98 27 133 78q47 72 47 316v763h-287v-872z" />
    <glyph glyph-name="f_f" unicode="ff" horiz-adv-x="923" 
d="M758 0h-158v872h-299v-872h-158v872h-125v119h125v49q0 195 82 282t213 87q57 0 103 -18l-29 -125q-33 14 -76 14q-74 0 -104 -59t-31 -179v-51h299v60q0 199 82 291t203 92q76 0 125 -25l-27 -123q-37 16 -86 17q-139 0 -139 -248v-64h180v-119h-180v-872z" />
    <glyph glyph-name="f_f_i" unicode="ffi" horiz-adv-x="1320" 
d="M459 1280q-158 0 -158 -248v-41h307v66q0 153 86 265t275 112q118 -1 192 -48l-33 -122q-82 39 -179 39t-140 -68t-43 -195v-49h444v-991h-157v872h-287v-872h-158v872h-307v-872h-158v872h-125v119h125v37q0 201 107 301q80 80 207 80q70 0 137 -31l-45 -121
q-45 23 -90 23z" />
    <glyph glyph-name="f_f_l" unicode="ffl" horiz-adv-x="1320" 
d="M459 1280q-158 0 -158 -248v-41h307v53q0 197 113 304q93 86 241 86t250 -52v-1382h-157v1284q-47 20 -109 21q-180 0 -180 -250v-64h170v-119h-170v-872h-158v872h-307v-872h-158v872h-125v119h125v37q0 201 107 301q80 80 207 80q69 0 137 -31l-45 -121q-45 23 -90 23z
" />
    <glyph glyph-name="f_i" unicode="fi" horiz-adv-x="856" 
d="M301 0h-158v872h-125v119h125v66q0 153 86 265t275 112q119 0 192 -48l-32 -122q-82 39 -180 39t-140 -68q-43 -68 -43 -195v-49h444v-991h-157v872h-287v-872z" />
    <glyph glyph-name="f_l" unicode="fl" horiz-adv-x="856" 
d="M301 0h-158v872h-125v119h125v53q0 197 113 304q92 86 240 86t252 -52v-1382h-158v1284q-47 20 -109 21q-180 0 -180 -250v-64h170v-119h-170v-872z" />
    <glyph glyph-name=".notdef" horiz-adv-x="1024" 
d="M102 1239v-1044l349 522zM164 102h696l-348 523zM573 717l349 -522v1044zM512 809l348 522h-696zM0 0v1434h1024v-1434h-1024z" />
    <glyph glyph-name=".null" horiz-adv-x="0" 
 />
    <glyph glyph-name="nonmarkingreturn" horiz-adv-x="681" 
 />
    <glyph glyph-name="space" unicode=" " horiz-adv-x="321" 
 />
    <glyph glyph-name="exclam" unicode="!" horiz-adv-x="417" 
d="M209 -16q-45 0 -73 30t-27 80q0 49 28 81q29 32 73 32t71 -31t27 -82t-27 -81q-27 -29 -72 -29zM274 383h-131l-20 997h172z" />
    <glyph glyph-name="quotedbl" unicode="&#x22;" horiz-adv-x="632" 
d="M387 1399h145l-28 -477h-88zM102 1399h146l-29 -477h-88z" />
    <glyph glyph-name="numbersign" unicode="#" horiz-adv-x="788" 
d="M47 410v106h146l40 311h-141v105h156l51 399h102l-51 -399h160l51 399h105l-52 -399h129v-105h-143l-39 -311h141v-104h-155l-51 -412h-107l51 412h-155l-54 -412h-104l51 410h-131zM297 516h160l39 311h-160z" />
    <glyph glyph-name="dollar" unicode="$" horiz-adv-x="788" 
d="M444 -172h-114v205q-121 2 -226 67l37 123q105 -65 201 -65t146 58t50 146t-41 151q-42 62 -148 126q-107 63 -173 139t-66 194t67 203t167 111v199h113v-187q119 0 194 -55l-39 -121q-84 52 -171 52t-134 -54t-47 -132q0 -77 41 -125t154 -115q233 -137 233 -363
q0 -139 -68 -227t-176 -113v-217z" />
    <glyph glyph-name="percent" unicode="%" horiz-adv-x="1320" 
d="M1006 694q-68 0 -98 -91t-30 -191t12 -166q11 -64 42 -113t78 -49q129 0 129 305t-133 305zM1013 793q111 0 179 -111q68 -110 68 -300t-73 -293t-181 -103t-179 108q-69 108 -69 294q0 185 71 295q72 110 184 110zM354 -29h-100l709 1387h100zM309 1249q-67 0 -97 -91
t-30 -214q0 -305 130 -305t130 305t-133 305zM308 541q-108 1 -178 109t-69 293q-1 185 71 295t184 110t180 -110t68 -300t-74 -294q-74 -103 -182 -103z" />
    <glyph glyph-name="ampersand" unicode="&#x26;" horiz-adv-x="1005" 
d="M440 1280q-59 0 -92 -55t-33 -140q0 -129 78 -251q164 123 164 272q0 72 -29 123t-88 51zM430 109q127 0 203 120q-162 221 -297 435q-125 -117 -125 -281q0 -113 58 -194q59 -80 161 -80zM413 -16q-173 0 -263 112t-91 269q0 238 211 395v6q-100 160 -100 301t77 235
t193 95q116 0 186 -74q70 -75 70 -195t-54 -207t-183 -180v-6q115 -193 262 -391q72 152 82 397h141q-27 -315 -151 -499q10 -17 176 -242h-174q-18 24 -93 129q-117 -145 -289 -145z" />
    <glyph glyph-name="quotesingle" unicode="'" horiz-adv-x="348" 
d="M102 1399h146l-29 -477h-88z" />
    <glyph glyph-name="parenleft" unicode="(" horiz-adv-x="518" 
d="M254 588q0 -493 213 -834h-123q-223 326 -223 832q6 518 223 831h123q-213 -336 -213 -829z" />
    <glyph glyph-name="parenright" unicode=")" horiz-adv-x="518" 
d="M264 586q0 496 -213 831h123q223 -317 223 -829q-6 -510 -223 -834h-123q213 336 213 832z" />
    <glyph glyph-name="asterisk" unicode="*" horiz-adv-x="763" 
d="M500 1397l110 -62l-176 -245l2 -5l277 35v-123l-277 31l-2 -4l180 -236l-114 -65l-121 270l-4 -2l-123 -274l-105 67l175 246l-3 2l-270 -35v123l268 -33l2 5l-169 237l106 62l123 -263h4z" />
    <glyph glyph-name="plus" unicode="+" horiz-adv-x="1220" 
d="M553 1092h117v-488h471v-112h-471v-492h-117v492h-469v112h469v488z" />
    <glyph glyph-name="comma" unicode="," horiz-adv-x="397" 
d="M143 -244l-108 -14q82 229 119 477l178 21q-36 -130 -92 -274t-97 -210z" />
    <glyph glyph-name="hyphen" unicode="-" horiz-adv-x="571" 
d="M61 596h449v-121h-449v121z" />
    <glyph glyph-name="period" unicode="." horiz-adv-x="397" 
d="M206 -16q-46 0 -76 32t-30 85q0 52 31 86t76 34t74 -33t29 -87t-29 -86q-29 -31 -75 -31z" />
    <glyph glyph-name="slash" unicode="/" horiz-adv-x="575" 
d="M135 -82h-119l441 1479h118z" />
    <glyph glyph-name="zero" unicode="0" horiz-adv-x="788" 
d="M396 1212q-91 0 -137 -146t-47 -399t45 -401t140 -147q178 0 178 547q0 248 -44 397t-135 149zM55 668q1 328 93 504t255 176t247 -180t83 -512q0 -334 -95 -503t-251 -169t-244 178t-88 506z" />
    <glyph glyph-name="one" unicode="1" horiz-adv-x="788" 
d="M385 0v1171h-4l-221 -127l-31 123l281 164h129v-1331h-154z" />
    <glyph glyph-name="two" unicode="2" horiz-adv-x="788" 
d="M707 0h-639v102l110 152q88 123 126 178q153 222 194 364q26 92 26 192t-48 162t-137 62t-196 -73l-39 118q104 91 262 91t236 -102t78 -266q0 -165 -86 -334t-242 -380l-88 -123v-4h443v-139z" />
    <glyph glyph-name="three" unicode="3" horiz-adv-x="788" 
d="M286 115q102 0 165 70q63 71 63 197t-73 200t-195 73h-37v119h31q84 0 162 62t77 168q0 106 -48 159t-127 53t-167 -63l-35 119q96 76 236 76t220 -87q79 -87 79 -205q0 -237 -199 -327v-4q100 -27 167 -115t67 -244t-102 -270q-102 -112 -264 -112q-161 0 -249 61
l35 125q92 -55 194 -55z" />
    <glyph glyph-name="four" unicode="4" horiz-adv-x="788" 
d="M186 498h293v374q0 86 13 263h-9q-49 -117 -112 -250l-185 -383v-4zM623 0h-144v369h-442v106l432 856h154v-833h143v-129h-143v-369z" />
    <glyph glyph-name="five" unicode="5" horiz-adv-x="788" 
d="M680 1331v-139h-356l-56 -354q16 4 62 4t120 -27t119 -74q113 -109 113 -307t-113 -324t-288 -126q-141 0 -228 59l35 123q92 -51 192 -51t174 81q72 82 72 230t-82 222t-219 73q-68 0 -104 -6l84 616h475z" />
    <glyph glyph-name="six" unicode="6" horiz-adv-x="788" 
d="M403 106q79 0 127 79t48 233t-48 232q-48 77 -131 77q-119 0 -174 -143q-10 -31 -10 -80q1 -198 55 -298t133 -100zM653 1214q-39 0 -94 -12q-274 -70 -342 -481h6q85 127 219 127t214 -111t79 -303q0 -192 -87 -322q-86 -128 -248 -128t-253 151q-90 152 -90 391
q0 365 172 600q121 166 324 209q59 9 100 13v-134z" />
    <glyph glyph-name="seven" unicode="7" horiz-adv-x="788" 
d="M76 1331h641v-94l-430 -1237h-154l422 1188v4h-479v139z" />
    <glyph glyph-name="eight" unicode="8" horiz-adv-x="788" 
d="M547 1016q0 98 -38 156t-107 59q-70 0 -110 -57q-40 -56 -40 -148t44 -149t120 -107q131 94 131 246zM213 338q0 -102 49 -170t131 -68t132 62t50 180q0 182 -190 307q-80 -49 -126 -129t-46 -182zM100 1016q0 150 91 240t223 92q132 0 207 -94q76 -94 75 -220
q0 -190 -178 -315v-4q213 -141 213 -365q0 -158 -95 -262t-249 -104t-242 102t-88 238q0 229 219 383l-2 4q-82 55 -128 137t-46 168z" />
    <glyph glyph-name="nine" unicode="9" horiz-adv-x="788" 
d="M573 823q0 201 -51 301t-128 101q-77 0 -128 -79q-51 -78 -50 -228t50 -224t131 -73q49 0 95 31q81 58 81 171zM137 -16v135q167 0 281 117q125 135 155 376h-4q-92 -110 -219 -110t-208 108t-81 292q-1 182 93 314t250 132t242 -151q85 -151 85 -384q0 -381 -176 -616
q-117 -160 -307 -201q-52 -12 -111 -12z" />
    <glyph glyph-name="colon" unicode=":" horiz-adv-x="397" 
d="M206 -16q-46 0 -75 32t-29 82q0 51 30 84t74 33t73 -32t29 -84t-28 -84q-28 -31 -74 -31zM206 735q-46 0 -75 32t-29 83t30 84t74 33t73 -32t29 -84t-28 -84t-74 -32z" />
    <glyph glyph-name="semicolon" unicode=";" horiz-adv-x="397" 
d="M228 735q-46 0 -74 32t-29 83q0 51 30 84q29 33 73 33t73 -32t29 -84t-28 -84t-74 -32zM141 -244l-104 -14q82 238 117 477l176 21q-36 -130 -92 -274t-97 -210z" />
    <glyph glyph-name="less" unicode="&#x3c;" horiz-adv-x="1220" 
d="M135 498v96l950 496v-138l-794 -405v-4l794 -408v-135z" />
    <glyph glyph-name="equal" unicode="=" horiz-adv-x="1220" 
d="M1139 301h-1057v113h1057v-113zM1139 688h-1057v113h1057v-113z" />
    <glyph glyph-name="greater" unicode="&#x3e;" horiz-adv-x="1220" 
d="M1085 604v-119l-950 -485v135l819 408v4l-819 407v136z" />
    <glyph glyph-name="question" unicode="?" horiz-adv-x="632" 
d="M379 97q0 -53 -28 -83t-74 -30q-47 0 -75 32t-28 81q0 50 30 83t74 33t73 -32q28 -32 28 -84zM253 1268q-77 0 -130 -37l-33 121q78 53 212 53t205 -81t71 -194t-53 -211q-29 -58 -61 -109q-32 -50 -60 -100q-69 -122 -52 -298l2 -35h-139l-4 31q-33 190 86 389
q4 6 21 37q18 30 22 36t17 32t23 44q10 19 23 64t13 111q0 65 -43 106t-120 41z" />
    <glyph glyph-name="at" unicode="@" horiz-adv-x="1208" 
d="M561 -207q-215 0 -352 152t-137 438q0 344 186 590t461 246q203 -1 315 -137t113 -357q0 -283 -87 -437t-229 -155q-59 0 -92 42t-26 122h-6q-90 -164 -224 -164q-76 0 -121 58t-45 172t48 230q47 116 150 200t241 84q82 0 143 -29l-82 -414q-41 -215 45 -215
q76 0 134 133t58 341t-86 327q-87 119 -263 119q-219 0 -380 -215t-161 -543q0 -246 110 -375t312 -129q131 0 252 66l26 -72q-129 -78 -303 -78zM715 786q-113 0 -196 -134t-83 -292q0 -129 82 -129q61 0 119 77t76 171l59 299q-18 8 -57 8z" />
    <glyph glyph-name="A" unicode="A" horiz-adv-x="890" 
d="M311 541h262l-71 350q-20 100 -56 315h-6q-31 -195 -57 -315zM596 414h-307l-90 -414h-154l315 1380h175l307 -1380h-156z" />
    <glyph glyph-name="B" unicode="B" horiz-adv-x="851" 
d="M281 674v-549q37 -8 79 -8q123 -1 196 71t73 205t-80 206t-199 75h-69zM281 795h71q98 1 169 69t71 174q0 225 -227 226q-53 -1 -84 -11v-458zM793 376q0 -150 -99 -259q-111 -125 -364 -125q-129 0 -205 14v1354q106 27 229 26q203 0 299 -90t97 -241q0 -105 -56 -185
t-157 -120v-7q121 -33 189 -125t67 -242z" />
    <glyph glyph-name="C" unicode="C" horiz-adv-x="763" 
d="M528 -12q-211 0 -337 173t-125 513q0 195 45 341q78 252 274 341q81 37 185 37t155 -35l-35 -133q-66 29 -137 28q-129 0 -225 -137t-96 -430t90 -426q92 -133 235 -133q77 0 143 29l27 -131q-70 -37 -199 -37z" />
    <glyph glyph-name="D" unicode="D" horiz-adv-x="911" 
d="M350 123q105 0 185 75q147 137 147 521q0 539 -328 538q-46 0 -73 -8v-1122q23 -4 69 -4zM299 -8q-111 0 -174 14v1354q86 27 211 26q207 0 323 -104q186 -162 187 -559q0 -731 -547 -731z" />
    <glyph glyph-name="E" unicode="E" horiz-adv-x="724" 
d="M627 788v-133h-346v-518h393v-137h-551v1380h526v-137h-368v-455h346z" />
    <glyph glyph-name="F" unicode="F" horiz-adv-x="706" 
d="M123 0v1380h526v-137h-368v-483h344v-133h-344v-627h-158z" />
    <glyph glyph-name="G" unicode="G" horiz-adv-x="892" 
d="M801 721v-686q-111 -47 -244 -47q-203 0 -326 133q-168 180 -165 551q2 371 155 546q154 175 365 175q123 0 194 -39l-35 -135q-66 33 -157 32q-150 0 -254 -135t-104 -430t92 -429q94 -134 235 -134q72 0 96 16v451h-178v131h326z" />
    <glyph glyph-name="H" unicode="H" horiz-adv-x="948" 
d="M123 1380h158v-592h387v592h157v-1380h-157v645h-387v-645h-158v1380z" />
    <glyph glyph-name="I" unicode="I" horiz-adv-x="407" 
d="M123 1380h158v-1380h-158v1380z" />
    <glyph glyph-name="J" unicode="J" horiz-adv-x="542" 
d="M274 387v993h158v-991q0 -221 -83 -313t-240 -92q-66 0 -103 14l14 133q27 -8 76 -8q90 0 134 55t44 209z" />
    <glyph glyph-name="K" unicode="K" horiz-adv-x="827" 
d="M125 0v1380h156v-655h4q25 43 86 166l258 489h174l-338 -589l346 -791h-170l-283 666l-77 -134v-532h-156z" />
    <glyph glyph-name="L" unicode="L" horiz-adv-x="704" 
d="M123 0v1380h158v-1247h387v-133h-545z" />
    <glyph glyph-name="M" unicode="M" horiz-adv-x="1226" 
d="M987 0l-29 594q-20 373 -14 541h-8q-51 -256 -111 -480l-168 -647h-102l-160 621q-72 272 -114 506h-7q2 -121 -16 -551l-27 -584h-141l82 1380h172l160 -630q82 -315 110 -476h7q29 170 102 476l156 630h176l80 -1380h-148z" />
    <glyph glyph-name="N" unicode="N" horiz-adv-x="952" 
d="M266 0h-141v1380h147l254 -647q137 -358 176 -481h5q-18 326 -19 635v493h141v-1380h-147l-262 664q-104 254 -166 469h-4q16 -246 16 -656v-477z" />
    <glyph glyph-name="O" unicode="O" horiz-adv-x="913" 
d="M450 1257q-72 0 -127 -86q-92 -146 -94 -481q0 -227 53 -397t179 -170q174 0 213 366q10 93 10 201t-10 202t-35 179q-25 86 -71 136t-118 50zM66 689q0 339 110 523t291 185t281 -183t100 -534t-110 -522q-110 -174 -288 -174t-281 183t-103 522z" />
    <glyph glyph-name="P" unicode="P" horiz-adv-x="817" 
d="M344 692q118 0 188 77t70 208q0 282 -233 280q-53 0 -88 -10v-551q37 -4 63 -4zM125 0v1360q102 27 227 26q205 0 306 -100q102 -100 102 -280t-84 -289q-53 -74 -141 -114t-160 -40t-94 2v-565h-156z" />
    <glyph glyph-name="Q" unicode="Q" horiz-adv-x="913" 
d="M463 123q61 0 107 49q114 121 114 522q0 227 -35 346t-80 168t-108 49t-111 -50t-83 -170q-36 -120 -38 -307q-3 -188 17 -308t76 -210q56 -89 141 -89zM66 686q0 344 110 527q111 183 292 183q180 0 280 -184t100 -512q0 -543 -236 -653v-6q68 -30 269 -100l-60 -127
q-186 78 -270 124t-98 46q-178 0 -283 179q-104 179 -104 523z" />
    <glyph glyph-name="R" unicode="R" horiz-adv-x="837" 
d="M281 723h67q114 0 182 76t68 200q0 258 -233 261q-57 -1 -84 -9v-528zM125 0v1360q94 27 225 26q211 0 312 -98q96 -98 96 -270q0 -252 -221 -356v-5q77 -23 119 -97t65 -212q49 -285 80 -348h-160q-29 57 -74 340q-23 143 -73 202q-51 58 -152 58h-61v-600h-156z" />
    <glyph glyph-name="S" unicode="S" horiz-adv-x="739" 
d="M286 127q112 0 173 63q61 62 61 160t-45 163t-137 134q-260 178 -260 383q0 158 101 260t245 102t211 -51l-37 -135q-68 47 -164 47t-148 -59t-52 -145q0 -87 44 -141t158 -136q240 -168 240 -397q0 -175 -110 -281t-277 -106q-69 0 -135 18t-97 41l35 135
q82 -55 194 -55z" />
    <glyph glyph-name="T" unicode="T" horiz-adv-x="724" 
d="M285 0v1239h-252v141h661v-141h-252v-1239h-157z" />
    <glyph glyph-name="U" unicode="U" horiz-adv-x="935" 
d="M121 1380h158v-925q0 -332 186 -332q193 0 192 332v925h158v-901q0 -256 -94 -376t-258 -119q-342 0 -342 477v919z" />
    <glyph glyph-name="V" unicode="V" horiz-adv-x="862" 
d="M510 0h-162l-315 1380h170l133 -647q72 -342 98 -530h6q20 174 92 534l132 643h167z" />
    <glyph glyph-name="W" unicode="W" horiz-adv-x="1339" 
d="M455 0h-150l-264 1380h162l116 -665q41 -229 70 -498h6q16 162 84 500l127 663h133l129 -649q63 -334 80 -514h6q18 168 72 506l115 657h155l-268 -1380h-156l-131 672q-43 219 -71 452h-4q-27 -233 -76 -458z" />
    <glyph glyph-name="X" unicode="X" horiz-adv-x="802" 
d="M774 0h-164l-125 332q-51 137 -86 241h-6l-82 -245l-118 -328h-162l282 705l-274 675h164l125 -319q43 -113 80 -219h4q33 96 75 225l113 313h160l-271 -671z" />
    <glyph glyph-name="Y" unicode="Y" horiz-adv-x="806" 
d="M481 0h-157v584l-306 796h168l123 -346q82 -242 103 -311h4q25 98 100 317l117 340h164l-316 -790v-590z" />
    <glyph glyph-name="Z" unicode="Z" horiz-adv-x="733" 
d="M41 0v94l473 1147v4h-434v135h610v-106l-465 -1133v-6h463v-135h-647z" />
    <glyph glyph-name="bracketleft" unicode="[" horiz-adv-x="518" 
d="M455 -229h-303v1634h303v-109h-176v-1417h176v-108z" />
    <glyph glyph-name="backslash" unicode="\" horiz-adv-x="538" 
d="M522 -82h-119l-401 1479h119z" />
    <glyph glyph-name="bracketright" unicode="]" horiz-adv-x="518" 
d="M63 1405h306v-1634h-306v108h177v1417h-177v109z" />
    <glyph glyph-name="asciicircum" unicode="^" horiz-adv-x="1220" 
d="M1090 387h-134l-344 795h-6l-344 -795h-131l422 944h115z" />
    <glyph glyph-name="underscore" unicode="_" horiz-adv-x="1024" 
d="M0 -154h1024v-102h-1024v102z" />
    <glyph glyph-name="grave" unicode="`" 
d="M80 1397h162l157 -277h-104z" />
    <glyph glyph-name="a" unicode="a" horiz-adv-x="745" 
d="M479 313v201q-272 0 -272 -231q0 -90 36 -133q36 -44 87 -44t90 39q59 59 59 168zM633 655v-430q0 -145 10 -225h-141l-10 104h-7q-68 -121 -198 -120q-100 0 -167 78t-67 204q0 176 120 268t302 93v30q0 109 -36 166t-124 57t-161 -51l-35 111q92 66 231 66
q283 -1 283 -351z" />
    <glyph glyph-name="b" unicode="b" horiz-adv-x="817" 
d="M264 627v-279q0 -33 6 -61q43 -172 150 -172q172 0 172 383q0 164 -43 268t-133 104q-53 0 -94 -53t-54 -123q-4 -44 -4 -67zM109 238v1179h155v-545h4q70 134 201 134t206 -132t75 -378q0 -244 -88 -378t-215 -134t-195 145h-8l-11 -129h-133q9 230 9 238z" />
    <glyph glyph-name="c" unicode="c" horiz-adv-x="618" 
d="M430 -12q-166 0 -264 130t-98 361t105 379t286 148q86 0 139 -31l-31 -129q-53 27 -112 26q-113 0 -171 -112t-58 -278q0 -167 62 -265t171 -98q61 -1 112 26l23 -120q-63 -37 -164 -37z" />
    <glyph glyph-name="d" unicode="d" horiz-adv-x="817" 
d="M551 350v262q0 133 -47 195q-47 63 -103 63q-92 0 -134 -108t-42 -272t43 -270t125 -105q111 0 152 170q6 26 6 65zM551 1417h156v-1179q0 -8 8 -238h-135l-11 123h-6q-66 -139 -201 -139t-215 134q-79 134 -79 378t87 376t213 134q126 0 179 -117h4v528z" />
    <glyph glyph-name="e" unicode="e" horiz-adv-x="743" 
d="M378 883q-68 0 -108 -85q-41 -85 -47 -200h309q2 139 -42 212t-112 73zM221 481q0 -369 234 -368q94 0 163 37l27 -115q-90 -47 -219 -47q-174 0 -267 133t-93 367t93 376t238 142t216 -126t71 -309q0 -41 -4 -90h-459z" />
    <glyph glyph-name="f" unicode="f" horiz-adv-x="466" 
d="M301 0h-158v872h-125v119h125v60q0 199 82 291t205 92q74 0 123 -25l-25 -123q-41 16 -88 17q-139 0 -139 -248v-64h180v-119h-180v-872z" />
    <glyph glyph-name="g" unicode="g" horiz-adv-x="817" 
d="M553 362v287q0 45 -8 72q-37 150 -144 149q-84 0 -130 -102t-46 -276t49 -268t127 -93q104 0 142 141q10 39 10 90zM709 682v-555q0 -185 -24 -279q-66 -256 -339 -258q-129 0 -217 50l37 122q82 -43 184 -43q203 0 203 304v100h-4q-51 -121 -187 -121t-215 135t-79 372
t94 367t214 130t189 -125h4l9 110h139q-8 -270 -8 -309z" />
    <glyph glyph-name="h" unicode="h" horiz-adv-x="829" 
d="M487 1006q102 0 167 -86t65 -263v-657h-158v639q0 233 -133 233q-117 0 -154 -157q-6 -31 -6 -74v-641h-157v1417h157v-534h4q75 123 215 123z" />
    <glyph glyph-name="i" unicode="i" horiz-adv-x="376" 
d="M94 1248q0 44 26 73t68 29q41 0 67 -28t26 -75t-26 -75t-68 -28q-41 0 -67 30t-26 74zM268 0h-157v991h157v-991z" />
    <glyph glyph-name="j" unicode="j" horiz-adv-x="385" 
d="M203 1350q41 0 67 -28t25 -75q0 -47 -26 -75q-25 -28 -67 -28t-68 30t-26 74t27 73t68 29zM123 109v882h158v-928q0 -153 -24 -237q-44 -154 -180 -209q-63 -25 -114 -27l-20 125q98 27 133 78q47 72 47 316z" />
    <glyph glyph-name="k" unicode="k" horiz-adv-x="724" 
d="M264 1417v-887h4q47 100 54 111l196 350h170l-262 -418l287 -573h-176l-215 467l-58 -92v-375h-155v1417h155z" />
    <glyph glyph-name="l" unicode="l" horiz-adv-x="391" 
d="M111 0v1417h157v-1417h-157z" />
    <glyph glyph-name="m" unicode="m" horiz-adv-x="1269" 
d="M922 1006q106 0 172 -85t65 -266v-655h-155v621q0 117 -29 185t-111 68q-49 0 -89 -40q-62 -61 -62 -197v-637h-156v649q0 225 -137 225q-51 0 -93 -42q-41 -42 -51 -98q-10 -58 -10 -105v-629h-155v735l-9 256h138l8 -123h4q74 138 226 138t204 -152h4q84 152 236 152z
" />
    <glyph glyph-name="n" unicode="n" horiz-adv-x="829" 
d="M719 666v-666h-158v637q0 236 -137 235q-51 0 -92 -42q-64 -66 -64 -207v-623h-157v735l-9 256h138l8 -121h4q74 135 227 136q109 0 175 -84t65 -256z" />
    <glyph glyph-name="o" unicode="o" horiz-adv-x="784" 
d="M225 494q0 -388 178 -386q57 0 97 68q61 106 61 307q0 266 -84 360q-35 38 -84 38q-126 0 -161 -259q-7 -60 -7 -128zM400 1006q140 0 230 -132t89 -386q0 -256 -98 -380q-97 -124 -235 -124t-228 130t-90 382t96 381t236 129z" />
    <glyph glyph-name="p" unicode="p" horiz-adv-x="817" 
d="M264 616v-254q0 -49 8 -81q37 -166 146 -166q92 0 133 106q41 107 41 273t-43 271t-133 105q-52 0 -96 -54t-50 -124q-6 -33 -6 -76zM109 -393v1075q0 31 -9 309h140l8 -127h4q76 142 210 142t211 -134t77 -382q0 -250 -90 -378t-213 -128q-124 0 -179 114h-4v-491h-155z
" />
    <glyph glyph-name="q" unicode="q" horiz-adv-x="817" 
d="M551 362v259q0 125 -48 187t-102 62q-90 0 -133 -104t-43 -273t43 -273t131 -105q104 0 144 164q8 34 8 83zM551 -393v495h-6q-27 -53 -77 -86t-116 -32q-123 0 -204 132q-80 132 -80 374t89 379t217 137t189 -129l4 -3l8 117h140q-8 -270 -8 -309v-1075h-156z" />
    <glyph glyph-name="r" unicode="r" horiz-adv-x="507" 
d="M496 844h-33q-74 0 -126 -58q-71 -80 -71 -237v-549h-157v735l-9 256h142l8 -157h4q25 74 83 122t126 50q23 0 33 -2v-160z" />
    <glyph glyph-name="s" unicode="s" horiz-adv-x="591" 
d="M237 113q73 0 113 39t39 101q0 62 -27 105t-100 93q-199 127 -199 280q0 121 78 198q77 77 181 77t190 -52l-41 -118q-66 45 -129 45t-97 -37t-34 -88t25 -87t98 -85q205 -131 205 -301q0 -143 -85 -219t-211 -76t-198 57l39 119q80 -51 153 -51z" />
    <glyph glyph-name="t" unicode="t" horiz-adv-x="522" 
d="M303 991h191v-119h-191v-589q0 -164 103 -164q39 0 63 6l8 -121q-45 -16 -133 -16t-143 62t-56 247v575h-120v119h120v168l158 64v-232z" />
    <glyph glyph-name="u" unicode="u" horiz-adv-x="815" 
d="M348 -16q-242 0 -242 381v626h158v-604q0 -131 29 -201t97 -70t105 44q36 43 44 83t8 95v653h158v-721l8 -270h-138l-12 104h-4q-27 -44 -83 -82t-128 -38z" />
    <glyph glyph-name="v" unicode="v" horiz-adv-x="710" 
d="M27 991h163l125 -557q27 -123 43 -241h7q10 74 41 241l122 557h156l-260 -991h-139z" />
    <glyph glyph-name="w" unicode="w" horiz-adv-x="1159" 
d="M27 991h163l97 -485q41 -213 53 -316h8q18 131 62 312l114 489h121l109 -475q45 -205 63 -326h8q14 129 54 320l94 481h157l-249 -991h-129l-115 481q-29 111 -55 297h-4q-23 -154 -58 -303l-119 -475h-133z" />
    <glyph glyph-name="x" unicode="x" horiz-adv-x="696" 
d="M29 991h170l90 -213q20 -50 40 -102q19 -52 27 -70h4q4 12 66 172l88 213h162l-236 -489l234 -502h-170l-94 225q-20 49 -66 170h-4q-12 -35 -66 -172l-92 -223h-159l235 498z" />
    <glyph glyph-name="y" unicode="y" horiz-adv-x="708" 
d="M25 991h165l134 -569q8 -35 20 -103t21 -102h4q31 172 41 203l118 571h156l-162 -637q-117 -467 -246 -639q-82 -104 -178 -149l-59 133q74 41 136 120t87 152t12 107z" />
    <glyph glyph-name="z" unicode="z" horiz-adv-x="641" 
d="M33 0v96l313 615q12 23 40 73t38 72v4h-352v131h528v-104l-309 -604q-43 -74 -80 -148v-4h387v-131h-565z" />
    <glyph glyph-name="braceleft" unicode="{" horiz-adv-x="518" 
d="M455 -123v-106h-27q-110 0 -182 62t-72 200q0 61 12 180t13 180q-1 146 -142 146v102q141 0 142 145q-1 58 -13 176t-12 181q0 131 71 197t185 65h25v-107h-29q-121 -14 -121 -153q0 -57 12 -160q10 -127 11 -151q2 -113 -34 -166t-108 -76v-4q72 -20 108 -74t34 -170
l-23 -311q0 -72 28 -110t95 -46h27z" />
    <glyph glyph-name="bar" unicode="|" horiz-adv-x="411" 
d="M141 1536h129v-2048h-129v2048z" />
    <glyph glyph-name="braceright" unicode="}" horiz-adv-x="518" 
d="M90 -123q123 13 123 135q0 52 -10 178q-12 102 -13 154q-2 117 34 170t108 74v4q-70 23 -107 77t-35 165l23 311q0 139 -121 153h-29v107h25q116 0 186 -66t70 -196q0 -63 -12 -180t-13 -177q1 -145 142 -145v-102q-76 0 -109 -43q-33 -44 -33 -104q1 -60 13 -179
t12 -180q0 -137 -72 -199t-182 -63h-27v106h27z" />
    <glyph glyph-name="asciitilde" unicode="~" horiz-adv-x="1220" 
d="M372 727q102 0 262 -84q161 -84 232 -84q100 0 97 160h108q8 -135 -48 -206t-163 -71q-108 0 -268 85t-230 85q-104 1 -102 -159h-110q-4 131 58 203t164 71z" />
    <glyph glyph-name="uni00A0" unicode="&#xa0;" horiz-adv-x="321" 
 />
    <glyph glyph-name="exclamdown" unicode="&#xa1;" horiz-adv-x="417" 
d="M211 1016q45 0 72 -31t27 -81t-28 -81q-26 -31 -71 -31t-74 32q-29 30 -29 80t29 81t74 31zM295 -387h-172l20 995h131z" />
    <glyph glyph-name="cent" unicode="&#xa2;" horiz-adv-x="788" 
d="M518 -12h-112v200q-102 20 -177 105q-102 123 -102 379q0 180 76 310t205 159v192h112v-182q86 -4 137 -37l-28 -125q-68 37 -142 37q-104 0 -153 -111t-49 -265t56 -249q55 -94 145 -94t159 35l21 -117q-51 -35 -148 -41v-196z" />
    <glyph glyph-name="sterling" unicode="&#xa3;" horiz-adv-x="788" 
d="M260 135h463v-135h-660v100q72 29 134 138q61 109 61 210t-12 175h-168v114h151q-29 129 -28 238q0 172 91 272t226 101q96 0 162 -41l-37 -125q-55 32 -131 32t-117 -62t-41 -163t27 -252h215v-114h-199q38 -315 -137 -484v-4z" />
    <glyph glyph-name="currency" unicode="&#xa4;" horiz-adv-x="788" 
d="M393 963q-78 0 -122 -78t-44 -210t46 -212t122 -81t119 79t43 210t-43 211t-121 81zM394 1081q118 0 196 -84l125 150l82 -84l-150 -150q49 -98 49 -240t-49 -239l148 -151l-80 -84l-129 149q-78 -84 -196 -84t-189 84l-125 -149l-82 84l145 147q-51 100 -51 238t53 245
l-149 150l84 84l127 -152q73 86 191 86z" />
    <glyph glyph-name="yen" unicode="&#xa5;" horiz-adv-x="788" 
d="M461 0h-148v383h-256v94h256v152h-256v94h217l-243 608h157l138 -391q39 -106 69 -209h4q23 84 68 211l143 389h150l-260 -608h221v-94h-260v-152h260v-94h-260v-383z" />
    <glyph glyph-name="brokenbar" unicode="&#xa6;" horiz-adv-x="411" 
d="M141 1380h129v-716h-129v716zM141 356h129v-716h-129v716z" />
    <glyph glyph-name="section" unicode="&#xa7;" horiz-adv-x="821" 
d="M469 1286q-90 0 -144 -37q-55 -37 -55 -114t64 -121q42 -30 139 -74q137 -57 211 -128t74 -207t-123 -236q70 -76 70 -174q-1 -143 -97 -221t-252 -76q-156 0 -245 69l39 111q100 -70 204 -70q214 0 213 162q0 68 -48 115t-181 109t-204 132q-71 68 -71 191t142 231
q-70 61 -71 179t95 194q95 75 227 75t216 -53l-37 -106q-76 49 -166 49zM186 724q0 -101 154 -174t215 -120q80 49 80 163t-141 183q-160 74 -213 109q-95 -60 -95 -161z" />
    <glyph glyph-name="dieresis" unicode="&#xa8;" 
d="M555 1249q-1 -39 -25 -65t-62 -25q-38 0 -65 26q-27 27 -27 65t27 65t64 27t63 -28q26 -26 25 -65zM236 1249q0 -39 -25 -65t-63 -25q-38 0 -64 26q-26 27 -27 65q0 38 27 65t64 27q36 0 62 -28q26 -26 26 -65z" />
    <glyph glyph-name="copyright" unicode="&#xa9;" horiz-adv-x="1386" 
d="M734 977q-122 0 -198 -80q-75 -80 -75 -207t76 -208t201 -81t214 48l25 -76q-98 -59 -259 -59t-262 106q-102 106 -102 270t114 269t282 106q70 -1 133 -17t88 -34l-25 -82q-90 45 -212 45zM692 1243q-222 0 -372 -160t-150 -391t152 -389t372 -159t372 159
q151 160 151 391t-152 390t-373 159zM68 695q0 263 183 447t445 185q262 0 442 -184q180 -183 181 -447q0 -264 -180 -449q-179 -185 -443 -185t-446 184q-182 186 -182 449z" />
    <glyph glyph-name="ordfeminine" unicode="&#xaa;" horiz-adv-x="559" 
d="M381 729v141q-43 0 -83 -6t-85 -40t-45 -89t30 -84t66 -28q63 0 101 61q16 25 16 45zM276 1204q213 0 213 -246v-268q1 -106 9 -151h-101l-8 71h-4q-51 -82 -156 -82q-71 0 -121 52t-51 139q0 117 91 177t231 60v23q0 129 -123 129q-72 0 -131 -43l-27 84q76 55 178 55z
" />
    <glyph glyph-name="guillemotleft" unicode="&#xab;" horiz-adv-x="724" 
d="M682 874l-213 -358l213 -356h-129l-209 356l211 358h127zM389 874l-211 -358l211 -356h-129l-209 356l211 358h127z" />
    <glyph glyph-name="logicalnot" unicode="&#xac;" horiz-adv-x="1220" 
d="M82 815h1057v-571h-115v458h-942v113z" />
    <glyph glyph-name="uni00AD" unicode="&#xad;" horiz-adv-x="595" 
d="M61 596h449v-121h-449v121z" />
    <glyph glyph-name="registered" unicode="&#xae;" horiz-adv-x="761" 
d="M380 1333q-103 0 -173 -75t-70 -180t71 -179t174 -75t173 74t70 180t-71 180t-174 75zM382 1399q134 0 227 -93q93 -92 93 -226t-93 -228t-227 -94t-228 94t-95 227q1 133 95 227t228 93zM332 1094h35q74 0 73 45q0 49 -67 49q-25 0 -41 -4v-90zM377 1243q139 0 139 -94
q0 -53 -67 -76v-4q41 -12 56 -78t25 -78h-73q-10 12 -25 78q-10 49 -67 49h-35v-127h-68v320q68 10 115 10z" />
    <glyph glyph-name="macron" unicode="&#xaf;" 
d="M106 1292h404v-104h-404v104z" />
    <glyph glyph-name="degree" unicode="&#xb0;" horiz-adv-x="573" 
d="M308 1319q-66 0 -110 -53t-44 -128t45 -126t111 -51t109 51q44 51 44 126t-44 128q-45 53 -111 53zM311 1403q104 0 176 -77q72 -78 72 -188t-76 -186t-179 -76t-175 76q-72 74 -72 185q-2 111 74 189t180 77z" />
    <glyph glyph-name="plusminus" unicode="&#xb1;" horiz-adv-x="1220" 
d="M84 113h1057v-113h-1057v113zM553 1161h117v-397h471v-113h-471v-411h-117v411h-469v113h469v397z" />
    <glyph glyph-name="twosuperior" unicode="&#xb2;" horiz-adv-x="501" 
d="M315 1426q-1 130 -129 130q-64 0 -129 -55l-34 90q75 72 193 72t174 -62t56 -157q0 -156 -210 -404l-62 -75v-4h285v-107h-455v59l84 103q76 94 110 139t75 126q42 81 42 145z" />
    <glyph glyph-name="threesuperior" unicode="&#xb3;" horiz-adv-x="481" 
d="M297 1453q1 112 -117 112q-60 0 -119 -43l-26 88q74 53 175 53q102 0 156 -53t54 -133q0 -131 -129 -183v-4q61 -14 107 -67t47 -146t-73 -164q-76 -69 -188 -69t-182 45l27 94q68 -41 137 -41t110 38t41 105q0 156 -180 156h-16v86h12q55 0 110 35q54 35 54 91z" />
    <glyph glyph-name="acute" unicode="&#xb4;" 
d="M385 1397h162l-215 -277h-105z" />
    <glyph glyph-name="mu" unicode="&#xb5;" horiz-adv-x="817" 
d="M397 -6q-94 0 -137 74v-146q0 -213 19 -315h-144q-27 80 -26 299v1085h157v-653q0 -221 131 -221q61 0 99 42q37 42 45 82t8 97v653h158v-778q0 -57 13 -85t50 -26l-16 -112q-20 -6 -54 -6q-100 -1 -125 118h-4q-20 -40 -68 -74t-106 -34z" />
    <glyph glyph-name="paragraph" unicode="&#xb6;" horiz-adv-x="821" 
d="M477 -102h-102v663h-13q-96 0 -193 96q-97 97 -107 279t106 313q117 131 350 131q90 0 182 -12v-1470h-102v1380h-121v-1380z" />
    <glyph glyph-name="periodcentered" unicode="&#xb7;" horiz-adv-x="397" 
d="M303 530q-1 -52 -29 -84t-74 -32t-76 32t-30 82q0 51 31 85t76 34t73 -32t29 -85z" />
    <glyph glyph-name="cedilla" unicode="&#xb8;" 
d="M469 -262q0 -68 -55 -108t-129 -40t-140 37l33 86q49 -31 103 -30q74 0 73 61q0 76 -141 90l82 176h98l-59 -112q55 -8 95 -50t40 -110z" />
    <glyph glyph-name="onesuperior" unicode="&#xb9;" horiz-adv-x="434" 
d="M322 854h-123v682h-4l-150 -80l-22 98l192 99h107v-799z" />
    <glyph glyph-name="ordmasculine" unicode="&#xba;" horiz-adv-x="618" 
d="M305 1112q-59 0 -88 -77t-29 -171t30 -169t89 -74q121 -1 121 245t-123 246zM318 1204q108 0 168 -85t60 -255t-69 -253q-70 -83 -172 -83t-169 87q-66 87 -66 250t70 251t178 88z" />
    <glyph glyph-name="guillemotright" unicode="&#xbb;" horiz-adv-x="724" 
d="M547 516l-211 358h127l211 -358l-209 -356h-129zM256 516l-213 358h127l211 -358l-207 -356h-131z" />
    <glyph glyph-name="onequarter" unicode="&#xbc;" horiz-adv-x="1255" 
d="M983 313v205q0 80 8 150h-4q-12 -27 -34 -71t-35 -71l-111 -209v-4h176zM1098 0h-115v219h-301v72l295 514h121v-492h94v-94h-94v-219zM319 -16h-100l696 1364h101zM362 539h-122v682h-4l-150 -80l-23 98l193 98h106v-798z" />
    <glyph glyph-name="onehalf" unicode="&#xbd;" horiz-adv-x="1255" 
d="M1038 572q0 132 -131 130q-64 0 -127 -55l-35 90q76 72 194 72q118 -1 174 -63t56 -156q0 -156 -211 -404l-63 -75v-5h287v-106h-455v59l84 103q76 94 110 139t75 126q42 81 42 145zM270 -16h-100l696 1364h99zM330 539h-123v682h-4l-150 -80l-22 98l192 98h107v-798z
" />
    <glyph glyph-name="threequarters" unicode="&#xbe;" horiz-adv-x="1255" 
d="M989 313v205q0 80 8 150h-4q-57 -115 -71 -142l-113 -209v-4h180zM1104 0h-115v219h-301v72l295 514h121v-492h94v-94h-94v-219zM354 -16h-100l696 1364h101zM354 1138q0 112 -116 112q-60 0 -119 -44l-27 88q80 54 178 54t152 -54t55 -133q0 -131 -131 -182v-4
q60 -13 108 -67t48 -147t-75 -163t-185 -70t-185 45l27 95q66 -41 136 -41t112 38q41 38 41 105q0 156 -180 156h-17v86h14q55 0 110 35q54 35 54 91z" />
    <glyph glyph-name="questiondown" unicode="&#xbf;" horiz-adv-x="632" 
d="M377 -272q74 0 133 36l33 -120q-78 -54 -212 -54t-205 81t-71 202q0 129 96 283q50 80 58 94q92 160 74 334l-2 34h137l4 -30q33 -195 -86 -389q-4 -6 -22 -37t-21 -37t-17 -32q-58 -113 -59 -198q0 -85 43 -126t117 -41zM358 1016h4q43 0 72 -32t29 -82t-29 -83t-75 -33
q-47 0 -75 33t-28 83t28 82t74 32z" />
    <glyph glyph-name="Agrave" unicode="&#xc0;" horiz-adv-x="890" 
d="M178 1675h187l192 -221h-125zM311 541h262l-71 350q-20 100 -56 315h-6q-31 -195 -57 -315zM596 414h-307l-90 -414h-154l315 1380h175l307 -1380h-156z" />
    <glyph glyph-name="Aacute" unicode="&#xc1;" horiz-adv-x="890" 
d="M539 1675h186l-254 -221h-125zM311 541h262l-71 350q-20 100 -56 315h-6q-31 -195 -57 -315zM596 414h-307l-90 -414h-154l315 1380h175l307 -1380h-156z" />
    <glyph glyph-name="Acircumflex" unicode="&#xc2;" horiz-adv-x="890" 
d="M381 1655h135l178 -201h-137l-106 113h-5l-106 -113h-135zM311 541h262l-71 350q-20 100 -56 315h-6q-31 -195 -57 -315zM596 414h-307l-90 -414h-154l315 1380h175l307 -1380h-156z" />
    <glyph glyph-name="Atilde" unicode="&#xc3;" horiz-adv-x="890" 
d="M344 1663q47 0 109 -35q57 -37 81 -37q24 1 37 17q12 16 17 59h82q4 -184 -127 -184q-49 0 -101 35q-57 33 -75 32q-40 0 -50 -80h-84q-2 88 31 140t80 53zM311 541h262l-71 350q-20 100 -56 315h-6q-31 -195 -57 -315zM594 414h-305l-90 -414h-154l315 1380h175
l305 -1380h-154z" />
    <glyph glyph-name="Adieresis" unicode="&#xc4;" horiz-adv-x="890" 
d="M616 1470q-40 0 -64 27t-24 68t26 69t64 27q38 0 62 -27q25 -26 25 -68t-25 -69t-64 -27zM288 1661q38 0 62 -27q24 -26 25 -68q-1 -42 -25 -69t-63 -27t-64 27t-25 68t26 69t64 27zM311 541h262l-71 350q-20 100 -56 315h-6q-31 -195 -57 -315zM596 414h-307l-90 -414
h-154l315 1380h175l307 -1380h-156z" />
    <glyph glyph-name="Aring" unicode="&#xc5;" horiz-adv-x="890" 
d="M452 1501q42 0 68 30t25 74q1 45 -25 75t-70 30t-68 -32t-24 -74t26 -72q26 -31 68 -31zM454 1784q87 0 138 -52t51 -127t-53 -127t-139 -52q-87 0 -139 50q-52 52 -52 127t53 128q54 53 141 53zM311 541h262l-71 350q-20 100 -56 315h-6q-31 -195 -57 -315zM596 414
h-307l-90 -414h-154l315 1380h175l307 -1380h-156z" />
    <glyph glyph-name="AE" unicode="&#xc6;" horiz-adv-x="1138" 
d="M332 582h229l-18 419q-2 29 -6 125t-7 144h-10q-41 -150 -80 -293zM1055 1380v-137h-381l26 -463h351v-133h-338l28 -510h367l-2 -137h-506l-27 455h-274l-127 -455h-156l416 1380h623z" />
    <glyph glyph-name="Ccedilla" unicode="&#xc7;" horiz-adv-x="811" 
d="M645 -260q0 -68 -55 -108t-129 -40t-139 37l32 86q49 -31 103 -30q74 0 73 63q0 72 -139 88l72 158q-182 28 -290 196t-107 484q0 195 45 341q78 252 273 341q80 37 184 37t157 -35l-35 -133q-66 29 -139 28q-127 0 -223 -137t-96 -429t90 -425q92 -133 233 -133
q79 0 145 29l25 -133q-63 -31 -168 -35l-45 -90q53 -8 93 -50t40 -110z" />
    <glyph glyph-name="Egrave" unicode="&#xc8;" horiz-adv-x="724" 
d="M115 1675h186l193 -221h-125zM627 788v-133h-346v-518h393v-137h-551v1380h526v-137h-368v-455h346z" />
    <glyph glyph-name="Eacute" unicode="&#xc9;" horiz-adv-x="724" 
d="M504 1675h186l-254 -221h-125zM627 788v-133h-346v-518h393v-137h-551v1380h526v-137h-368v-455h346z" />
    <glyph glyph-name="Ecircumflex" unicode="&#xca;" horiz-adv-x="724" 
d="M319 1655h136l178 -201h-137l-107 113h-4l-106 -113h-136zM627 788v-133h-346v-518h393v-137h-551v1380h526v-137h-368v-455h346z" />
    <glyph glyph-name="Edieresis" unicode="&#xcb;" horiz-adv-x="724" 
d="M643 1580q-1 -42 -25 -68t-63 -27q-39 1 -63 27t-25 67q0 41 26 69q25 28 63 28t62 -28q24 -26 25 -68zM223 1485q-39 1 -63 27t-25 67q0 41 26 69q25 28 63 28t63 -28q25 -26 25 -68t-25 -69q-25 -26 -64 -26zM627 788v-133h-346v-518h395v-137h-553v1380h526v-137h-368
v-455h346z" />
    <glyph glyph-name="Igrave" unicode="&#xcc;" horiz-adv-x="407" 
d="M-84 1675h186l193 -221h-125zM123 1380h158v-1380h-158v1380z" />
    <glyph glyph-name="Iacute" unicode="&#xcd;" horiz-adv-x="407" 
d="M289 1675h186l-254 -221h-125zM123 1380h158v-1380h-158v1380z" />
    <glyph glyph-name="Icircumflex" unicode="&#xce;" horiz-adv-x="407" 
d="M137 1655h135l179 -201h-138l-106 113h-4l-107 -113h-135zM123 1380h158v-1380h-158v1380z" />
    <glyph glyph-name="Idieresis" unicode="&#xcf;" horiz-adv-x="407" 
d="M459 1580q-1 -42 -25 -68t-63 -27q-39 1 -64 27t-25 67t26 69t64 28t62 -28q24 -26 25 -68zM127 1580q-1 -42 -25 -68t-63 -27q-39 1 -64 27t-25 67t26 69t64 28t62 -28q24 -26 25 -68zM123 1380h158v-1380h-158v1380z" />
    <glyph glyph-name="Eth" unicode="&#xd0;" horiz-adv-x="927" 
d="M506 780v-118h-209v-539q23 -4 76 -4q121 0 224 130t101 472q0 537 -327 536q-33 0 -74 -8v-469h209zM862 721q0 -733 -547 -733q-106 0 -174 12v662h-141v118h141v580q86 27 211 26q207 0 324 -104q186 -162 186 -561z" />
    <glyph glyph-name="Ntilde" unicode="&#xd1;" horiz-adv-x="952" 
d="M375 1663q47 0 108 -36t84 -36q23 1 35 17t16 59h82q4 -184 -127 -184q-49 0 -100 35q-57 33 -76 32q-41 0 -49 -80h-84q-2 88 31 140t80 53zM266 0h-141v1380h147l254 -647q137 -358 176 -481h5q-18 326 -19 635v493h141v-1380h-147l-262 664q-104 254 -166 469h-4
q16 -246 16 -656v-477z" />
    <glyph glyph-name="Ograve" unicode="&#xd2;" horiz-adv-x="913" 
d="M176 1675h186l193 -221h-125zM450 1257q-72 0 -127 -86q-92 -146 -94 -481q0 -227 53 -397t179 -170q174 0 213 366q10 93 10 201t-10 202t-35 179q-25 86 -71 136t-118 50zM66 689q0 339 110 523t291 185t281 -183t100 -534t-110 -522q-110 -174 -288 -174t-281 183
t-103 522z" />
    <glyph glyph-name="Oacute" unicode="&#xd3;" horiz-adv-x="913" 
d="M551 1675h186l-254 -221h-125zM450 1257q-72 0 -127 -86q-92 -146 -94 -481q0 -227 53 -397t179 -170q174 0 213 366q10 93 10 201t-10 202t-35 179q-25 86 -71 136t-118 50zM66 689q0 339 110 523t291 185t281 -183t100 -534t-110 -522q-110 -174 -288 -174t-281 183
t-103 522z" />
    <glyph glyph-name="Ocircumflex" unicode="&#xd4;" horiz-adv-x="913" 
d="M391 1655h135l179 -201h-138l-106 113h-4l-107 -113h-135zM450 1257q-72 0 -127 -86q-92 -146 -94 -481q0 -227 53 -397t179 -170q174 0 213 366q10 93 10 201t-10 202t-35 179q-25 86 -71 136t-118 50zM66 689q0 339 110 523t291 185t281 -183t100 -534t-110 -522
q-110 -174 -288 -174t-281 183t-103 522z" />
    <glyph glyph-name="Otilde" unicode="&#xd5;" horiz-adv-x="913" 
d="M348 1659q46 0 108 -36t85 -36q23 1 35 17t16 59h82q4 -184 -127 -184q-49 -1 -103 33t-73 34q-39 0 -49 -80h-84q-2 88 30 141q33 52 80 52zM450 1257q-72 0 -127 -86q-92 -146 -94 -481q0 -227 53 -397t179 -170q174 0 213 366q10 93 10 201t-10 202t-35 179
q-25 86 -71 136t-118 50zM66 689q0 339 110 523t291 185t281 -183t100 -534t-110 -522q-110 -174 -288 -174t-281 183t-103 522z" />
    <glyph glyph-name="Odieresis" unicode="&#xd6;" horiz-adv-x="913" 
d="M709 1580q0 -42 -25 -68t-64 -27q-40 1 -64 27t-24 67t26 69t64 28t62 -28q24 -26 25 -68zM379 1580q-1 -42 -25 -68t-63 -27q-39 1 -64 27t-25 67t26 69t64 28t62 -28q24 -26 25 -68zM450 1257q-72 0 -127 -86q-92 -146 -94 -481q0 -227 53 -397t179 -170q174 0 213 366
q10 93 10 201t-10 202t-35 179q-25 86 -71 136t-118 50zM66 689q0 339 110 523t291 185t281 -183t100 -534t-110 -522q-110 -174 -288 -174t-281 183t-103 522z" />
    <glyph glyph-name="multiply" unicode="&#xd7;" horiz-adv-x="1220" 
d="M82 995l76 82l450 -461l455 461l76 -82l-451 -458l449 -453l-78 -84l-449 459l-450 -459l-78 84l448 455z" />
    <glyph glyph-name="Oslash" unicode="&#xd8;" horiz-adv-x="913" 
d="M452 123q92 0 145 87q54 87 74 209q19 122 19 304t-37 315h-4l-344 -813q55 -102 147 -102zM468 1257q-240 0 -245 -565q0 -211 37 -340h4l336 815q-60 90 -132 90zM848 690q0 -354 -110 -530t-281 -176q-127 0 -211 92l-70 -152l-86 47l86 195q-110 180 -110 521
t108 525q109 184 285 185q121 0 207 -84l61 143l94 -41l-82 -186q109 -184 109 -539z" />
    <glyph glyph-name="Ugrave" unicode="&#xd9;" horiz-adv-x="935" 
d="M176 1675h186l193 -221h-125zM121 1380h158v-925q0 -332 186 -332q193 0 192 332v925h158v-901q0 -256 -94 -376t-258 -119q-342 0 -342 477v919z" />
    <glyph glyph-name="Uacute" unicode="&#xda;" horiz-adv-x="935" 
d="M567 1675h187l-254 -221h-125zM121 1380h158v-925q0 -332 186 -332q193 0 192 332v925h158v-901q0 -256 -94 -376t-258 -119q-342 0 -342 477v919z" />
    <glyph glyph-name="Ucircumflex" unicode="&#xdb;" horiz-adv-x="935" 
d="M401 1655h136l178 -201h-137l-107 113h-4l-107 -113h-135zM121 1380h158v-925q0 -332 186 -332q193 0 192 332v925h158v-901q0 -256 -94 -376t-258 -119q-342 0 -342 477v919z" />
    <glyph glyph-name="Udieresis" unicode="&#xdc;" horiz-adv-x="935" 
d="M721 1580q-1 -42 -25 -68t-63 -27q-39 1 -64 27t-25 67t26 69t64 28t62 -28q24 -26 25 -68zM301 1485q-39 1 -63 27t-25 67q0 41 26 69q25 28 63 28t63 -28q25 -26 25 -68t-25 -69q-25 -26 -64 -26zM121 1380h158v-925q0 -332 186 -332q193 0 192 332v925h158v-901
q0 -256 -94 -376t-258 -119q-342 0 -342 477v919z" />
    <glyph glyph-name="Yacute" unicode="&#xdd;" horiz-adv-x="806" 
d="M516 1675h186l-253 -221h-125zM481 0h-157v584l-306 796h168l123 -346q82 -242 103 -311h4q25 98 100 317l117 340h164l-316 -790v-590z" />
    <glyph glyph-name="Thorn" unicode="&#xde;" horiz-adv-x="811" 
d="M350 461q117 -1 184 71t66 199q0 254 -238 254q-50 0 -83 -6v-510q25 -8 71 -8zM125 0v1380h154v-272q41 6 104 6q176 0 275 -98q100 -98 100 -286t-116 -294t-286 -106q-33 0 -77 8v-338h-154z" />
    <glyph glyph-name="germandbls" unicode="&#xdf;" horiz-adv-x="880" 
d="M268 0h-157v922q0 297 129 421q96 91 230 91t222 -82t88 -238q0 -94 -49 -168q-135 -53 -135 -166q0 -49 22 -88q22 -38 82 -106q127 -147 126 -293q-1 -145 -94 -227t-226 -82q-92 0 -162 30l27 123q51 -27 131 -27t126 48q46 47 46 116q0 98 -107 224q-41 48 -61 76
q-58 83 -59 173q-1 91 45 155t118 99q18 39 19 99q0 110 -51 156t-115 47q-195 0 -195 -392v-911z" />
    <glyph glyph-name="agrave" unicode="&#xe0;" horiz-adv-x="745" 
d="M119 1397h162l157 -277h-104zM479 313v201q-272 0 -272 -231q0 -90 36 -133q36 -44 87 -44t90 39q59 59 59 168zM633 655v-430q0 -145 10 -225h-141l-10 104h-7q-68 -121 -198 -120q-100 0 -167 78t-67 204q0 176 120 268t302 93v30q0 109 -36 166t-124 57t-161 -51
l-35 111q92 66 231 66q283 -1 283 -351z" />
    <glyph glyph-name="aacute" unicode="&#xe1;" horiz-adv-x="745" 
d="M446 1397h162l-215 -277h-104zM479 313v201q-272 0 -272 -231q0 -90 36 -133q36 -44 87 -44t90 39q59 59 59 168zM633 655v-430q0 -145 10 -225h-141l-10 104h-7q-68 -121 -198 -120q-100 0 -167 78t-67 204q0 176 120 268t302 93v30q0 109 -36 166t-124 57t-161 -51
l-35 111q92 66 231 66q283 -1 283 -351z" />
    <glyph glyph-name="acircumflex" unicode="&#xe2;" horiz-adv-x="745" 
d="M313 1397h107l162 -277h-119l-94 178h-4l-95 -178h-118zM479 313v201q-272 0 -272 -231q0 -90 36 -133q36 -44 87 -44t90 39q59 59 59 168zM633 655v-430q0 -145 10 -225h-141l-10 104h-7q-68 -121 -198 -120q-100 0 -167 78t-67 204q0 176 120 268t302 93v30
q0 109 -36 166t-124 57t-161 -51l-35 111q92 66 231 66q283 -1 283 -351z" />
    <glyph glyph-name="atilde" unicode="&#xe3;" horiz-adv-x="745" 
d="M267 1341q52 0 110 -36q66 -35 82 -35q49 0 51 73h84q0 -182 -129 -182q-39 0 -100 35t-78 35q-43 0 -49 -82h-88q-2 84 31 138q34 54 86 54zM479 313v201q-272 0 -272 -231q0 -90 36 -133q36 -44 87 -44t90 39q59 59 59 168zM633 655v-430q0 -145 10 -225h-141l-10 104
h-7q-68 -121 -198 -120q-100 0 -167 78t-67 204q0 176 120 268t302 93v30q0 109 -36 166t-124 57t-161 -51l-35 111q92 66 231 66q283 -1 283 -351z" />
    <glyph glyph-name="adieresis" unicode="&#xe4;" horiz-adv-x="745" 
d="M621 1249q0 -39 -25 -65t-63 -25q-39 0 -65 26q-26 27 -26 65t27 65t64 27t63 -28q26 -26 25 -65zM301 1249q-1 -39 -25 -65t-62 -25q-38 0 -64 26q-26 27 -27 65q0 38 27 65q28 27 64 27t62 -28q26 -26 25 -65zM479 313v201q-272 0 -272 -231q0 -90 36 -133
q36 -44 87 -44t90 39q59 59 59 168zM633 655v-430q0 -145 10 -225h-141l-10 104h-7q-68 -121 -198 -120q-100 0 -167 78t-67 204q0 176 120 268t302 93v30q0 109 -36 166t-124 57t-161 -51l-35 111q92 66 231 66q283 -1 283 -351z" />
    <glyph glyph-name="aring" unicode="&#xe5;" horiz-adv-x="745" 
d="M370 1163q44 0 70 31t27 76q0 45 -27 76q-28 30 -72 30t-69 -33t-25 -75t26 -73q26 -32 70 -32zM368 1092q-83 0 -137 50q-53 50 -53 126t52 128t140 52t138 -51q51 -51 51 -127t-54 -127t-137 -51zM479 313v201q-82 0 -148 -28q-124 -52 -124 -203q0 -90 37 -133
q37 -44 88 -44t90 39q57 57 57 168zM633 655v-430q0 -145 10 -225h-141l-10 104h-7q-68 -121 -198 -120q-100 0 -167 78t-67 204q0 176 120 268t302 93v30q0 109 -36 166t-124 57t-161 -51l-35 111q92 66 231 66q283 -1 283 -351z" />
    <glyph glyph-name="ae" unicode="&#xe6;" horiz-adv-x="1148" 
d="M790 885q-68 0 -112 -83q-43 -83 -47 -196h307q4 133 -38 206t-110 73zM479 315v195q-86 0 -152 -28q-128 -53 -126 -201q0 -86 38 -129t90 -43q52 -1 91 39q59 60 59 167zM551 174q-70 -190 -262 -190q-98 0 -167 78t-69 208q0 170 121 259t303 89v56q0 92 -41 149
t-126 57t-158 -51l-35 109q94 68 227 68q82 0 144 -45t83 -134h4q33 84 98 131t144 48q135 0 204 -126t69 -309l-3 -77h-460q0 -385 233 -385q92 0 168 43l29 -113q-88 -55 -205 -55t-193 50t-104 140h-4z" />
    <glyph glyph-name="ccedilla" unicode="&#xe7;" horiz-adv-x="616" 
d="M528 -262q0 -68 -55 -108t-129 -40t-139 37l33 86q49 -31 102 -30q74 0 74 63q0 74 -142 88l74 164q-129 31 -204 157q-74 127 -74 341t105 362t286 148q86 0 139 -31l-31 -129q-53 27 -112 26q-113 0 -171 -112t-58 -278q0 -167 62 -265t171 -98q67 -1 114 28l25 -120
q-63 -35 -158 -39l-47 -90q55 -8 95 -50t40 -110z" />
    <glyph glyph-name="egrave" unicode="&#xe8;" horiz-adv-x="743" 
d="M152 1397h161l158 -277h-104zM378 883q-68 0 -108 -85q-41 -85 -47 -200h309q2 139 -42 212t-112 73zM221 481q0 -369 234 -368q94 0 163 37l27 -115q-90 -47 -219 -47q-174 0 -267 133t-93 367t93 376t238 142t216 -126t71 -309q0 -41 -4 -90h-459z" />
    <glyph glyph-name="eacute" unicode="&#xe9;" horiz-adv-x="743" 
d="M481 1397h162l-215 -277h-104zM378 883q-68 0 -108 -85q-41 -85 -47 -200h309q2 139 -42 212t-112 73zM221 481q0 -369 234 -368q94 0 163 37l27 -115q-90 -47 -219 -47q-174 0 -267 133t-93 367t93 376t238 142t216 -126t71 -309q0 -41 -4 -90h-459z" />
    <glyph glyph-name="ecircumflex" unicode="&#xea;" horiz-adv-x="743" 
d="M344 1397h107l161 -277h-118l-95 178h-4l-94 -178h-119zM378 883q-68 0 -108 -85q-41 -85 -47 -200h309q2 139 -42 212t-112 73zM221 481q0 -369 234 -368q94 0 163 37l27 -115q-90 -47 -219 -47q-174 0 -267 133t-93 367t93 376t238 142t216 -126t71 -309q0 -41 -4 -90
h-459z" />
    <glyph glyph-name="edieresis" unicode="&#xeb;" horiz-adv-x="743" 
d="M564 1159q-38 0 -64 26q-26 27 -27 65q0 38 27 65q28 27 64 27t62 -28q26 -26 26 -65t-26 -65q-24 -26 -62 -25zM332 1249q0 -39 -24 -65t-63 -25q-38 0 -65 26q-26 27 -26 65t26 65q27 27 64 27q36 0 62 -28q26 -26 26 -65zM378 883q-68 0 -108 -85q-41 -85 -47 -200
h309q2 139 -42 212t-112 73zM221 481q0 -369 234 -368q94 0 163 37l27 -115q-90 -47 -219 -47q-174 0 -267 133t-93 367t93 376t238 142t216 -126t71 -309q0 -41 -4 -90h-459z" />
    <glyph glyph-name="igrave" unicode="&#xec;" horiz-adv-x="376" 
d="M-57 1397h161l158 -277h-104zM268 0h-157v991h157v-991z" />
    <glyph glyph-name="iacute" unicode="&#xed;" horiz-adv-x="376" 
d="M268 1397h160l-215 -277h-104zM268 0h-157v991h157v-991z" />
    <glyph glyph-name="icircumflex" unicode="&#xee;" horiz-adv-x="376" 
d="M137 1397h107l162 -277h-119l-94 178h-5l-94 -178h-119zM268 0h-157v991h157v-991z" />
    <glyph glyph-name="idieresis" unicode="&#xef;" horiz-adv-x="376" 
d="M349 1159q-39 0 -65 26q-26 27 -26 65t27 65t63 27t63 -28q25 -26 25 -65t-24 -65t-63 -25zM119 1249q-1 -39 -25 -65t-62 -25q-38 0 -65 26q-27 27 -27 65t27 65t64 27t63 -28q26 -26 25 -65zM268 0h-157v991h157v-991z" />
    <glyph glyph-name="eth" unicode="&#xf0;" horiz-adv-x="780" 
d="M713 506q0 -389 -212 -495q-56 -28 -116 -27q-141 0 -229 130t-88 374t86 372t206 135q66 4 111 -28l4 4q-39 84 -121 176l-192 -107l-41 68l172 98q-20 25 -146 150l93 84q129 -121 172 -168l186 104l41 -69l-170 -99q98 -116 171 -274t73 -428zM225 482q-1 -80 11 -160
t52 -146t104 -67q64 0 103 66q38 67 49 143t11 228q0 150 -31 238q-31 98 -131 99q-51 0 -87 -39t-52 -104t-22 -122q-6 -56 -7 -136z" />
    <glyph glyph-name="ntilde" unicode="&#xf1;" horiz-adv-x="829" 
d="M312 1341q52 1 112 -35q61 -36 80 -36q49 0 51 73h84q0 -182 -129 -182q-39 0 -100 35t-78 35q-43 0 -49 -82h-88q-2 84 31 138q34 54 86 54zM719 666v-666h-158v637q0 236 -137 235q-51 0 -92 -42q-64 -66 -64 -207v-623h-157v735l-9 256h138l8 -121h4q74 135 227 136
q109 0 175 -84t65 -256z" />
    <glyph glyph-name="ograve" unicode="&#xf2;" horiz-adv-x="784" 
d="M158 1397h161l158 -277h-104zM225 494q0 -388 178 -386q57 0 97 68q61 106 61 307q0 266 -84 360q-35 38 -84 38q-126 0 -161 -259q-7 -60 -7 -128zM400 1006q140 0 230 -132t89 -386q0 -256 -98 -380q-97 -124 -235 -124t-228 130t-90 382t96 381t236 129z" />
    <glyph glyph-name="oacute" unicode="&#xf3;" horiz-adv-x="784" 
d="M473 1397h162l-215 -277h-105zM225 494q0 -388 178 -386q57 0 97 68q61 106 61 307q0 266 -84 360q-35 38 -84 38q-126 0 -161 -259q-7 -60 -7 -128zM400 1006q140 0 230 -132t89 -386q0 -256 -98 -380q-97 -124 -235 -124t-228 130t-90 382t96 381t236 129z" />
    <glyph glyph-name="ocircumflex" unicode="&#xf4;" horiz-adv-x="784" 
d="M340 1397h106l162 -277h-119l-94 178h-4l-94 -178h-119zM225 494q0 -388 178 -386q57 0 97 68q61 106 61 307q0 266 -84 360q-35 38 -84 38q-126 0 -161 -259q-7 -60 -7 -128zM400 1006q140 0 230 -132t89 -386q0 -256 -98 -380q-97 -124 -235 -124t-228 130t-90 382
t96 381t236 129z" />
    <glyph glyph-name="otilde" unicode="&#xf5;" horiz-adv-x="784" 
d="M288 1341q52 0 109 -36q66 -35 82 -35q49 0 51 73h84q0 -182 -129 -182q-39 0 -100 35t-78 35q-43 0 -49 -82h-88q-2 84 32 138t86 54zM225 494q0 -388 178 -386q57 0 97 68q61 106 61 307q0 266 -84 360q-35 38 -84 38q-126 0 -161 -259q-7 -60 -7 -128zM400 1006
q140 0 230 -132t89 -386q0 -256 -98 -380q-97 -124 -235 -124t-228 130t-90 382t96 381t236 129z" />
    <glyph glyph-name="odieresis" unicode="&#xf6;" horiz-adv-x="784" 
d="M641 1249q-1 -39 -25 -65t-62 -25q-38 0 -65 26q-27 27 -27 65t27 65t64 27t63 -28q26 -26 25 -65zM322 1249q0 -39 -25 -65t-63 -25q-38 0 -64 26q-26 27 -27 65q0 38 27 65t64 27q36 0 62 -28q26 -26 26 -65zM225 494q0 -388 178 -386q57 0 97 68q61 106 61 307
q0 266 -84 360q-35 38 -84 38q-126 0 -161 -259q-7 -60 -7 -128zM400 1006q140 0 230 -132t89 -386q0 -256 -98 -380q-97 -124 -235 -124t-228 130t-90 382t96 381t236 129z" />
    <glyph glyph-name="divide" unicode="&#xf7;" horiz-adv-x="1220" 
d="M611 90q-43 0 -67 27t-24 67t26 69q26 28 66 28t66 -27q24 -27 24 -69q0 -43 -24 -69t-67 -26zM1139 489h-1057v113h1057v-113zM611 811q-43 0 -67 27q-24 28 -24 68t26 68t66 28t66 -28q24 -26 24 -68t-24 -68t-67 -27z" />
    <glyph glyph-name="oslash" unicode="&#xf8;" horiz-adv-x="784" 
d="M387 109q110 0 149 132q31 109 31 243t-24 227h-4l-246 -541q35 -61 94 -61zM393 881q-53 0 -90 -39q-84 -89 -84 -346q0 -129 27 -226l4 -4l250 549q-29 66 -107 66zM397 1006q86 0 164 -62l53 109l84 -45l-67 -138q88 -132 88 -384t-97 -377t-227 -125q-92 0 -168 57
l-51 -109l-80 52l64 131q-92 131 -92 382t96 380t233 129z" />
    <glyph glyph-name="ugrave" unicode="&#xf9;" horiz-adv-x="815" 
d="M174 1397h162l158 -277h-105zM348 -16q-242 0 -242 381v626h158v-604q0 -131 29 -201t97 -70t105 44q36 43 44 83t8 95v653h158v-721l8 -270h-138l-12 104h-4q-27 -44 -83 -82t-128 -38z" />
    <glyph glyph-name="uacute" unicode="&#xfa;" horiz-adv-x="815" 
d="M502 1397h162l-215 -277h-105zM348 -16q-242 0 -242 381v626h158v-604q0 -131 29 -201t97 -70t105 44q36 43 44 83t8 95v653h158v-721l8 -270h-138l-12 104h-4q-27 -44 -83 -82t-128 -38z" />
    <glyph glyph-name="ucircumflex" unicode="&#xfb;" horiz-adv-x="815" 
d="M354 1397h107l162 -277h-119l-94 178h-4l-95 -178h-118zM348 -16q-242 0 -242 381v626h158v-604q0 -131 29 -201t97 -70t105 44q36 43 44 83t8 95v653h158v-721l8 -270h-138l-12 104h-4q-27 -44 -83 -82t-128 -38z" />
    <glyph glyph-name="udieresis" unicode="&#xfc;" horiz-adv-x="815" 
d="M662 1249q0 -39 -25 -65t-63 -25q-38 0 -64 26q-26 27 -27 65q0 38 27 65q28 27 64 27t62 -28q26 -26 26 -65zM342 1249q0 -39 -24 -65t-63 -25q-38 0 -65 26q-26 27 -26 65t26 65q27 27 64 27q36 0 62 -28q26 -26 26 -65zM348 -16q-242 0 -242 381v626h158v-604
q0 -131 29 -201t97 -70t105 44q36 43 44 83t8 95v653h158v-721l8 -270h-138l-12 104h-4q-27 -44 -83 -82t-128 -38z" />
    <glyph glyph-name="yacute" unicode="&#xfd;" horiz-adv-x="708" 
d="M442 1397h162l-215 -277h-104zM25 991h165l134 -569q8 -35 20 -103t21 -102h4q31 172 41 203l118 571h156l-162 -637q-117 -467 -246 -639q-82 -104 -178 -149l-59 133q74 41 136 120t87 152t12 107z" />
    <glyph glyph-name="thorn" unicode="&#xfe;" horiz-adv-x="817" 
d="M264 614v-254q0 -51 10 -81q18 -92 60 -128t84 -36q174 0 174 379q0 168 -43 272t-131 104q-53 0 -95 -54t-51 -126q-8 -33 -8 -76zM109 1360h155v-492h4q68 138 199 138t207 -136t76 -382t-88 -375t-214 -129t-180 116h-4v-493h-155v1753z" />
    <glyph glyph-name="ydieresis" unicode="&#xff;" horiz-adv-x="708" 
d="M523 1159q-39 0 -65 26q-26 27 -26 65t27 65t63 27t63 -28q25 -26 25 -65t-24 -65t-63 -25zM291 1249q-1 -39 -25 -65t-62 -25q-38 0 -65 26q-27 27 -27 65t27 65t64 27t63 -28q26 -26 25 -65zM25 991h165l134 -569q8 -35 20 -103t21 -102h4q31 172 41 203l118 571h156
l-162 -637q-117 -467 -246 -639q-82 -104 -178 -149l-59 133q74 41 136 120t87 152t12 107z" />
    <glyph glyph-name="Amacron" unicode="&#x100;" horiz-adv-x="890" 
d="M227 1614h437v-109h-437v109zM311 541h262l-71 350q-20 100 -56 315h-6q-31 -195 -57 -315zM596 414h-307l-90 -414h-154l315 1380h175l307 -1380h-156z" />
    <glyph glyph-name="amacron" unicode="&#x101;" horiz-adv-x="745" 
d="M172 1292h403v-104h-403v104zM479 313v201q-272 0 -272 -231q0 -90 36 -133q36 -44 87 -44t90 39q59 59 59 168zM633 655v-430q0 -145 10 -225h-141l-10 104h-7q-68 -121 -198 -120q-100 0 -167 78t-67 204q0 176 120 268t302 93v30q0 109 -36 166t-124 57t-161 -51
l-35 111q92 66 231 66q283 -1 283 -351z" />
    <glyph glyph-name="Abreve" unicode="&#x102;" horiz-adv-x="890" 
d="M227 1653h92q16 -88 125 -88t127 88h93q0 -89 -58 -143t-160 -54t-160 52t-59 145zM311 541h262l-71 350q-20 100 -56 315h-6q-31 -195 -57 -315zM596 414h-307l-90 -414h-154l315 1380h175l307 -1380h-156z" />
    <glyph glyph-name="abreve" unicode="&#x103;" horiz-adv-x="745" 
d="M374 1245q56 0 91 35t37 90h88q4 -100 -56 -166t-162 -66t-162 66q-58 66 -54 166h88q4 -55 39 -90t91 -35zM479 313v201q-272 0 -272 -231q0 -90 36 -133q36 -44 87 -44t90 39q59 59 59 168zM633 655v-430q0 -145 10 -225h-141l-10 104h-7q-68 -121 -198 -120
q-100 0 -167 78t-67 204q0 176 120 268t302 93v30q0 109 -36 166t-124 57t-161 -51l-35 111q92 66 231 66q283 -1 283 -351z" />
    <glyph glyph-name="Aogonek" unicode="&#x104;" horiz-adv-x="890" 
d="M309 541h262l-71 350q-20 100 -56 315h-6q-29 -180 -55 -315zM794 -293q40 0 80 19l23 -88q-59 -46 -142 -46t-130 46t-47 136q0 92 104 238l-88 402h-305l-92 -414h-154l317 1380h175l305 -1380h-47q-90 -111 -91 -199q0 -45 26 -69t66 -25z" />
    <glyph glyph-name="aogonek" unicode="&#x105;" horiz-adv-x="745" 
d="M479 311v203q-272 0 -272 -231q0 -90 36 -133q36 -44 87 -44t90 39q59 59 59 166zM633 655v-430q0 -164 18 -225h-37q-84 -115 -84 -211q0 -45 26 -70t70 -25t76 17l23 -88q-61 -43 -144 -43t-129 45t-46 135t96 240l-10 104h-7q-68 -121 -198 -120q-100 0 -167 78
t-67 204q0 176 120 268t302 93v30q0 109 -36 166t-124 57t-161 -51l-35 111q92 66 231 66q283 -1 283 -351z" />
    <glyph glyph-name="Cacute" unicode="&#x106;" horiz-adv-x="763" 
d="M592 1675h186l-254 -221h-125zM528 -12q-211 0 -337 173t-125 513q0 195 45 341q78 252 274 341q81 37 185 37t155 -35l-35 -133q-66 29 -137 28q-129 0 -225 -137t-96 -430t90 -426q92 -133 235 -133q77 0 143 29l27 -131q-70 -37 -199 -37z" />
    <glyph glyph-name="cacute" unicode="&#x107;" horiz-adv-x="618" 
d="M479 1397h162l-215 -277h-104zM430 -12q-166 0 -264 130t-98 361t105 379t286 148q86 0 139 -31l-31 -129q-53 27 -112 26q-113 0 -171 -112t-58 -278q0 -167 62 -265t171 -98q61 -1 112 26l23 -120q-63 -37 -164 -37z" />
    <glyph glyph-name="Ccircumflex" unicode="&#x108;" horiz-adv-x="763" 
d="M414 1655h135l178 -201h-137l-107 113h-4l-106 -113h-135zM528 -12q-211 0 -337 173t-125 513q0 195 45 341q78 252 274 341q81 37 185 37t155 -35l-35 -133q-66 29 -137 28q-129 0 -225 -137t-96 -430t90 -426q92 -133 235 -133q77 0 143 29l27 -131q-70 -37 -199 -37z
" />
    <glyph glyph-name="ccircumflex" unicode="&#x109;" horiz-adv-x="618" 
d="M342 1397h107l161 -277h-118l-95 178h-4l-94 -178h-119zM430 -12q-166 0 -264 130t-98 361t105 379t286 148q86 0 139 -31l-31 -129q-53 27 -112 26q-113 0 -171 -112t-58 -278q0 -167 62 -265t171 -98q61 -1 112 26l23 -120q-63 -37 -164 -37z" />
    <glyph glyph-name="Cdotaccent" unicode="&#x10a;" horiz-adv-x="763" 
d="M496 1657q38 0 64 -27q26 -26 26 -64t-26 -64t-65 -27q-38 1 -65 27t-27 64t27 64t66 27zM528 -12q-211 0 -337 173t-125 513q0 195 45 341q78 252 274 341q81 37 185 37t155 -35l-35 -133q-66 29 -137 28q-129 0 -225 -137t-96 -430t90 -426q92 -133 235 -133
q77 0 143 29l27 -131q-70 -37 -199 -37z" />
    <glyph glyph-name="cdotaccent" unicode="&#x10b;" horiz-adv-x="618" 
d="M392 1159q-38 0 -64 26q-26 27 -27 65q0 38 27 65q28 27 64 27t62 -28q26 -26 26 -65t-26 -65q-24 -26 -62 -25zM430 -12q-166 0 -264 130t-98 361t105 379t286 148q86 0 139 -31l-31 -129q-53 27 -112 26q-113 0 -171 -112t-58 -278q0 -167 62 -265t171 -98
q61 -1 112 26l23 -120q-63 -37 -164 -37z" />
    <glyph glyph-name="Ccaron" unicode="&#x10c;" horiz-adv-x="763" 
d="M565 1454h-135l-178 201h137l107 -119h4l106 119h135zM528 -12q-211 0 -337 173t-125 513q0 195 45 341q78 252 274 341q81 37 185 37t155 -35l-35 -133q-66 29 -137 28q-129 0 -225 -137t-96 -430t90 -426q92 -133 235 -133q77 0 143 29l27 -131q-70 -37 -199 -37z" />
    <glyph glyph-name="ccaron" unicode="&#x10d;" horiz-adv-x="618" 
d="M442 1120h-106l-162 277h119l94 -178h4l96 178h119zM430 -12q-166 0 -264 130t-98 361t105 379t286 148q86 0 139 -31l-31 -129q-53 27 -112 26q-113 0 -171 -112t-58 -278q0 -167 62 -265t171 -98q61 -1 112 26l23 -120q-63 -37 -164 -37z" />
    <glyph glyph-name="Dcaron" unicode="&#x10e;" horiz-adv-x="911" 
d="M467 1454h-135l-178 201h137l106 -119h4l107 119h135zM350 123q105 0 185 75q147 137 147 521q0 539 -328 538q-46 0 -73 -8v-1122q23 -4 69 -4zM299 -8q-111 0 -174 14v1354q86 27 211 26q207 0 323 -104q186 -162 187 -559q0 -731 -547 -731z" />
    <glyph glyph-name="dcaron" unicode="&#x10f;" horiz-adv-x="837" 
d="M854 1262q0 90 -66 143l117 22q68 -47 68 -157t-109 -238l-69 47q59 93 59 183zM551 350v262q0 133 -47 195q-47 63 -103 63q-92 0 -134 -108t-42 -272t43 -270t125 -105q111 0 152 170q6 26 6 65zM551 1417h156v-1179q0 -8 8 -238h-135l-11 123h-6q-66 -139 -201 -139
t-215 134q-79 134 -79 378t87 376t213 134q126 0 179 -117h4v528z" />
    <glyph glyph-name="Dcroat" unicode="&#x110;" horiz-adv-x="927" 
d="M506 780v-118h-209v-539q23 -4 76 -4q121 0 224 130t101 472q0 537 -327 536q-33 0 -74 -8v-469h209zM862 721q0 -733 -547 -733q-106 0 -174 12v662h-141v118h141v580q86 27 211 26q207 0 324 -104q186 -162 186 -561z" />
    <glyph glyph-name="dcroat" unicode="&#x111;" horiz-adv-x="817" 
d="M551 350v262q0 133 -47 195q-47 63 -103 63q-92 0 -134 -108t-42 -272t43 -270t125 -105q111 0 152 170q6 26 6 65zM825 1114h-118v-876q0 -8 8 -238h-135l-11 123h-6q-66 -139 -201 -139t-215 134q-79 134 -79 378t87 376t213 134q126 0 179 -117h4v225h-268v109h268
v194h156v-194h118v-109z" />
    <glyph glyph-name="Emacron" unicode="&#x112;" horiz-adv-x="724" 
d="M176 1614h436v-109h-436v109zM627 788v-133h-346v-518h393v-137h-551v1380h526v-137h-368v-455h346z" />
    <glyph glyph-name="emacron" unicode="&#x113;" horiz-adv-x="743" 
d="M182 1292h404v-104h-404v104zM378 883q-68 0 -108 -85q-41 -85 -47 -200h309q2 139 -42 212t-112 73zM221 481q0 -369 234 -368q94 0 163 37l27 -115q-90 -47 -219 -47q-174 0 -267 133t-93 367t93 376t238 142t216 -126t71 -309q0 -41 -4 -90h-459z" />
    <glyph glyph-name="Ebreve" unicode="&#x114;" horiz-adv-x="724" 
d="M172 1657h92q16 -88 125 -88t127 88h92q0 -89 -58 -143t-160 -54t-160 52q-58 53 -58 145zM627 788v-133h-346v-518h393v-137h-551v1380h526v-137h-368v-455h346z" />
    <glyph glyph-name="ebreve" unicode="&#x115;" horiz-adv-x="743" 
d="M388 1245q56 0 91 35t37 90h88q4 -100 -56 -166t-162 -66t-162 66q-58 66 -54 166h88q4 -55 39 -90t91 -35zM378 883q-68 0 -108 -85q-41 -85 -47 -200h309q2 139 -42 212t-112 73zM221 481q0 -369 234 -368q94 0 163 37l27 -115q-90 -47 -219 -47q-174 0 -267 133
t-93 367t93 376t238 142t216 -126t71 -309q0 -41 -4 -90h-459z" />
    <glyph glyph-name="Edotaccent" unicode="&#x116;" horiz-adv-x="724" 
d="M396 1489q-38 0 -64 27q-26 26 -27 64q0 38 27 65q28 27 66 27t64 -28q26 -26 26 -64t-28 -64q-26 -26 -64 -27zM627 788v-133h-346v-518h393v-137h-551v1380h526v-137h-368v-455h346z" />
    <glyph glyph-name="edotaccent" unicode="&#x117;" horiz-adv-x="743" 
d="M390 1159q-38 0 -64 26q-26 27 -27 65q0 38 27 65q28 27 64 27t62 -28q26 -26 26 -65t-26 -65q-24 -26 -62 -25zM378 883q-68 0 -108 -85q-41 -85 -47 -200h309q2 139 -42 212t-112 73zM221 481q0 -369 234 -368q94 0 163 37l27 -115q-90 -47 -219 -47q-174 0 -267 133
t-93 367t93 376t238 142t216 -126t71 -309q0 -41 -4 -90h-459z" />
    <glyph glyph-name="Eogonek" unicode="&#x118;" horiz-adv-x="724" 
d="M538 -412q-86 0 -130 42t-43 116q0 74 49 142t118 112h-409v1380h526v-137h-368v-455h346v-133h-346v-518h393v-137q-6 -2 -23 -6q-160 -109 -159 -209q0 -79 90 -81q41 0 80 15l22 -86q-60 -45 -146 -45z" />
    <glyph glyph-name="eogonek" unicode="&#x119;" horiz-adv-x="743" 
d="M378 883q-68 0 -108 -85q-41 -85 -47 -200h309q2 139 -42 212t-112 73zM272 -255q0 69 47 135t109 106v2h-8q-172 2 -263 135t-91 367t93 374q93 142 238 142t215 -126t70 -309q0 -70 -2 -90h-459q0 -369 234 -368q94 0 163 37l27 -115l-30 -12q-94 -39 -155 -110
q-62 -71 -62 -121q-1 -89 75 -89q45 0 92 27l29 -86q-62 -52 -146 -52t-130 42t-46 111z" />
    <glyph glyph-name="Ecaron" unicode="&#x11a;" horiz-adv-x="724" 
d="M457 1454h-135l-179 201h138l106 -119h4l107 119h135zM627 788v-133h-346v-518h393v-137h-551v1380h526v-137h-368v-455h346z" />
    <glyph glyph-name="ecaron" unicode="&#x11b;" horiz-adv-x="743" 
d="M436 1120h-106l-162 277h119l94 -178h4l96 178h119zM378 883q-68 0 -108 -85q-41 -85 -47 -200h309q2 139 -42 212t-112 73zM221 481q0 -369 234 -368q94 0 163 37l27 -115q-90 -47 -219 -47q-174 0 -267 133t-93 367t93 376t238 142t216 -126t71 -309q0 -41 -4 -90h-459
z" />
    <glyph glyph-name="Gcircumflex" unicode="&#x11c;" horiz-adv-x="892" 
d="M453 1655h137l178 -201h-137l-107 113h-4l-106 -113h-135zM801 721v-686q-111 -47 -244 -47q-203 0 -326 133q-168 180 -165 551q2 371 155 546q154 175 365 175q123 0 194 -39l-35 -135q-66 33 -157 32q-150 0 -254 -135t-104 -430t92 -429q94 -134 235 -134q72 0 96 16
v451h-178v131h326z" />
    <glyph glyph-name="gcircumflex" unicode="&#x11d;" horiz-adv-x="817" 
d="M352 1397h105l161 -277h-118l-92 178h-5l-96 -178h-119zM553 362v287q0 45 -8 72q-37 150 -144 149q-84 0 -130 -102t-46 -276t49 -268t127 -93q104 0 142 141q10 39 10 90zM709 682v-555q0 -185 -24 -279q-66 -256 -339 -258q-129 0 -217 50l37 122q82 -43 184 -43
q203 0 203 304v100h-4q-51 -121 -187 -121t-215 135t-79 372t94 367t214 130t189 -125h4l9 110h139q-8 -270 -8 -309z" />
    <glyph glyph-name="Gbreve" unicode="&#x11e;" horiz-adv-x="892" 
d="M301 1653h92q16 -88 125 -88t127 88h92q0 -89 -58 -143q-57 -54 -159 -54t-161 52q-58 53 -58 145zM801 721v-686q-111 -47 -244 -47q-203 0 -326 133q-168 180 -165 551q2 371 155 546q154 175 365 175q123 0 194 -39l-35 -135q-66 33 -157 32q-150 0 -254 -135
t-104 -430t92 -429q94 -134 235 -134q72 0 96 16v451h-178v131h326z" />
    <glyph glyph-name="gbreve" unicode="&#x11f;" horiz-adv-x="817" 
d="M410 1245q56 0 90 35q35 35 37 90h88q3 -100 -57 -166t-162 -66t-160 66q-57 66 -53 166h88q5 -55 39 -90t90 -35zM553 362v287q0 45 -8 72q-37 150 -144 149q-84 0 -130 -102t-46 -276t49 -268t127 -93q104 0 142 141q10 39 10 90zM709 682v-555q0 -185 -24 -279
q-66 -256 -339 -258q-129 0 -217 50l37 122q82 -43 184 -43q203 0 203 304v100h-4q-51 -121 -187 -121t-215 135t-79 372t94 367t214 130t189 -125h4l9 110h139q-8 -270 -8 -309z" />
    <glyph glyph-name="Gdotaccent" unicode="&#x120;" horiz-adv-x="892" 
d="M523 1475q-39 1 -65 27t-26 64t27 64t65 27q38 0 65 -27q25 -26 25 -64t-26 -65q-27 -26 -65 -26zM801 721v-686q-111 -47 -244 -47q-203 0 -326 133q-168 180 -165 551q2 371 155 546q154 175 365 175q123 0 194 -39l-35 -135q-66 33 -157 32q-150 0 -254 -135
t-104 -430t92 -429q94 -134 235 -134q72 0 96 16v451h-178v131h326z" />
    <glyph glyph-name="gdotaccent" unicode="&#x121;" horiz-adv-x="817" 
d="M500 1249q0 -39 -24 -65t-63 -25q-38 0 -65 26q-26 27 -26 65t26 65q27 27 64 27q36 0 62 -28q26 -26 26 -65zM553 362v287q0 45 -8 72q-37 150 -144 149q-84 0 -130 -102t-46 -276t49 -268t127 -93q104 0 142 141q10 39 10 90zM709 682v-555q0 -185 -24 -279
q-66 -256 -339 -258q-129 0 -217 50l37 122q82 -43 184 -43q203 0 203 304v100h-4q-51 -121 -187 -121t-215 135t-79 372t94 367t214 130t189 -125h4l9 110h139q-8 -270 -8 -309z" />
    <glyph glyph-name="Gcommaaccent" unicode="&#x122;" horiz-adv-x="892" 
d="M518 -236q0 72 -69 125l126 25q72 -51 72 -142t-64 -143q-65 -51 -161 -67l-35 76q53 14 92 47t39 79zM801 721v-686q-111 -47 -244 -47q-203 0 -326 133q-168 180 -165 551q2 371 155 546q154 175 365 175q123 0 194 -39l-35 -135q-66 33 -157 32q-150 0 -254 -135
t-104 -430t92 -429q94 -134 235 -134q72 0 96 16v451h-178v131h326z" />
    <glyph glyph-name="gcommaaccent" unicode="&#x123;" horiz-adv-x="817" 
d="M426 1233q0 -70 74 -127l-125 -23q-72 51 -72 143q1 92 65 144q64 50 162 66l35 -72q-139 -33 -139 -131zM553 362v287q0 45 -8 72q-37 150 -144 149q-84 0 -130 -102t-46 -276t49 -268t127 -93q104 0 142 141q10 39 10 90zM709 682v-555q0 -185 -24 -279
q-66 -256 -339 -258q-129 0 -217 50l37 122q82 -43 184 -43q203 0 203 304v100h-4q-51 -121 -187 -121t-215 135t-79 372t94 367t214 130t189 -125h4l9 110h139q-8 -270 -8 -309z" />
    <glyph glyph-name="Hcircumflex" unicode="&#x124;" horiz-adv-x="948" 
d="M412 1655h135l178 -201h-137l-107 113h-4l-106 -113h-135zM123 1380h158v-592h387v592h157v-1380h-157v645h-387v-645h-158v1380z" />
    <glyph glyph-name="hcircumflex" unicode="&#x125;" horiz-adv-x="829" 
d="M125 1675h135l178 -200h-137l-106 112h-5l-106 -112h-135zM487 1006q102 0 167 -86t65 -263v-657h-158v639q0 233 -133 233q-117 0 -154 -157q-6 -31 -6 -74v-641h-157v1417h157v-534h4q75 123 215 123z" />
    <glyph glyph-name="Hbar" unicode="&#x126;" horiz-adv-x="948" 
d="M668 768v221h-387v-221h387zM922 989h-97v-989h-157v625h-387v-625h-158v989h-96v113h96v278h158v-278h387v278h157v-278h97v-113z" />
    <glyph glyph-name="hbar" unicode="&#x127;" horiz-adv-x="829" 
d="M487 1006q102 0 167 -86t65 -263v-657h-158v639q0 233 -133 233q-117 0 -154 -157q-6 -31 -6 -74v-641h-157v1114h-123v109h123v194h157v-194h273v-109h-273v-231h4q75 123 215 123z" />
    <glyph glyph-name="Itilde" unicode="&#x128;" horiz-adv-x="407" 
d="M100 1663q48 0 107 -36t82 -36q23 1 35 17t16 59h82q4 -184 -127 -184q-49 0 -101 34t-73 33q-39 0 -49 -80h-84q-2 88 30 141q34 52 82 52zM123 1380h158v-1380h-158v1380z" />
    <glyph glyph-name="itilde" unicode="&#x129;" horiz-adv-x="376" 
d="M85 1341q52 0 110 -36q66 -35 81 -35q49 0 52 73h84q0 -182 -129 -182q-39 0 -101 35t-78 35q-43 0 -49 -82h-88q-2 84 32 138t86 54zM268 0h-157v991h157v-991z" />
    <glyph glyph-name="Imacron" unicode="&#x12a;" horiz-adv-x="407" 
d="M-12 1614h436v-109h-436v109zM123 1380h158v-1380h-158v1380z" />
    <glyph glyph-name="imacron" unicode="&#x12b;" horiz-adv-x="376" 
d="M-10 1292h403v-104h-403v104zM268 0h-157v991h157v-991z" />
    <glyph glyph-name="Ibreve" unicode="&#x12c;" horiz-adv-x="407" 
d="M-16 1657h92q16 -88 125 -88t127 88h92q0 -89 -58 -143t-160 -54q-101 0 -160 52q-58 53 -58 145zM123 1380h158v-1380h-158v1380z" />
    <glyph glyph-name="ibreve" unicode="&#x12d;" horiz-adv-x="376" 
d="M191 1245q56 0 92 35q35 35 36 90h89q4 -100 -56 -166t-164 -66q-102 0 -160 66t-55 166h88q4 -55 39 -90t91 -35zM268 0h-157v991h157v-991z" />
    <glyph glyph-name="Iogonek" unicode="&#x12e;" horiz-adv-x="407" 
d="M281 1380v-1380h-45q-84 -115 -84 -209q0 -45 24 -71t70 -26q45 0 78 17l22 -88q-61 -43 -143 -43t-129 45t-47 135t96 240v1380h158z" />
    <glyph glyph-name="iogonek" unicode="&#x12f;" horiz-adv-x="376" 
d="M268 991v-991h-47q-84 -115 -84 -211q0 -45 26 -70q25 -25 69 -25t77 17l23 -88q-60 -43 -144 -43t-130 45t-46 137t99 238v991h157zM281 1247q0 -47 -26 -75t-68 -27q-41 0 -67 29q-26 30 -26 74t27 73t67 29t67 -28q26 -28 26 -75z" />
    <glyph glyph-name="Idotaccent" unicode="&#x130;" horiz-adv-x="407" 
d="M295 1580q-1 -38 -27 -64t-64 -27q-38 0 -65 27q-27 26 -27 64t27 65t66 27t65 -28q26 -26 25 -64zM123 1380h158v-1380h-158v1380z" />
    <glyph glyph-name="dotlessi" unicode="&#x131;" horiz-adv-x="376" 
d="M268 0h-157v991h157v-991z" />
    <glyph glyph-name="IJ" unicode="&#x132;" horiz-adv-x="950" 
d="M682 387v993h158v-991q0 -221 -83 -313t-241 -92q-66 0 -102 14l14 133q27 -8 76 -8q90 0 134 55t44 209zM123 1380h158v-1380h-158v1380z" />
    <glyph glyph-name="ij" unicode="&#x133;" horiz-adv-x="763" 
d="M580 1350q40 0 66 -28t26 -75t-26 -75t-68 -28t-67 30q-26 30 -26 74t27 73t68 29zM500 109v882h157v-928q1 -153 -23 -237q-43 -154 -180 -209q-63 -25 -114 -27l-21 125q98 27 134 78q47 72 47 316zM94 1248q0 44 26 73t68 29q41 0 67 -28t26 -75t-26 -75t-68 -28
q-41 0 -67 30t-26 74zM268 0h-157v991h157v-991z" />
    <glyph glyph-name="Jcircumflex" unicode="&#x134;" horiz-adv-x="542" 
d="M276 1655h136l178 -201h-137l-107 113h-4l-106 -113h-136zM274 387v993h158v-991q0 -221 -83 -313t-240 -92q-66 0 -103 14l14 133q27 -8 76 -8q90 0 134 55t44 209z" />
    <glyph glyph-name="jcircumflex" unicode="&#x135;" horiz-adv-x="385" 
d="M141 1380h107l162 -276h-119l-92 178h-4l-97 -178h-118zM123 109v882h158v-928q0 -153 -24 -237q-44 -154 -180 -209q-63 -25 -114 -27l-20 125q98 27 133 78q47 72 47 316z" />
    <glyph glyph-name="Kcommaaccent" unicode="&#x136;" horiz-adv-x="827" 
d="M424 -221q0 72 -70 125l127 24q72 -51 72 -142q-1 -90 -65 -142t-162 -68l-33 76q53 14 92 47t39 80zM125 0v1380h156v-655h4q25 43 86 166l258 489h174l-338 -589l346 -791h-170l-283 666l-77 -134v-532h-156z" />
    <glyph glyph-name="kcommaaccent" unicode="&#x137;" horiz-adv-x="724" 
d="M492 -228q0 -90 -65 -142t-163 -68l-33 76q53 14 93 47q39 33 38 79q0 72 -69 125l127 25q72 -51 72 -142zM264 1417v-887h4q47 100 54 111l196 350h170l-262 -418l287 -573h-176l-215 467l-58 -92v-375h-155v1417h155z" />
    <glyph glyph-name="kgreenlandic" unicode="&#x138;" horiz-adv-x="724" 
d="M264 991v-461h4q47 100 54 111l196 350h170l-262 -418l287 -573h-176l-215 467l-58 -92v-375h-155v991h155z" />
    <glyph glyph-name="Lacute" unicode="&#x139;" horiz-adv-x="704" 
d="M328 1675h186l-254 -221h-125zM123 0v1380h158v-1247h387v-133h-545z" />
    <glyph glyph-name="lacute" unicode="&#x13a;" horiz-adv-x="391" 
d="M295 1696h186l-254 -221h-125zM111 0v1417h157v-1417h-157z" />
    <glyph glyph-name="Lcommaaccent" unicode="&#x13b;" horiz-adv-x="704" 
d="M354 -236q0 72 -69 125l127 25q72 -51 72 -142t-65 -143q-65 -51 -163 -67l-33 76q53 14 92 47t39 79zM123 0v1380h158v-1247h387v-133h-545z" />
    <glyph glyph-name="lcommaaccent" unicode="&#x13c;" horiz-adv-x="391" 
d="M186 -236q0 72 -69 125l127 25q72 -51 72 -142t-65 -143q-65 -51 -163 -67l-33 76q53 14 92 47t39 79zM111 0v1417h157v-1417h-157z" />
    <glyph glyph-name="Lcaron" unicode="&#x13d;" horiz-adv-x="704" 
d="M508 1231q0 72 -70 125l127 24q72 -51 72 -142q-1 -90 -65 -142t-162 -68l-33 76q53 14 92 47t39 80zM123 0v1380h158v-1247h387v-133h-545z" />
    <glyph glyph-name="lcaron" unicode="&#x13e;" horiz-adv-x="397" 
d="M535 1272q0 -108 -109 -238l-70 47q60 91 60 181t-66 143l117 22q68 -47 68 -155zM111 0v1417h157v-1417h-157z" />
    <glyph glyph-name="Ldot" unicode="&#x13f;" horiz-adv-x="704" 
d="M584 740q0 -38 -26 -64t-65 -27q-38 0 -65 27q-27 26 -27 64t27 65t66 27q38 0 64 -28q26 -26 26 -64zM123 0v1380h158v-1247h387v-133h-545z" />
    <glyph glyph-name="ldot" unicode="&#x140;" horiz-adv-x="481" 
d="M432 717q-36 -1 -60 25t-24 65t25 65t61 25q36 0 58 -26q22 -27 22 -65t-24 -64t-58 -25zM111 0v1417h157v-1417h-157z" />
    <glyph glyph-name="Lslash" unicode="&#x141;" horiz-adv-x="718" 
d="M682 0h-545v524l-139 -133v144l139 133v712h158v-585l217 209v-146l-217 -207v-518h387v-133z" />
    <glyph glyph-name="lslash" unicode="&#x142;" horiz-adv-x="405" 
d="M283 0h-158v606l-127 -129v139l127 132v669h158v-547l131 136v-144l-131 -135v-727z" />
    <glyph glyph-name="Nacute" unicode="&#x143;" horiz-adv-x="952" 
d="M596 1675h184l-254 -221h-125zM266 0h-141v1380h147l254 -647q137 -358 176 -481h5q-18 326 -19 635v493h141v-1380h-147l-262 664q-104 254 -166 469h-4q16 -246 16 -656v-477z" />
    <glyph glyph-name="nacute" unicode="&#x144;" horiz-adv-x="829" 
d="M506 1397h162l-215 -277h-105zM719 666v-666h-158v637q0 236 -137 235q-51 0 -92 -42q-64 -66 -64 -207v-623h-157v735l-9 256h138l8 -121h4q74 135 227 136q109 0 175 -84t65 -256z" />
    <glyph glyph-name="Ncommaaccent" unicode="&#x145;" horiz-adv-x="952" 
d="M459 -229q0 72 -70 125l127 24q72 -51 72 -142q0 -90 -65 -142t-163 -68l-32 76q53 14 92 47t39 80zM266 0h-141v1380h147l254 -647q137 -358 176 -481h5q-18 326 -19 635v493h141v-1380h-147l-262 664q-104 254 -166 469h-4q16 -246 16 -656v-477z" />
    <glyph glyph-name="ncommaaccent" unicode="&#x146;" horiz-adv-x="829" 
d="M420 -212q0 58 -68 114l125 24q72 -51 72 -142q-1 -90 -65 -142t-160 -68l-33 76q53 14 91 47t38 91zM719 666v-666h-158v637q0 236 -137 235q-51 0 -92 -42q-64 -66 -64 -207v-623h-157v735l-9 256h138l8 -121h4q74 135 227 136q109 0 175 -84t65 -256z" />
    <glyph glyph-name="Ncaron" unicode="&#x147;" horiz-adv-x="952" 
d="M543 1454h-135l-179 201h138l106 -119h4l107 119h135zM266 0h-141v1380h147l254 -647q137 -358 176 -481h5q-18 326 -19 635v493h141v-1380h-147l-262 664q-104 254 -166 469h-4q16 -246 16 -656v-477z" />
    <glyph glyph-name="ncaron" unicode="&#x148;" horiz-adv-x="829" 
d="M469 1120h-109l-161 277h118l95 -178h4l96 178h119zM719 666v-666h-158v637q0 236 -137 235q-51 0 -92 -42q-64 -66 -64 -207v-623h-157v735l-9 256h138l8 -121h4q74 135 227 136q109 0 175 -84t65 -256z" />
    <glyph glyph-name="napostrophe" unicode="&#x149;" horiz-adv-x="829" 
d="M92 1283q0 81 -65 128l123 21q68 -42 68 -142t-109 -209l-76 39q59 82 59 163zM719 666v-666h-158v637q0 236 -137 235q-51 0 -92 -42q-64 -66 -64 -207v-623h-157v735l-9 256h138l8 -121h4q74 135 227 136q109 0 175 -84t65 -256z" />
    <glyph glyph-name="Eng" unicode="&#x14a;" horiz-adv-x="952" 
d="M266 0h-141v1380h147l254 -647q129 -332 176 -481h5q-18 326 -19 635v493h141v-1337q0 -178 -66 -284q-67 -105 -220 -140l-39 121q182 53 184 248l-268 676q-104 254 -166 469h-4q16 -246 16 -654v-479z" />
    <glyph glyph-name="eng" unicode="&#x14b;" horiz-adv-x="829" 
d="M719 666v-603q0 -365 -287 -417l-33 127q80 19 121 83t41 199v582q0 236 -137 235q-51 0 -92 -42q-64 -66 -64 -207v-623h-157v735l-9 256h138l8 -121h4q74 135 227 136q109 0 175 -84t65 -256z" />
    <glyph glyph-name="Omacron" unicode="&#x14c;" horiz-adv-x="913" 
d="M242 1614h436v-109h-436v109zM450 1257q-72 0 -127 -86q-92 -146 -94 -481q0 -227 53 -397t179 -170q174 0 213 366q10 93 10 201t-10 202t-35 179q-25 86 -71 136t-118 50zM66 689q0 339 110 523t291 185t281 -183t100 -534t-110 -522q-110 -174 -288 -174t-281 183
t-103 522z" />
    <glyph glyph-name="omacron" unicode="&#x14d;" horiz-adv-x="784" 
d="M193 1292h403v-104h-403v104zM225 494q0 -388 178 -386q57 0 97 68q61 106 61 307q0 266 -84 360q-35 38 -84 38q-126 0 -161 -259q-7 -60 -7 -128zM400 1006q140 0 230 -132t89 -386q0 -256 -98 -380q-97 -124 -235 -124t-228 130t-90 382t96 381t236 129z" />
    <glyph glyph-name="Obreve" unicode="&#x14e;" horiz-adv-x="913" 
d="M236 1659h92q16 -88 125 -88t127 88h92q0 -88 -58 -142q-58 -55 -160 -55q-101 0 -160 52q-58 53 -58 145zM450 1257q-72 0 -127 -86q-92 -146 -94 -481q0 -227 53 -397t179 -170q174 0 213 366q10 93 10 201t-10 202t-35 179q-25 86 -71 136t-118 50zM66 689
q0 339 110 523t291 185t281 -183t100 -534t-110 -522q-110 -174 -288 -174t-281 183t-103 522z" />
    <glyph glyph-name="obreve" unicode="&#x14f;" horiz-adv-x="784" 
d="M391 1245q55 0 90 35t37 90h88q4 -100 -56 -166t-162 -66t-161 66q-57 66 -53 166h88q4 -55 39 -90t90 -35zM225 494q0 -388 178 -386q57 0 97 68q61 106 61 307q0 266 -84 360q-35 38 -84 38q-126 0 -161 -259q-7 -60 -7 -128zM400 1006q140 0 230 -132t89 -386
q0 -256 -98 -380q-97 -124 -235 -124t-228 130t-90 382t96 381t236 129z" />
    <glyph glyph-name="Ohungarumlaut" unicode="&#x150;" horiz-adv-x="913" 
d="M678 1675h164l-203 -202h-111zM416 1675h166l-203 -202h-111zM450 1257q-72 0 -127 -86q-92 -146 -94 -481q0 -227 53 -397t179 -170q174 0 213 366q10 93 10 201t-10 202t-35 179q-25 86 -71 136t-118 50zM66 689q0 339 110 523t291 185t281 -183t100 -534t-110 -522
q-110 -174 -288 -174t-281 183t-103 522z" />
    <glyph glyph-name="ohungarumlaut" unicode="&#x151;" horiz-adv-x="784" 
d="M621 1397h143l-213 -277h-90zM367 1397h143l-213 -277h-90zM225 494q0 -388 178 -386q57 0 97 68q61 106 61 307q0 266 -84 360q-35 38 -84 38q-126 0 -161 -259q-7 -60 -7 -128zM400 1006q140 0 230 -132t89 -386q0 -256 -98 -380q-97 -124 -235 -124t-228 130t-90 382
t96 381t236 129z" />
    <glyph glyph-name="OE" unicode="&#x152;" horiz-adv-x="1249" 
d="M547 123q69 0 100 16v1096q-39 23 -110 22q-121 0 -214 -137t-95 -434t89 -430q90 -133 230 -133zM692 0l-153 -16q-359 0 -449 434q-25 121 -24 264q0 348 137 531t354 184q65 0 150 -17h467v-137h-369v-455h346v-133h-346v-518h393v-137h-506z" />
    <glyph glyph-name="oe" unicode="&#x153;" horiz-adv-x="1247" 
d="M890 883q-66 0 -111 -85q-44 -85 -48 -200h307q4 135 -39 210t-109 75zM401 881q-53 0 -91 -38t-62 -133t-23 -214q0 -387 181 -387q174 0 174 386t-179 386zM926 -16q-90 0 -166 53t-109 153h-4q-31 -102 -101 -154t-155 -52q-143 0 -233 131t-90 380t96 379t237 132
q84 0 154 -52t98 -149h4q80 201 258 201q137 0 206 -127t69 -310q0 -64 -2 -84h-461q1 -211 63 -294t168 -82q63 0 172 38l27 -110q-86 -53 -231 -53z" />
    <glyph glyph-name="Racute" unicode="&#x154;" horiz-adv-x="837" 
d="M500 1675h186l-254 -221h-125zM281 723h67q114 0 182 76t68 200q0 258 -233 261q-57 -1 -84 -9v-528zM125 0v1360q94 27 225 26q211 0 312 -98q96 -98 96 -270q0 -252 -221 -356v-5q77 -23 119 -97t65 -212q49 -285 80 -348h-160q-29 57 -74 340q-23 143 -73 202
q-51 58 -152 58h-61v-600h-156z" />
    <glyph glyph-name="racute" unicode="&#x155;" horiz-adv-x="507" 
d="M369 1397h161l-215 -277h-104zM496 844h-33q-74 0 -126 -58q-71 -80 -71 -237v-549h-157v735l-9 256h142l8 -157h4q25 74 83 122t126 50q23 0 33 -2v-160z" />
    <glyph glyph-name="Rcommaaccent" unicode="&#x156;" horiz-adv-x="837" 
d="M418 -221q0 72 -70 125l127 24q72 -51 72 -142q0 -90 -65 -142t-163 -68l-32 76q53 14 92 47t39 80zM281 723h67q114 0 182 76t68 200q0 258 -233 261q-57 -1 -84 -9v-528zM125 0v1360q94 27 225 26q211 0 312 -98q96 -98 96 -270q0 -252 -221 -356v-5q77 -23 119 -97
t65 -212q49 -285 80 -348h-160q-29 57 -74 340q-23 143 -73 202q-51 58 -152 58h-61v-600h-156z" />
    <glyph glyph-name="rcommaaccent" unicode="&#x157;" horiz-adv-x="507" 
d="M211 -236q0 72 -70 125l127 25q72 -51 72 -142q0 -90 -64 -142t-163 -68l-33 76q53 14 92 47t39 79zM496 844h-33q-74 0 -126 -58q-71 -80 -71 -237v-549h-157v735l-9 256h142l8 -157h4q25 74 83 122t126 50q23 0 33 -2v-160z" />
    <glyph glyph-name="Rcaron" unicode="&#x158;" horiz-adv-x="837" 
d="M469 1454h-135l-178 201h137l106 -119h4l107 119h135zM281 723h67q114 0 182 76t68 200q0 258 -233 261q-57 -1 -84 -9v-528zM125 0v1360q94 27 225 26q211 0 312 -98q96 -98 96 -270q0 -252 -221 -356v-5q77 -23 119 -97t65 -212q49 -285 80 -348h-160q-29 57 -74 340
q-23 143 -73 202q-51 58 -152 58h-61v-600h-156z" />
    <glyph glyph-name="rcaron" unicode="&#x159;" horiz-adv-x="507" 
d="M332 1120h-109l-162 277h119l94 -178h5l96 178h119zM496 844h-33q-74 0 -126 -58q-71 -80 -71 -237v-549h-157v735l-9 256h142l8 -157h4q25 74 83 122t126 50q23 0 33 -2v-160z" />
    <glyph glyph-name="Sacute" unicode="&#x15a;" horiz-adv-x="739" 
d="M469 1675h186l-254 -221h-125zM286 127q112 0 173 63q61 62 61 160t-45 163t-137 134q-260 178 -260 383q0 158 101 260t245 102t211 -51l-37 -135q-68 47 -164 47t-148 -59t-52 -145q0 -87 44 -141t158 -136q240 -168 240 -397q0 -175 -110 -281t-277 -106
q-69 0 -135 18t-97 41l35 135q82 -55 194 -55z" />
    <glyph glyph-name="sacute" unicode="&#x15b;" horiz-adv-x="591" 
d="M387 1397h162l-215 -277h-105zM237 113q73 0 113 39t39 101q0 62 -27 105t-100 93q-199 127 -199 280q0 121 78 198q77 77 181 77t190 -52l-41 -118q-66 45 -129 45t-97 -37t-34 -88t25 -87t98 -85q205 -131 205 -301q0 -143 -85 -219t-211 -76t-198 57l39 119
q80 -51 153 -51z" />
    <glyph glyph-name="Scircumflex" unicode="&#x15c;" horiz-adv-x="739" 
d="M317 1655h136l178 -201h-137l-107 113h-4l-107 -113h-135zM286 127q112 0 173 63q61 62 61 160t-45 163t-137 134q-260 178 -260 383q0 158 101 260t245 102t211 -51l-37 -135q-68 47 -164 47t-148 -59t-52 -145q0 -87 44 -141t158 -136q240 -168 240 -397
q0 -175 -110 -281t-277 -106q-69 0 -135 18t-97 41l35 135q82 -55 194 -55z" />
    <glyph glyph-name="scircumflex" unicode="&#x15d;" horiz-adv-x="591" 
d="M244 1397h106l162 -277h-119l-94 178h-4l-94 -178h-119zM237 113q73 0 113 39t39 101q0 62 -27 105t-100 93q-199 127 -199 280q0 121 78 198q77 77 181 77t190 -52l-41 -118q-66 45 -129 45t-97 -37t-34 -88t25 -87t98 -85q205 -131 205 -301q0 -143 -85 -219t-211 -76
t-198 57l39 119q80 -51 153 -51z" />
    <glyph glyph-name="Scedilla" unicode="&#x15e;" horiz-adv-x="739" 
d="M286 127q112 0 173 63q61 62 61 160t-45 163t-137 134q-260 178 -260 383q0 158 101 260t245 102t211 -51l-37 -135q-68 47 -164 47t-148 -59t-52 -145q0 -87 44 -141t158 -136q240 -168 240 -397q0 -141 -72 -239t-192 -132l-58 -106q56 -8 96 -50t40 -110t-56 -108
q-55 -40 -129 -40t-139 37l33 86q45 -31 102 -30q74 0 74 63q0 74 -142 88l72 154h-16q-69 0 -135 18t-97 41l35 135q82 -55 194 -55z" />
    <glyph glyph-name="scedilla" unicode="&#x15f;" horiz-adv-x="591" 
d="M237 113q73 0 113 39t39 101q0 62 -27 105t-100 93q-199 127 -199 280q0 121 78 198q77 77 181 77t190 -52l-41 -118q-66 45 -129 45t-97 -37t-34 -88t25 -87t98 -85q205 -131 205 -301q1 -113 -53 -184t-142 -97l-55 -104q55 -8 95 -50t40 -110t-55 -108t-129 -40
t-140 37l33 86q49 -31 103 -30q74 0 73 61q0 76 -141 90l72 154h-9q-114 0 -186 57l39 119q80 -51 153 -51z" />
    <glyph glyph-name="Scaron" unicode="&#x160;" horiz-adv-x="739" 
d="M469 1454h-135l-178 201h137l106 -119h4l107 119h135zM286 127q112 0 173 63q61 62 61 160t-45 163t-137 134q-260 178 -260 383q0 158 101 260t245 102t211 -51l-37 -135q-68 47 -164 47t-148 -59t-52 -145q0 -87 44 -141t158 -136q240 -168 240 -397q0 -175 -110 -281
t-277 -106q-69 0 -135 18t-97 41l35 135q82 -55 194 -55z" />
    <glyph glyph-name="scaron" unicode="&#x161;" horiz-adv-x="591" 
d="M354 1120h-106l-162 277h119l92 -178h4l98 178h119zM237 113q73 0 113 39t39 101q0 62 -27 105t-100 93q-199 127 -199 280q0 121 78 198q77 77 181 77t190 -52l-41 -118q-66 45 -129 45t-97 -37t-34 -88t25 -87t98 -85q205 -131 205 -301q0 -143 -85 -219t-211 -76
t-198 57l39 119q80 -51 153 -51z" />
    <glyph glyph-name="Tcommaaccent" unicode="&#x162;" horiz-adv-x="724" 
d="M348 -236q0 72 -69 125l127 25q72 -51 72 -142t-65 -143q-65 -51 -163 -67l-33 76q53 14 92 47t39 79zM285 0v1239h-252v141h661v-141h-252v-1239h-157z" />
    <glyph glyph-name="tcommaaccent" unicode="&#x163;" horiz-adv-x="522" 
d="M272 -236q0 72 -69 125l127 25q72 -51 72 -142t-65 -143q-65 -51 -163 -67l-33 76q53 14 92 47t39 79zM303 991h191v-119h-191v-589q0 -164 103 -164q39 0 63 6l8 -121q-45 -16 -133 -16t-143 62t-56 247v575h-120v119h120v168l158 64v-232z" />
    <glyph glyph-name="Tcaron" unicode="&#x164;" horiz-adv-x="724" 
d="M428 1454h-135l-178 201h137l106 -119h4l107 119h135zM285 0v1239h-252v141h661v-141h-252v-1239h-157z" />
    <glyph glyph-name="tcaron" unicode="&#x165;" horiz-adv-x="542" 
d="M522 1302q0 87 -61 132l123 22q68 -47 67 -135q1 -110 -112 -223l-76 41q59 76 59 163zM303 991h191v-119h-191v-589q0 -164 105 -164q35 0 63 6l6 -121q-43 -16 -132 -16t-144 62t-56 247v575h-120v119h120v168l158 64v-232z" />
    <glyph glyph-name="Tbar" unicode="&#x166;" horiz-adv-x="724" 
d="M694 1239h-252v-463h172v-114h-172v-662h-157v662h-172v114h172v463h-252v141h661v-141z" />
    <glyph glyph-name="tbar" unicode="&#x167;" horiz-adv-x="522" 
d="M494 872h-191v-239h150v-109h-150v-241q0 -164 103 -164q39 0 63 6l8 -121q-45 -16 -133 -16t-143 62t-56 247v227h-112v109h112v239h-120v119h120v168l158 64v-232h191v-119z" />
    <glyph glyph-name="Utilde" unicode="&#x168;" horiz-adv-x="935" 
d="M362 1663q48 0 107 -36t82 -36q23 1 35 17t16 59h82q4 -184 -127 -184q-49 0 -101 34t-73 33q-39 0 -49 -80h-84q-2 88 31 140t81 53zM121 1380h158v-925q0 -332 186 -332q193 0 192 332v925h158v-901q0 -256 -94 -376t-258 -119q-342 0 -342 477v919z" />
    <glyph glyph-name="utilde" unicode="&#x169;" horiz-adv-x="815" 
d="M301 1341q51 1 113 -35t80 -36q49 0 51 73h84q0 -182 -129 -182q-38 0 -100 35t-78 35q-44 0 -50 -82h-88q-2 84 32 138t85 54zM348 -16q-242 0 -242 381v626h158v-604q0 -131 29 -201t97 -70t105 44q36 43 44 83t8 95v653h158v-721l8 -270h-138l-12 104h-4
q-27 -44 -83 -82t-128 -38z" />
    <glyph glyph-name="Umacron" unicode="&#x16a;" horiz-adv-x="935" 
d="M248 1614h436v-109h-436v109zM121 1380h158v-925q0 -332 186 -332q193 0 192 332v925h158v-901q0 -256 -94 -376t-258 -119q-342 0 -342 477v919z" />
    <glyph glyph-name="umacron" unicode="&#x16b;" horiz-adv-x="815" 
d="M203 1292h403v-104h-403v104zM348 -16q-242 0 -242 381v626h158v-604q0 -131 29 -201t97 -70t105 44q36 43 44 83t8 95v653h158v-721l8 -270h-138l-12 104h-4q-27 -44 -83 -82t-128 -38z" />
    <glyph glyph-name="Ubreve" unicode="&#x16c;" horiz-adv-x="935" 
d="M248 1653h92q16 -88 125 -88t127 88h92q0 -89 -58 -143t-160 -54t-160 52q-58 53 -58 145zM121 1380h158v-925q0 -332 186 -332q193 0 192 332v925h158v-901q0 -256 -94 -376t-258 -119q-342 0 -342 477v919z" />
    <glyph glyph-name="ubreve" unicode="&#x16d;" horiz-adv-x="815" 
d="M408 1245q56 0 92 35q35 35 37 90h88q3 -100 -57 -166t-162 -66t-161 66t-55 166h89q5 -55 39 -90t90 -35zM348 -16q-242 0 -242 381v626h158v-604q0 -131 29 -201t97 -70t105 44q36 43 44 83t8 95v653h158v-721l8 -270h-138l-12 104h-4q-27 -44 -83 -82t-128 -38z" />
    <glyph glyph-name="Uring" unicode="&#x16e;" horiz-adv-x="935" 
d="M464 1692q-44 0 -68 -32t-24 -74t26 -73t69 -31t69 30t26 74t-27 75t-71 31zM470 1765q87 0 138 -52t51 -127t-53 -127t-139 -52t-139 51q-54 51 -54 126t54 128t142 53zM121 1380h158v-925q0 -332 186 -332q193 0 192 332v925h158v-901q0 -256 -94 -376t-258 -119
q-342 0 -342 477v919z" />
    <glyph glyph-name="uring" unicode="&#x16f;" horiz-adv-x="815" 
d="M409 1163q45 0 71 31t26 76t-27 76q-27 30 -71 30t-70 -33q-25 -33 -25 -75t26 -73q26 -32 70 -32zM407 1092q-83 0 -137 50q-53 50 -53 126t52 128q51 52 139 52t139 -51t51 -127t-54 -127t-137 -51zM348 -16q-242 0 -242 381v626h158v-604q0 -131 29 -201t97 -70
t105 44q36 43 44 83t8 95v653h158v-721l8 -270h-138l-12 104h-4q-27 -44 -83 -82t-128 -38z" />
    <glyph glyph-name="Uhungarumlaut" unicode="&#x170;" horiz-adv-x="935" 
d="M668 1675h163l-202 -202h-111zM406 1675h165l-202 -202h-111zM121 1380h158v-925q0 -332 186 -332q193 0 192 332v925h158v-901q0 -256 -94 -376t-258 -119q-342 0 -342 477v919z" />
    <glyph glyph-name="uhungarumlaut" unicode="&#x171;" horiz-adv-x="815" 
d="M639 1397h143l-213 -277h-90zM385 1397h143l-213 -277h-90zM348 -16q-242 0 -242 381v626h158v-604q0 -131 29 -201t97 -70t105 44q36 43 44 83t8 95v653h158v-721l8 -270h-138l-12 104h-4q-27 -44 -83 -82t-128 -38z" />
    <glyph glyph-name="Uogonek" unicode="&#x172;" horiz-adv-x="935" 
d="M489 -192q0 -92 90 -91q42 0 83 23l22 -88q-63 -45 -144 -45t-128 42t-47 113q0 109 102 224h-25q-322 14 -321 475v919h158v-925q0 -332 186 -332q193 0 192 332v925h158v-901q0 -362 -190 -454q-57 -45 -97 -107t-39 -110z" />
    <glyph glyph-name="uogonek" unicode="&#x173;" horiz-adv-x="815" 
d="M705 991v-721q0 -139 12 -270h-31q-84 -115 -84 -211q0 -45 26 -70t70 -25t76 17l23 -88q-61 -43 -145 -43t-129 45q-46 45 -46 137t98 238l-12 104h-4q-27 -44 -83 -82t-128 -38q-242 0 -242 381v626h158v-604q0 -131 29 -201t97 -70t105 44q36 43 44 83t8 95v653h158z
" />
    <glyph glyph-name="Wcircumflex" unicode="&#x174;" horiz-adv-x="1339" 
d="M606 1655h135l179 -201h-138l-106 113h-4l-107 -113h-135zM455 0h-150l-264 1380h162l116 -665q41 -229 70 -498h6q16 162 84 500l127 663h133l129 -649q63 -334 80 -514h6q18 168 72 506l115 657h155l-268 -1380h-156l-131 672q-43 219 -71 452h-4q-27 -233 -76 -458z
" />
    <glyph glyph-name="wcircumflex" unicode="&#x175;" horiz-adv-x="1159" 
d="M526 1397h107l162 -277h-119l-94 178h-4l-95 -178h-118zM27 991h163l97 -485q41 -213 53 -316h8q18 131 62 312l114 489h121l109 -475q45 -205 63 -326h8q14 129 54 320l94 481h157l-249 -991h-129l-115 481q-29 111 -55 297h-4q-23 -154 -58 -303l-119 -475h-133z" />
    <glyph glyph-name="Ycircumflex" unicode="&#x176;" horiz-adv-x="806" 
d="M342 1655h135l178 -201h-137l-106 113h-4l-107 -113h-135zM481 0h-157v584l-306 796h168l123 -346q82 -242 103 -311h4q25 98 100 317l117 340h164l-316 -790v-590z" />
    <glyph glyph-name="ycircumflex" unicode="&#x177;" horiz-adv-x="708" 
d="M303 1397h107l161 -277h-118l-95 178h-4l-94 -178h-119zM25 991h165l134 -569q8 -35 20 -103t21 -102h4q31 172 41 203l118 571h156l-162 -637q-117 -467 -246 -639q-82 -104 -178 -149l-59 133q74 41 136 120t87 152t12 107z" />
    <glyph glyph-name="Ydieresis" unicode="&#x178;" horiz-adv-x="806" 
d="M583 1661q39 0 63 -27q24 -26 24 -68t-24 -69t-64 -27q-39 0 -64 27q-24 27 -24 68t26 69t63 27zM251 1661q39 0 63 -27q24 -26 24 -68t-24 -69t-64 -27q-39 0 -64 27q-24 27 -24 68t26 69t63 27zM481 0h-157v584l-306 796h168l123 -346q82 -242 103 -311h4
q25 98 100 317l117 340h164l-316 -790v-590z" />
    <glyph glyph-name="Zacute" unicode="&#x179;" horiz-adv-x="733" 
d="M481 1675h185l-254 -221h-125zM41 0v94l473 1147v4h-434v135h610v-106l-465 -1133v-6h463v-135h-647z" />
    <glyph glyph-name="zacute" unicode="&#x17a;" horiz-adv-x="641" 
d="M422 1397h164l-215 -277h-105zM33 0v96l313 615q12 23 40 73t38 72v4h-352v131h528v-104l-309 -604q-43 -74 -80 -148v-4h387v-131h-565z" />
    <glyph glyph-name="Zdotaccent" unicode="&#x17b;" horiz-adv-x="733" 
d="M394 1477q-38 1 -64 27t-27 64q0 38 27 64q28 26 66 27q38 0 64 -27q26 -26 26 -64t-27 -65q-27 -26 -65 -26zM41 0v94l473 1147v4h-434v135h610v-106l-465 -1133v-6h463v-135h-647z" />
    <glyph glyph-name="zdotaccent" unicode="&#x17c;" horiz-adv-x="641" 
d="M418 1249q0 -39 -24 -65t-63 -25q-38 0 -65 26q-26 27 -26 65t26 65q27 27 64 27q36 0 62 -28q26 -26 26 -65zM33 0v96l313 615q12 23 40 73t38 72v4h-352v131h528v-104l-309 -604q-43 -74 -80 -148v-4h387v-131h-565z" />
    <glyph glyph-name="Zcaron" unicode="&#x17d;" horiz-adv-x="733" 
d="M455 1454h-136l-178 201h138l106 -119h4l107 119h135zM41 0v94l473 1147v4h-434v135h610v-106l-465 -1133v-6h463v-135h-647z" />
    <glyph glyph-name="zcaron" unicode="&#x17e;" horiz-adv-x="641" 
d="M391 1120h-106l-162 277h119l94 -178h4l96 178h119zM33 0v96l313 615q12 23 40 73t38 72v4h-352v131h528v-104l-309 -604q-43 -74 -80 -148v-4h387v-131h-565z" />
    <glyph glyph-name="florin" unicode="&#x192;" horiz-adv-x="788" 
d="M160 709v122h166l14 113q49 403 322 404q68 0 112 -25l-24 -117q-41 14 -88 15q-135 0 -170 -260l-17 -130h187v-122h-197l-57 -471q-25 -199 -91 -300t-213 -102q-86 4 -129 35l31 115q44 -23 102 -23q119 0 156 309l51 437h-155z" />
    <glyph glyph-name="Ohorn" unicode="&#x1a0;" horiz-adv-x="913" 
d="M893 1377q0 -73 -38 -120t-110 -45q103 -180 103 -530t-110 -524t-288 -174t-281 183t-103 522t110 523q111 184 295 185q81 0 178 -56q50 -28 68 -28q53 0 53 56t-31 122l121 20q33 -61 33 -134zM461 123q174 0 213 366q10 93 10 201t-10 202t-35 179q-25 86 -71 136
t-120 50t-127 -90q-55 -90 -73 -210q-18 -121 -20 -311t54 -356t179 -167z" />
    <glyph glyph-name="ohorn" unicode="&#x1a1;" horiz-adv-x="784" 
d="M799 1004q0 -74 -40 -115t-114 -41q74 -128 74 -372t-98 -368q-97 -124 -235 -124t-228 130t-90 382t96 381t235 129q67 0 125 -30t92 -30q59 0 60 64q0 53 -31 110l119 19q35 -61 35 -135zM225 494q0 -388 178 -386q57 0 97 68q61 106 61 307q0 266 -84 360
q-35 38 -84 38q-126 0 -161 -259q-7 -60 -7 -128z" />
    <glyph glyph-name="Uhorn" unicode="&#x1af;" horiz-adv-x="970" 
d="M981 1436q0 -147 -145 -154l-21 -2v-801q0 -256 -94 -376t-258 -119q-342 0 -342 477v919h158v-925q0 -332 186 -332q193 0 192 332v925h127q42 0 58 14t16 58q0 45 -27 98l121 19q29 -66 29 -133z" />
    <glyph glyph-name="uhorn" unicode="&#x1b0;" horiz-adv-x="815" 
d="M106 365v626h158v-604q0 -131 29 -202t97 -69t105 44q36 43 44 83t8 95v653h119q41 -1 56 15q16 16 16 61t-29 98l120 21q33 -57 33 -128q0 -149 -145 -157h-12v-633l8 -268h-138l-12 102h-4q-27 -45 -83 -82t-128 -36q-242 0 -242 381z" />
    <glyph glyph-name="Aringacute" unicode="&#x1fa;" horiz-adv-x="890" 
d="M311 541h262l-71 350q-20 100 -56 315h-6q-31 -195 -57 -315zM596 414h-307l-90 -414h-154l315 1380h177l305 -1380h-156zM584 1915h200l-280 -168h-133zM453 1477q84 0 84 84q0 33 -22 57q-23 24 -63 24t-61 -24q-20 -26 -20 -60t21 -58q22 -23 61 -23zM627 1560
q0 -64 -45 -108t-128 -43q-83 0 -128 42t-45 105q0 62 47 108t129 46t126 -43t44 -107z" />
    <glyph glyph-name="aringacute" unicode="&#x1fb;" horiz-adv-x="745" 
d="M378 1128q44 0 70 31t25 76q0 45 -26 76q-27 31 -71 31t-69 -34q-25 -32 -25 -74t26 -74t70 -32zM376 1057q-83 0 -136 50q-54 50 -54 126t52 128t140 52q87 0 137 -51t50 -127t-53 -127t-136 -51zM479 311v203q-82 0 -148 -28q-124 -52 -124 -203q0 -90 37 -133
q37 -44 87 -44t89 39q59 59 59 166zM633 655v-430q0 -150 12 -225h-143l-10 104h-5q-72 -121 -198 -120q-102 0 -169 78t-67 204q0 176 120 268t302 93v30q0 109 -35 166t-124 57t-162 -51l-33 111q88 66 229 66q283 -1 283 -351zM479 1651h166l-237 -195h-109z" />
    <glyph glyph-name="AEacute" unicode="&#x1fc;" horiz-adv-x="1138" 
d="M786 1675h187l-254 -221h-125zM332 582h229l-18 419q-2 29 -6 125t-7 144h-10q-41 -150 -80 -293zM1055 1380v-137h-381l26 -463h351v-133h-338l28 -510h367l-2 -137h-506l-27 455h-274l-127 -455h-156l416 1380h623z" />
    <glyph glyph-name="aeacute" unicode="&#x1fd;" horiz-adv-x="1148" 
d="M678 1397h162l-215 -277h-105zM790 885q-68 0 -112 -83q-43 -83 -47 -196h307q4 133 -38 206t-110 73zM479 315v195q-86 0 -152 -28q-128 -53 -126 -201q0 -86 38 -129t90 -43q52 -1 91 39q59 60 59 167zM551 174q-70 -190 -262 -190q-98 0 -167 78t-69 208
q0 170 121 259t303 89v56q0 92 -41 149t-126 57t-158 -51l-35 109q94 68 227 68q82 0 144 -45t83 -134h4q33 84 98 131t144 48q135 0 204 -126t69 -309l-3 -77h-460q0 -385 233 -385q92 0 168 43l29 -113q-88 -55 -205 -55t-193 50t-104 140h-4z" />
    <glyph glyph-name="Oslashacute" unicode="&#x1fe;" horiz-adv-x="913" 
d="M563 1675h187l-254 -221h-125zM452 123q92 0 145 87q54 87 74 209q19 122 19 304t-37 315h-4l-344 -813q55 -102 147 -102zM468 1257q-240 0 -245 -565q0 -211 37 -340h4l336 815q-60 90 -132 90zM848 690q0 -354 -110 -530t-281 -176q-127 0 -211 92l-70 -152l-86 47
l86 195q-110 180 -110 521t108 525q109 184 285 185q121 0 207 -84l61 143l94 -41l-82 -186q109 -184 109 -539z" />
    <glyph glyph-name="oslashacute" unicode="&#x1ff;" horiz-adv-x="784" 
d="M471 1397h160l-215 -277h-105zM387 109q110 0 149 132q31 109 31 243t-24 227h-4l-246 -541q35 -61 94 -61zM393 881q-53 0 -90 -39q-84 -89 -84 -346q0 -129 27 -226l4 -4l250 549q-29 66 -107 66zM397 1006q86 0 164 -62l53 109l84 -45l-67 -138q88 -132 88 -384
t-97 -377t-227 -125q-92 0 -168 57l-51 -109l-80 52l64 131q-92 131 -92 382t96 380t233 129z" />
    <glyph glyph-name="Scommaaccent" unicode="&#x218;" horiz-adv-x="739" 
d="M340 -236q0 72 -70 125l127 25q72 -51 72 -142q-1 -90 -65 -142t-162 -68l-33 76q53 14 92 47t39 79zM286 127q112 0 173 63q61 62 61 160t-45 163t-137 134q-260 178 -260 383q0 158 101 260t245 102t211 -51l-37 -135q-68 47 -164 47t-148 -59t-52 -145q0 -87 44 -141
t158 -136q240 -168 240 -397q0 -175 -110 -281t-277 -106q-69 0 -135 18t-97 41l35 135q82 -55 194 -55z" />
    <glyph glyph-name="scommaaccent" unicode="&#x219;" horiz-adv-x="591" 
d="M283 -236q0 72 -70 125l127 25q72 -51 72 -142q0 -90 -65 -142t-163 -68l-32 76q53 14 92 47t39 79zM237 113q73 0 113 39t39 101q0 62 -27 105t-100 93q-199 127 -199 280q0 121 78 198q77 77 181 77t190 -52l-41 -118q-66 45 -129 45t-97 -37t-34 -88t25 -87t98 -85
q205 -131 205 -301q0 -143 -85 -219t-211 -76t-198 57l39 119q80 -51 153 -51z" />
    <glyph glyph-name="uni021A" unicode="&#x21a;" horiz-adv-x="724" 
d="M348 -236q0 72 -69 125l127 25q72 -51 72 -142t-65 -143q-65 -51 -163 -67l-33 76q53 14 92 47t39 79zM285 0v1239h-252v141h661v-141h-252v-1239h-157z" />
    <glyph glyph-name="uni021B" unicode="&#x21b;" horiz-adv-x="522" 
d="M272 -236q0 72 -69 125l127 25q72 -51 72 -142t-65 -143q-65 -51 -163 -67l-33 76q53 14 92 47t39 79zM303 991h191v-119h-191v-589q0 -164 103 -164q39 0 63 6l8 -121q-45 -16 -133 -16t-143 62t-56 247v575h-120v119h120v168l158 64v-232z" />
    <glyph glyph-name="uni021C" unicode="&#x21c;" horiz-adv-x="696" 
d="M475 367q0 115 -58 189t-157 73q-61 0 -129 -23l-22 119q115 25 205 126t89 232q0 80 -45 131q-44 52 -118 52t-160 -43l-31 114q94 59 223 59t207 -85q78 -86 77 -205t-55 -214t-134 -147v-6q117 -23 193 -119t75 -253q0 -158 -90 -293t-217 -207t-262 -84l-19 127
q178 32 303 152t125 305z" />
    <glyph glyph-name="uni021D" unicode="&#x21d;" horiz-adv-x="636" 
d="M440 92q0 90 -55 152t-160 63q-51 0 -116 -16l-21 119q123 28 203 98t80 168t-44 148q-45 50 -109 50t-157 -43l-32 113q94 62 218 62q125 0 199 -82t74 -201q0 -207 -178 -305v-6q110 -20 182 -102t72 -217q0 -136 -86 -254q-86 -119 -210 -179t-259 -70l-12 129
q159 15 285 113t126 260z" />
    <glyph glyph-name="uni0232" unicode="&#x232;" horiz-adv-x="806" 
d="M184 1614h437v-109h-437v109zM481 0h-157v584l-306 796h168l123 -346q82 -242 103 -311h4q25 98 100 317l117 340h164l-316 -790v-590z" />
    <glyph glyph-name="uni0233" unicode="&#x233;" horiz-adv-x="708" 
d="M154 1292h403v-104h-403v104zM25 991h165l134 -569q8 -35 20 -103t21 -102h4q31 172 41 203l118 571h156l-162 -637q-117 -467 -246 -639q-82 -104 -178 -149l-59 133q74 41 136 120t87 152t12 107z" />
    <glyph glyph-name="circumflex" unicode="&#x2c6;" 
d="M254 1397h106l162 -277h-119l-94 178h-4l-94 -178h-119z" />
    <glyph glyph-name="caron" unicode="&#x2c7;" 
d="M362 1120h-108l-162 277h119l94 -178h4l97 178h118z" />
    <glyph glyph-name="uni02C9" unicode="&#x2c9;" 
d="M106 1292h404v-104h-404v104z" />
    <glyph glyph-name="breve" unicode="&#x2d8;" 
d="M308 1245q56 0 91 35t37 90h88q4 -100 -56 -166t-162 -66t-162 66q-58 66 -54 166h88q4 -55 39 -90t91 -35z" />
    <glyph glyph-name="dotaccent" unicode="&#x2d9;" 
d="M310 1159q-38 0 -64 26q-26 27 -27 65q0 38 27 65q28 27 64 27t62 -28q26 -26 26 -65t-26 -65q-24 -26 -62 -25z" />
    <glyph glyph-name="ring" unicode="&#x2da;" 
d="M239 1163q45 0 71 31t26 76t-27 76q-27 30 -71 30t-70 -33q-25 -33 -25 -75t26 -73q26 -32 70 -32zM237 1092q-83 0 -137 50q-53 50 -53 126t52 128q51 52 139 52t139 -51t51 -127t-54 -127t-137 -51z" />
    <glyph glyph-name="ogonek" unicode="&#x2db;" 
d="M272 -199q0 -45 26 -69t66 -25q40 0 80 19l23 -88q-59 -46 -143 -46t-130 46t-47 120q1 119 105 252h110q-90 -135 -90 -209z" />
    <glyph glyph-name="tilde" unicode="&#x2dc;" 
d="M202 1341q52 0 109 -36q66 -35 82 -35q49 0 51 73h84q0 -182 -129 -182q-39 0 -100 35t-78 35q-43 0 -49 -82h-88q-2 84 32 138t86 54z" />
    <glyph glyph-name="hungarumlaut" unicode="&#x2dd;" 
d="M483 1397h144l-213 -277h-90zM229 1397h144l-213 -277h-90z" />
    <glyph glyph-name="uni037E" unicode="&#x37e;" horiz-adv-x="409" 
d="M230 674q-48 0 -78 34t-31 87q0 53 31 89q30 36 78 36t78 -35t30 -89t-30 -88t-78 -34zM168 -244l-105 -14q76 260 93 477l174 10q-25 -115 -75 -259t-87 -214z" />
    <glyph glyph-name="tonos" unicode="&#x384;" horiz-adv-x="624" 
d="M221 1399h139l-114 -277h-92z" />
    <glyph glyph-name="dieresistonos" unicode="&#x385;" horiz-adv-x="716" 
d="M560 1163q-34 0 -58 24q-24 25 -25 61q0 36 25 60q26 24 60 24t58 -24t24 -61t-26 -61q-24 -24 -58 -23zM145 1163q-35 0 -59 24q-24 25 -25 61q0 36 26 60t61 24q36 0 58 -24t22 -61t-24 -61t-59 -23zM311 1417h135l-73 -301h-86z" />
    <glyph glyph-name="Alphatonos" unicode="&#x386;" horiz-adv-x="909" 
d="M90 1380h135l-59 -303h-84zM328 541h264l-74 350q-20 100 -55 315h-6q-29 -180 -56 -315zM612 414h-305l-92 -414h-152l316 1380h174l305 -1380h-153z" />
    <glyph glyph-name="anoteleia" unicode="&#x387;" horiz-adv-x="409" 
d="M206 526q-50 0 -82 36t-32 91t33 92t82 37t80 -36t31 -93t-32 -92q-30 -35 -80 -35z" />
    <glyph glyph-name="Epsilontonos" unicode="&#x388;" horiz-adv-x="831" 
d="M8 1380h135l-59 -303h-84zM733 788v-133h-346v-518h393v-137h-551v1380h527v-137h-369v-455h346z" />
    <glyph glyph-name="Etatonos" unicode="&#x389;" horiz-adv-x="1054" 
d="M8 1380h135l-59 -303h-82zM231 1380h156v-592h387v592h158v-1380h-158v645h-387v-645h-156v1380z" />
    <glyph glyph-name="Iotatonos" unicode="&#x38a;" horiz-adv-x="509" 
d="M8 1380h135l-59 -303h-84zM229 1380h158v-1380h-158v1380z" />
    <glyph glyph-name="Omicrontonos" unicode="&#x38c;" horiz-adv-x="987" 
d="M8 1380h135l-59 -303h-84zM535 123q174 0 213 366q10 93 10 201q0 226 -45 381q-54 186 -181 186q-84 0 -138 -90t-72 -210q-18 -121 -20 -311t54 -356t179 -167zM524 -16q-178 0 -281 183t-103 522t110 523q111 184 291 184t280 -182q101 -184 101 -534t-110 -522
q-110 -174 -288 -174z" />
    <glyph glyph-name="Upsilontonos" unicode="&#x38e;" horiz-adv-x="1052" 
d="M8 1380h135l-59 -303h-84zM690 0h-158v367q0 92 -12 239q-71 545 -325 654l32 133q23 -2 73 -26q149 -72 240 -294q62 -154 76 -348h9q35 340 221 547q80 84 170 121l33 -138q-111 -57 -205 -227t-133 -420q-20 -127 -21 -241v-367z" />
    <glyph glyph-name="Omegatonos" unicode="&#x38f;" horiz-adv-x="1032" 
d="M8 1380h135l-59 -303h-84zM762 135h203v-135h-363v106q86 94 135 268t48 365q-1 190 -51 344q-58 174 -196 174q-74 1 -129 -83q-96 -143 -98 -433q1 -176 53 -362t130 -273v-106h-363v135h203v6q-82 115 -134 278t-53 345q0 293 116 463t297 170q180 0 284 -169
t104 -454q0 -190 -53 -358t-133 -275v-6z" />
    <glyph glyph-name="iotadieresistonos" unicode="&#x390;" horiz-adv-x="385" 
d="M417 1317q33 0 57 -23q24 -24 24 -60t-24 -60t-59 -23q-34 0 -59 24q-24 23 -24 59t26 60t59 23zM6 1151q-36 0 -60 24q-24 25 -24 61t26 58t60 23q34 0 57 -24q23 -23 23 -59t-24 -60t-58 -23zM172 1399h129l-72 -297h-82zM268 991v-784q0 -57 16 -79t60 -22l-12 -116
q-31 -6 -62 -6q-72 0 -116 45t-43 168v794h157z" />
    <glyph glyph-name="Alpha" unicode="&#x391;" horiz-adv-x="890" 
d="M311 541h262l-71 350q-20 100 -56 315h-6q-31 -195 -57 -315zM596 414h-307l-90 -414h-154l315 1380h175l307 -1380h-156z" />
    <glyph glyph-name="Beta" unicode="&#x392;" horiz-adv-x="851" 
d="M281 674v-549q37 -8 79 -8q123 -1 196 71t73 205t-80 206t-199 75h-69zM281 795h71q98 1 169 69t71 174q0 225 -227 226q-53 -1 -84 -11v-458zM793 376q0 -150 -99 -259q-111 -125 -364 -125q-129 0 -205 14v1354q106 27 229 26q203 0 299 -90t97 -241q0 -105 -56 -185
t-157 -120v-7q121 -33 189 -125t67 -242z" />
    <glyph glyph-name="Gamma" unicode="&#x393;" horiz-adv-x="677" 
d="M123 1380h526v-133h-368v-1247h-158v1380z" />
    <glyph glyph-name="uni0394" unicode="&#x394;" horiz-adv-x="892" 
d="M207 139h479l-170 717q-39 174 -67 350h-7q-25 -156 -67 -346zM49 0v90l313 1290h177l307 -1288v-92h-797z" />
    <glyph glyph-name="Epsilon" unicode="&#x395;" horiz-adv-x="724" 
d="M627 788v-133h-346v-518h393v-137h-551v1380h526v-137h-368v-455h346z" />
    <glyph glyph-name="Zeta" unicode="&#x396;" horiz-adv-x="733" 
d="M41 0v94l473 1147v4h-434v135h610v-106l-465 -1133v-6h463v-135h-647z" />
    <glyph glyph-name="Eta" unicode="&#x397;" horiz-adv-x="948" 
d="M123 1380h158v-592h387v592h157v-1380h-157v645h-387v-645h-158v1380z" />
    <glyph glyph-name="Theta" unicode="&#x398;" horiz-adv-x="919" 
d="M307 782h305v-143h-305v143zM463 121q128 0 182 186q47 162 47 383t-47 383q-25 86 -72 136q-47 51 -113 51t-112 -50q-117 -126 -121 -518q0 -223 48 -386q26 -85 74 -135t114 -50zM854 680q0 -350 -110 -522q-110 -174 -290 -174q-179 0 -284 183q-104 183 -104 522
t110 523q111 184 293 184q181 0 283 -182q102 -184 102 -534z" />
    <glyph glyph-name="Iota" unicode="&#x399;" horiz-adv-x="407" 
d="M123 1380h158v-1380h-158v1380z" />
    <glyph glyph-name="Kappa" unicode="&#x39a;" horiz-adv-x="827" 
d="M125 0v1380h156v-655h4q25 43 86 166l258 489h174l-338 -589l346 -791h-170l-283 666l-77 -134v-532h-156z" />
    <glyph glyph-name="Lambda" unicode="&#x39b;" horiz-adv-x="888" 
d="M844 0h-162l-178 829q-31 143 -62 359h-8q-16 -127 -57 -361l-174 -827h-160l317 1380h166z" />
    <glyph glyph-name="Mu" unicode="&#x39c;" horiz-adv-x="1226" 
d="M987 0l-29 594q-20 373 -14 541h-8q-51 -256 -111 -480l-168 -647h-102l-160 621q-72 272 -114 506h-7q2 -121 -16 -551l-27 -584h-141l82 1380h172l160 -630q82 -315 110 -476h7q29 170 102 476l156 630h176l80 -1380h-148z" />
    <glyph glyph-name="Nu" unicode="&#x39d;" horiz-adv-x="952" 
d="M266 0h-141v1380h147l254 -647q137 -358 176 -481h5q-18 326 -19 635v493h141v-1380h-147l-262 664q-104 254 -166 469h-4q16 -246 16 -656v-477z" />
    <glyph glyph-name="Xi" unicode="&#x39e;" horiz-adv-x="741" 
d="M59 137h623v-137h-623v137zM109 784h520v-135h-520v135zM72 1380h598v-137h-598v137z" />
    <glyph glyph-name="Omicron" unicode="&#x39f;" horiz-adv-x="913" 
d="M461 123q174 0 213 366q10 93 10 201t-10 202t-35 179q-25 86 -71 136t-120 50t-127 -90q-55 -90 -73 -210q-18 -121 -20 -311t54 -356t179 -167zM848 680q0 -350 -110 -522q-110 -174 -287 -174q-178 0 -282 183q-103 183 -103 522t110 523q111 184 291 184
q181 0 281 -182q100 -184 100 -534z" />
    <glyph glyph-name="Pi" unicode="&#x3a0;" horiz-adv-x="923" 
d="M801 1380v-1380h-158v1237h-362v-1237h-158v1380h678z" />
    <glyph glyph-name="Rho" unicode="&#x3a1;" horiz-adv-x="817" 
d="M344 692q118 0 188 77t70 208q0 282 -233 280q-53 0 -88 -10v-551q37 -4 63 -4zM125 0v1360q102 27 227 26q205 0 306 -100q102 -100 102 -280t-84 -289q-53 -74 -141 -114t-160 -40t-94 2v-565h-156z" />
    <glyph glyph-name="Sigma" unicode="&#x3a3;" horiz-adv-x="833" 
d="M217 137h557v-137h-741v104l354 584l-334 588v104h674v-135h-481v-8l303 -541l-332 -551v-8z" />
    <glyph glyph-name="Tau" unicode="&#x3a4;" horiz-adv-x="724" 
d="M285 0v1239h-252v141h661v-141h-252v-1239h-157z" />
    <glyph glyph-name="Upsilon" unicode="&#x3a5;" horiz-adv-x="870" 
d="M508 367v-367h-158v367q0 94 -12 237q-72 547 -326 656l33 133q23 -2 73 -26q150 -72 239 -294q62 -154 77 -348h8q35 340 222 547q80 84 170 121l32 -138q-110 -57 -204 -227t-134 -420q-20 -127 -20 -241z" />
    <glyph glyph-name="Phi" unicode="&#x3a6;" horiz-adv-x="1032" 
d="M811 697q-1 221 -69 351t-154 142v-995q102 18 163 150q60 132 60 352zM221 696q1 -216 65 -344t158 -157v995q-92 -14 -158 -146t-65 -348zM588 -29h-146v105q-156 24 -268 174t-113 436q0 286 114 444q114 160 269 179v98h146v-98q164 -17 272 -181t109 -444t-111 -434
q-112 -156 -272 -174v-105z" />
    <glyph glyph-name="Chi" unicode="&#x3a7;" horiz-adv-x="802" 
d="M774 0h-164l-125 332q-51 137 -86 241h-6l-82 -245l-121 -328h-159l282 705l-274 675h164l125 -319q43 -113 80 -219h4q12 34 37 110t38 115l113 313h160l-271 -671z" />
    <glyph glyph-name="Psi" unicode="&#x3a8;" horiz-adv-x="1054" 
d="M967 1380v-383q0 -506 -367 -559v-438h-145v438q-184 27 -276 154q-91 127 -91 371v417h148v-409q0 -195 53 -293t168 -115v817h141v-817q221 27 221 441v376h148z" />
    <glyph glyph-name="uni03A9" unicode="&#x3a9;" horiz-adv-x="966" 
d="M696 135h203v-135h-362v106q86 94 135 268t48 365q-1 190 -51 344q-57 174 -196 174q-74 1 -130 -83q-97 -145 -97 -433q0 -176 52 -362t130 -273v-106h-360v135h200v6q-82 115 -134 278t-52 345q0 293 116 463t297 170t284 -169t104 -454q1 -190 -53 -358t-134 -275v-6z
" />
    <glyph glyph-name="Iotadieresis" unicode="&#x3aa;" horiz-adv-x="407" 
d="M123 1380h158v-1380h-158v1380zM449 1544q0 -38 -25 -64t-63 -26q-37 0 -63 26t-26 64t27 65q27 25 63 25t62 -26q25 -26 25 -64zM46 1454q-38 0 -64 26t-25 64q0 38 27 65q28 25 64 25t61 -26t25 -64t-26 -64q-24 -26 -62 -26z" />
    <glyph glyph-name="Upsilondieresis" unicode="&#x3ab;" horiz-adv-x="870" 
d="M508 367v-367h-158v367q0 94 -12 237q-72 547 -326 656l33 133q23 -2 73 -26q150 -72 239 -294q62 -154 77 -348h8q35 340 222 547q80 84 170 121l32 -138q-110 -57 -204 -227t-134 -420q-20 -127 -20 -241zM605 1427q-37 0 -63 26t-26 65q0 38 27 64t63 26t62 -26
q24 -26 24 -64t-24 -65q-24 -26 -63 -26zM289 1608q37 0 61 -26t25 -64q-1 -38 -25 -65q-24 -26 -62 -26t-64 26t-25 65q1 38 27 64t63 26z" />
    <glyph glyph-name="alphatonos" unicode="&#x3ac;" horiz-adv-x="813" 
d="M225 477v-4q0 -145 44 -251t116 -107q51 0 93 61q67 97 67 324q0 51 -4 147t-45 162t-95 65q-80 0 -128 -116t-48 -281zM705 -16q-121 0 -132 161h-8q-25 -63 -79 -112t-132 -49q-129 0 -208 131q-78 131 -78 367t96 380t223 144t180 -146h8q7 53 19 131h121
q-7 -49 -15 -285t-6 -493q0 -109 66 -109l-17 -116q-14 -4 -38 -4zM424 1380h139l-112 -276h-93z" />
    <glyph glyph-name="epsilontonos" unicode="&#x3ad;" horiz-adv-x="663" 
d="M412 1006q133 0 190 -48l-31 -110q-61 33 -141 33t-122 -42t-42 -110q0 -67 65 -103t158 -36h31v-117h-41q-111 -2 -181 -47t-71 -133t55 -135t158 -47t164 39l23 -117q-81 -49 -227 -49t-240 74t-94 218q0 100 62 170t146 86v9q-160 47 -161 211q0 102 83 178t216 76z
M383 1380h139l-114 -276h-93z" />
    <glyph glyph-name="etatonos" unicode="&#x3ae;" horiz-adv-x="829" 
d="M719 666v-744q0 -221 14 -315h-143q-29 76 -29 287v743q0 236 -137 235q-51 0 -92 -42q-64 -66 -64 -205v-625h-157v735q0 170 -27 256h137q21 -47 27 -119l4 -2q74 135 227 136q109 0 175 -84t65 -256zM424 1380h139l-112 -276h-93z" />
    <glyph glyph-name="iotatonos" unicode="&#x3af;" horiz-adv-x="385" 
d="M268 991v-784q0 -57 16 -79t60 -22l-14 -116q-27 -6 -60 -6q-72 0 -116 45t-43 168v794h157zM199 1384h145l-113 -276h-98z" />
    <glyph glyph-name="upsilondieresistonos" unicode="&#x3b0;" horiz-adv-x="772" 
d="M583 1147q-34 -1 -59 23q-24 24 -24 60t26 60t59 23q33 0 57 -23q24 -24 24 -60t-24 -60t-59 -23zM86 1231q0 37 26 59t60 23q34 0 58 -23q22 -24 22 -60t-24 -60t-58 -23q-36 -1 -60 23t-24 61zM338 1397h131l-74 -297h-84zM698 596q0 -612 -329 -612q-125 0 -197 80
t-72 223v375q0 268 -16 329h152q20 -37 20 -200v-486q0 -92 36 -140t89 -48q164 0 164 444q-1 289 -58 430h148q63 -152 63 -395z" />
    <glyph glyph-name="alpha" unicode="&#x3b1;" horiz-adv-x="813" 
d="M225 477v-4q0 -145 44 -251t116 -107q51 0 93 61q67 97 67 324q0 51 -4 147t-45 162t-95 65q-80 0 -128 -116t-48 -281zM705 -16q-121 0 -132 161h-8q-25 -63 -79 -112t-132 -49q-129 0 -208 131q-78 131 -78 367t96 380t223 144t180 -146h8q7 53 19 131h121
q-7 -49 -15 -285t-6 -493q0 -109 66 -109l-17 -116q-14 -4 -38 -4z" />
    <glyph glyph-name="beta" unicode="&#x3b2;" horiz-adv-x="827" 
d="M262 985v-770q56 -100 150 -100t142 80q48 81 48 203t-62 208t-182 86v123q8 0 29 4q152 45 152 262q0 80 -33 151t-96 71q-148 -1 -148 -318zM262 57v-135q0 -213 19 -315h-144q-31 82 -31 284v1061q0 274 107 394q76 88 206 88t201 -102t70 -242q0 -225 -164 -316v-8
q96 -31 166 -122t69 -267t-91 -285t-212 -109t-192 74h-4z" />
    <glyph glyph-name="gamma" unicode="&#x3b3;" horiz-adv-x="694" 
d="M410 -393h-154q8 236 -1 379t-48 299q-98 432 -217 706h166q133 -348 194 -762h6q143 414 144 680v82h143q4 -29 4 -67q0 -338 -233 -846q-10 -31 -11 -47q7 -129 7 -424z" />
    <glyph glyph-name="delta" unicode="&#x3b4;" horiz-adv-x="798" 
d="M406 109q74 0 120 94q45 94 45 248q1 207 -112 350l-49 65q-184 -139 -185 -413q-1 -162 53 -253t128 -91zM457 1309q-49 0 -76 -24q-27 -23 -27 -67t92 -161l121 -154q162 -209 162 -433t-94 -355q-93 -131 -237 -131t-238 127t-94 321t77 323q78 128 189 201v9l-25 32
q-111 139 -111 225t66 148q66 64 200 64t228 -86l-45 -105q-98 66 -188 66z" />
    <glyph glyph-name="epsilon" unicode="&#x3b5;" horiz-adv-x="663" 
d="M412 1006q133 0 190 -48l-31 -110q-61 33 -141 33t-122 -42t-42 -110q0 -67 65 -103t158 -36h31v-117h-41q-111 -2 -181 -47t-71 -133t55 -135t158 -47t164 41l23 -119q-81 -49 -227 -49t-240 74t-94 218q0 100 62 172t146 87v8q-72 20 -116 75q-44 56 -44 146
q-1 90 82 166t216 76z" />
    <glyph glyph-name="zeta" unicode="&#x3b6;" horiz-adv-x="643" 
d="M68 444q0 218 108 448t277 384v8h-95q-135 0 -184 16l19 113q80 -6 204 -6h226l28 -111q-162 -110 -293 -350t-131 -463q0 -151 48 -227q49 -76 133 -114t206 -58q16 -4 17 -25q0 -82 -37 -175t-82 -148l-111 31q63 109 74 208q-94 23 -176 62q-231 109 -231 407z" />
    <glyph glyph-name="eta" unicode="&#x3b7;" horiz-adv-x="829" 
d="M719 666v-744q0 -221 14 -315h-143q-29 76 -29 287v743q0 236 -137 235q-51 0 -92 -42q-64 -66 -64 -205v-625h-157v735q0 170 -27 256h137q21 -47 27 -119l4 -2q74 135 227 136q109 0 175 -84t65 -256z" />
    <glyph glyph-name="theta" unicode="&#x3b8;" horiz-adv-x="782" 
d="M561 664h-342q4 -557 174 -558q168 1 168 558zM219 793h342q0 237 -45 377t-127 141q-74 -1 -122 -145t-48 -373zM68 723q0 369 96 540t235 171t227 -169t89 -542q0 -496 -143 -655q-75 -84 -187 -84q-317 0 -317 739z" />
    <glyph glyph-name="iota" unicode="&#x3b9;" horiz-adv-x="385" 
d="M268 991v-784q0 -57 16 -79t60 -22l-14 -116q-27 -6 -60 -6q-72 0 -116 45t-43 168v794h157z" />
    <glyph glyph-name="kappa" unicode="&#x3ba;" horiz-adv-x="757" 
d="M729 991v-6q-127 -180 -317 -448v-5q60 -22 122 -126q32 -55 45 -84t46 -97l110 -225h-174l-104 227q-100 225 -172 226h-17v-453h-155v756q0 168 -21 235h150q27 -37 26 -170v-274h6l285 444h170z" />
    <glyph glyph-name="lambda" unicode="&#x3bb;" horiz-adv-x="690" 
d="M268 970q0 19 -8 56q-70 266 -190 266q-10 0 -23 -2l16 129q25 4 48 4q121 0 187 -105t120 -317l254 -1001h-158l-121 530q-6 31 -20 105t-27 129h-6q-20 -127 -45 -229l-125 -535h-156l248 926q6 25 6 44z" />
    <glyph glyph-name="uni03BC" unicode="&#x3bc;" horiz-adv-x="817" 
d="M397 -6q-94 0 -137 74v-146q0 -213 19 -315h-144q-27 80 -26 299v1085h157v-653q0 -221 131 -221q61 0 99 42q37 42 45 82t8 97v653h158v-778q0 -57 13 -85t50 -26l-16 -112q-20 -6 -54 -6q-100 -1 -125 118h-4q-20 -40 -68 -74t-106 -34z" />
    <glyph glyph-name="nu" unicode="&#x3bd;" horiz-adv-x="681" 
d="M489 991h144q4 -33 4 -63q0 -283 -254 -928h-141l-230 991h160l113 -557q8 -41 45 -250h6q154 483 153 740v67z" />
    <glyph glyph-name="xi" unicode="&#x3be;" horiz-adv-x="671" 
d="M569 848v-123h-34q-135 -4 -221 -84t-87 -211q0 -215 219 -295q92 -33 195 -53q20 -2 21 -25q0 -78 -37 -173t-82 -150l-113 33q63 109 74 208q-203 49 -320 147t-116 288q0 139 71 238q72 99 193 147v10q-86 39 -136 117t-51 172q-1 150 93 244t245 96q100 0 164 -39
l-29 -117q-57 29 -140 29t-129 -67q-46 -68 -46 -160t72 -162t194 -70z" />
    <glyph glyph-name="omicron" unicode="&#x3bf;" horiz-adv-x="784" 
d="M561 483q0 266 -84 360q-35 38 -84 38q-126 0 -161 -259q-7 -60 -7 -165t32 -215q37 -133 146 -133q57 0 97 67q61 106 61 307zM400 1006q140 0 230 -132t89 -386q-1 -256 -99 -380t-235 -124t-227 130t-90 382t96 381t236 129z" />
    <glyph glyph-name="pi" unicode="&#x3c0;" horiz-adv-x="819" 
d="M682 860v-618q0 -166 20 -242h-147q-29 53 -29 238v622h-202q-2 -215 -30 -468t-73 -392h-145q44 150 70 396t26 464q-70 0 -125 -10l-22 98q47 43 237 43h531l-15 -131h-96z" />
    <glyph glyph-name="rho" unicode="&#x3c1;" horiz-adv-x="808" 
d="M258 539v-195q0 -47 8 -80q20 -84 60 -117t77 -32q94 0 139 110q44 111 44 274t-42 266t-119 103t-122 -80t-45 -249zM258 80v-158q0 -197 14 -315h-145q-25 74 -25 282v611q0 285 109 403q82 102 207 103q156 0 240 -134t85 -382q0 -248 -90 -377t-213 -129t-178 96h-4z
" />
    <glyph glyph-name="uni03C2" unicode="&#x3c2;" horiz-adv-x="626" 
d="M481 870q-123 0 -189 -114t-65 -264q0 -262 183 -353q45 -20 172 -59q14 -6 14 -19q0 -84 -36 -178t-81 -149l-110 33q66 106 75 206q-86 27 -143 56q-106 53 -170 168q-63 115 -63 280q0 221 114 375q115 154 299 154q78 0 119 -27l-29 -123q-49 14 -90 14z" />
    <glyph glyph-name="sigma" unicode="&#x3c3;" horiz-adv-x="784" 
d="M389 881q-164 0 -164 -423q1 -104 25 -191q45 -158 142 -158t128 130t31 266t-38 256t-124 120zM709 499q1 -265 -97 -390t-232 -125t-223 130t-89 382t96 381t237 129h359l-8 -123q-80 0 -166 10l-2 -6q125 -123 125 -388z" />
    <glyph glyph-name="tau" unicode="&#x3c4;" horiz-adv-x="622" 
d="M418 -16q-190 0 -191 280v596h-86q-72 0 -116 -20l-25 102q39 49 180 49h434l-18 -131h-211v-602q0 -150 80 -149q23 0 33 2l-6 -117q-31 -10 -74 -10z" />
    <glyph glyph-name="upsilon" unicode="&#x3c5;" horiz-adv-x="772" 
d="M698 596q0 -612 -329 -612q-125 0 -197 80t-72 223v375q0 268 -16 329h152q20 -37 20 -200v-486q0 -92 36 -140t89 -48q164 0 164 444q-1 289 -58 430h148q63 -152 63 -395z" />
    <glyph glyph-name="phi" unicode="&#x3c6;" horiz-adv-x="1005" 
d="M578 760v-647q102 16 153 129q51 114 51 270t-49 258t-96 102q-59 1 -59 -112zM225 504q-1 -152 53 -258t152 -131v620q0 135 56 197t141 63q123 0 217 -130q94 -129 94 -357t-106 -361t-254 -151v-389h-148v389q-123 16 -234 121q-128 123 -128 406q0 155 70 281
t157 193l82 -75q-152 -162 -152 -418z" />
    <glyph glyph-name="chi" unicode="&#x3c7;" horiz-adv-x="694" 
d="M23 991h159l170 -526h8q33 125 58 203l106 323h152l-248 -669l244 -701l-146 -37l-194 594h-4q-23 -98 -68 -250l-110 -344l-140 35l250 709z" />
    <glyph glyph-name="psi" unicode="&#x3c8;" horiz-adv-x="997" 
d="M575 100q201 20 201 530q0 240 -45 361h137q55 -135 56 -368q0 -606 -346 -639v-377h-148v377q-130 15 -223 98q-113 100 -113 367v305q0 182 -10 237h139q16 -45 17 -200v-310q0 -197 49 -281t143 -100v1098h143v-1098z" />
    <glyph glyph-name="omega" unicode="&#x3c9;" horiz-adv-x="1067" 
d="M709 117q57 0 95 97t38 280q0 305 -137 493v4h143q59 -59 105 -196t46 -301q-1 -240 -79 -375t-202 -135t-181 143h-7q-22 -63 -72 -103t-120 -40q-115 0 -193 124t-77 367q0 175 47 315t104 201h141v-4q-137 -184 -137 -502q0 -182 38 -275t95 -93q51 0 78 56t27 120
l-2 389h147l-2 -391q0 -59 28 -117t77 -57z" />
    <glyph glyph-name="iotadieresis" unicode="&#x3ca;" horiz-adv-x="385" 
d="M268 991v-784q0 -57 16 -79t60 -22l-14 -116q-27 -6 -60 -6q-72 0 -116 45t-43 168v794h157zM347 1143q-39 1 -65 27t-26 65t27 65t65 27t63 -25t25 -67t-25 -67q-26 -25 -64 -25zM121 1235q1 -41 -25 -67t-64 -25t-65 27t-26 65t27 65t64 27t64 -25t25 -67z" />
    <glyph glyph-name="upsilondieresis" unicode="&#x3cb;" horiz-adv-x="772" 
d="M698 596q0 -612 -329 -612q-125 0 -197 80t-72 223v375q0 268 -16 329h152q20 -37 20 -200v-486q0 -92 36 -140t89 -48q164 0 164 444q-1 293 -60 430h150q63 -152 63 -395zM527 1143q-39 1 -65 27t-26 65t27 65t65 27t63 -25t25 -67t-25 -67q-26 -25 -64 -25zM301 1235
q1 -41 -25 -67t-64 -25t-65 27t-26 65t27 65t64 27t64 -25t25 -67z" />
    <glyph glyph-name="omicrontonos" unicode="&#x3cc;" horiz-adv-x="784" 
d="M561 483q0 266 -84 360q-35 38 -84 38q-126 0 -161 -259q-7 -60 -7 -165t32 -215q37 -133 146 -133q57 0 97 67q61 106 61 307zM400 1006q140 0 230 -132t89 -386q-1 -256 -99 -380t-235 -124t-227 130t-90 382t96 381t236 129zM399 1380h140l-115 -276h-92z" />
    <glyph glyph-name="upsilontonos" unicode="&#x3cd;" horiz-adv-x="772" 
d="M698 596q0 -612 -329 -612q-125 0 -197 80t-72 223v375q0 268 -16 329h152q20 -37 20 -200v-486q0 -92 36 -140t89 -48q164 0 164 444q-1 289 -58 430h148q63 -152 63 -395zM385 1384h145l-114 -276h-99z" />
    <glyph glyph-name="omegatonos" unicode="&#x3ce;" horiz-adv-x="1067" 
d="M709 117q57 0 95 97t38 280q0 305 -137 493v4h143q59 -59 105 -196t46 -301q-1 -240 -79 -375t-202 -135t-181 143h-7q-22 -63 -72 -103t-120 -40q-115 0 -193 124t-77 367q0 175 47 315t104 201h141v-4q-137 -184 -137 -502q0 -182 38 -275t95 -93q51 0 78 56t27 120
l-2 389h147l-2 -391q0 -59 28 -117t77 -57zM551 1380h139l-115 -276h-90z" />
    <glyph glyph-name="uni0401" unicode="&#x401;" horiz-adv-x="724" 
d="M643 1580q-1 -42 -25 -68t-63 -27q-39 1 -63 27t-25 67q0 41 26 69q25 28 63 28t62 -28q24 -26 25 -68zM223 1485q-39 1 -63 27t-25 67q0 41 26 69q25 28 63 28t63 -28q25 -26 25 -68t-25 -69q-25 -26 -64 -26zM627 788v-133h-346v-518h393v-137h-551v1380h526v-137h-368
v-455h346z" />
    <glyph glyph-name="uni0402" unicode="&#x402;" horiz-adv-x="995" 
d="M559 754q-63 0 -121 -39v-715h-157v1237h-250v143h731v-143h-324v-395h4q76 49 164 49q174 0 266 -186q66 -137 66 -387t-119 -410q-94 -131 -225 -172l-41 131q225 93 223 481q0 188 -54 297t-163 109z" />
    <glyph glyph-name="uni0403" unicode="&#x403;" horiz-adv-x="694" 
d="M461 1675h186l-254 -221h-125zM123 1380h541v-137h-383v-1243h-158v1380z" />
    <glyph glyph-name="uni0404" unicode="&#x404;" horiz-adv-x="786" 
d="M643 772v-137h-416q4 -170 72 -327q35 -81 103 -131t155 -50q88 0 166 33l27 -129q-90 -45 -201 -45q-240 0 -362 198q-121 198 -121 484q0 285 105 491q53 106 153 171t233 65q84 0 170 -39l-35 -135q-55 33 -137 33t-151 -49q-116 -80 -159 -277q-17 -78 -20 -156h418z
" />
    <glyph glyph-name="uni0405" unicode="&#x405;" horiz-adv-x="739" 
d="M286 127q112 0 173 63q61 62 61 160t-45 163t-137 134q-260 178 -260 383q0 158 101 260t245 102t211 -51l-37 -135q-68 47 -164 47t-148 -59t-52 -145q0 -87 44 -141t158 -136q240 -168 240 -397q0 -175 -110 -281t-277 -106q-69 0 -135 18t-97 41l35 135
q82 -55 194 -55z" />
    <glyph glyph-name="uni0406" unicode="&#x406;" horiz-adv-x="407" 
d="M123 1380h158v-1380h-158v1380z" />
    <glyph glyph-name="uni0407" unicode="&#x407;" horiz-adv-x="407" 
d="M459 1580q-1 -42 -25 -68t-63 -27q-39 1 -64 27t-25 67t26 69t64 28t62 -28q24 -26 25 -68zM127 1580q-1 -42 -25 -68t-63 -27q-39 1 -64 27t-25 67t26 69t64 28t62 -28q24 -26 25 -68zM123 1380h158v-1380h-158v1380z" />
    <glyph glyph-name="uni0408" unicode="&#x408;" horiz-adv-x="542" 
d="M274 387v993h158v-991q0 -221 -83 -313t-240 -92q-66 0 -103 14l14 133q27 -8 76 -8q90 0 134 55t44 209z" />
    <glyph glyph-name="uni0409" unicode="&#x409;" horiz-adv-x="1300" 
d="M805 119q129 0 201 84t72 215t-76 210q-75 79 -199 79q-35 -1 -78 -7v-573q35 -8 80 -8zM164 1380h561v-549q49 6 104 7q186 0 299 -112t113 -297t-100 -296q-123 -141 -367 -141q-129 0 -205 14v1237h-260v-473q1 -313 -31 -491t-137 -254q-53 -41 -125 -41l-30 131
q53 18 73 41q59 53 82 190t23 406v628z" />
    <glyph glyph-name="uni040A" unicode="&#x40a;" horiz-adv-x="1370" 
d="M872 119q129 0 202 84t73 215t-75 206t-202 74q-34 0 -77 -6v-565q35 -8 79 -8zM123 1380h158v-573h356v573h156v-557q49 6 104 6q188 -1 301 -109t113 -292t-101 -295q-123 -141 -368 -141q-129 0 -205 14v662h-356v-668h-158v1380z" />
    <glyph glyph-name="uni040B" unicode="&#x40b;" horiz-adv-x="1026" 
d="M762 524q0 232 -162 234q-86 0 -166 -64v-694h-158v1237h-243v143h708v-143h-307v-422h4q104 76 222 76t184 -88q74 -94 74 -262v-541h-156v524z" />
    <glyph glyph-name="uni040C" unicode="&#x40c;" horiz-adv-x="800" 
d="M506 1665h186l-254 -221h-125zM125 1380h154v-626h28l293 626h172l-338 -645q117 -25 173 -113t87 -237q14 -59 36 -172t56 -213h-159q-18 49 -80 344q-31 147 -81 220t-163 73h-24v-637h-154v1380z" />
    <glyph glyph-name="uni040E" unicode="&#x40e;" horiz-adv-x="755" 
d="M384 1505q98 0 114 115h116q-28 -199 -236 -199t-226 199h114q20 -115 118 -115zM129 -23q-47 0 -74 11l6 127q25 -4 43 -4q76 0 133 80q56 81 85 178q10 41 -3 80l-309 931h170l164 -565q35 -123 64 -240h6q10 39 27 129t24 115l123 561h160l-166 -618q-4 -14 -26 -97
q-84 -316 -167 -489q-106 -199 -260 -199z" />
    <glyph glyph-name="uni040F" unicode="&#x40f;" horiz-adv-x="937" 
d="M123 1380h158v-1243h376v1243h158v-1380h-270l-10 -293h-129l-11 293h-272v1380z" />
    <glyph glyph-name="uni0410" unicode="&#x410;" horiz-adv-x="890" 
d="M311 541h262l-71 350q-20 100 -56 315h-6q-31 -195 -57 -315zM596 414h-307l-90 -414h-154l315 1380h175l307 -1380h-156z" />
    <glyph glyph-name="uni0411" unicode="&#x411;" horiz-adv-x="856" 
d="M360 119q136 0 204 88t69 211q0 123 -72 205q-78 84 -203 84q-34 -1 -77 -7v-573q35 -8 79 -8zM125 1380h582v-137h-426v-414q49 8 104 9q182 0 297 -110t115 -298t-101 -301q-119 -137 -366 -137q-129 0 -205 14v1374z" />
    <glyph glyph-name="uni0412" unicode="&#x412;" horiz-adv-x="851" 
d="M281 674v-549q37 -8 79 -8q123 -1 196 71t73 205t-80 206t-199 75h-69zM281 795h71q98 1 169 69t71 174q0 225 -227 226q-53 -1 -84 -11v-458zM793 376q0 -150 -99 -259q-111 -125 -364 -125q-129 0 -205 14v1354q106 27 229 26q203 0 299 -90t97 -241q0 -105 -56 -185
t-157 -120v-7q121 -33 189 -125t67 -242z" />
    <glyph glyph-name="uni0413" unicode="&#x413;" horiz-adv-x="694" 
d="M123 1380h541v-137h-383v-1243h-158v1380z" />
    <glyph glyph-name="uni0414" unicode="&#x414;" horiz-adv-x="970" 
d="M412 1243v-207q0 -317 -34 -519t-104 -380h392v1106h-254zM266 1380h555v-1245l92 -2l-8 -418h-125l-8 285h-610l-8 -285h-125l-9 418l93 2q77 184 115 390t38 544v311z" />
    <glyph glyph-name="uni0415" unicode="&#x415;" horiz-adv-x="724" 
d="M627 788v-133h-346v-518h393v-137h-551v1380h526v-137h-368v-455h346z" />
    <glyph glyph-name="uni0416" unicode="&#x416;" horiz-adv-x="1206" 
d="M528 752v628h148v-628h31l297 628h174l-355 -643q121 -20 183 -117t92 -249q61 -291 92 -371h-156q-20 46 -58 224t-53 222q-44 130 -117 167q-46 24 -108 24h-22v-637h-148v637h-20q-128 0 -183 -94t-92 -290t-65 -253h-152q27 74 90 371q68 330 275 366l-354 643h174
l299 -628h28z" />
    <glyph glyph-name="uni0417" unicode="&#x417;" horiz-adv-x="780" 
d="M337 1397q163 0 252 -92q89 -93 89 -223t-68 -221t-174 -124v-4q131 -21 208 -117t77 -237q0 -183 -115 -289t-289 -106t-280 67l39 131q100 -63 222 -63q122 -1 192 71t69 197q0 125 -88 199t-225 73h-43v125h30q111 0 198 75t87 179t-57 162t-159 60q-102 0 -202 -72
l-41 121q115 88 278 88z" />
    <glyph glyph-name="uni0418" unicode="&#x418;" horiz-adv-x="950" 
d="M123 1380h143v-493q0 -307 -18 -633h4q29 94 178 481l248 645h147v-1380h-141v477q0 406 16 651h-4q-33 -115 -166 -462l-258 -666h-149v1380z" />
    <glyph glyph-name="uni0419" unicode="&#x419;" horiz-adv-x="950" 
d="M476 1513q98 0 114 115h117q-27 -199 -236 -199t-227 199h114q20 -115 118 -115zM123 1380h143v-493q0 -307 -18 -633h4q29 94 178 481l248 645h147v-1380h-141v477q0 406 16 651h-4q-33 -115 -166 -462l-258 -666h-149v1380z" />
    <glyph glyph-name="uni041A" unicode="&#x41a;" horiz-adv-x="800" 
d="M125 1380h154v-626h28l293 626h172l-338 -645q117 -25 173 -113t87 -237q14 -59 36 -172t56 -213h-159q-18 49 -80 344q-31 147 -81 220t-163 73h-24v-637h-154v1380z" />
    <glyph glyph-name="uni041B" unicode="&#x41b;" horiz-adv-x="884" 
d="M166 1380h594v-1380h-158v1243h-291v-471q-1 -322 -31 -497t-137 -248q-55 -43 -125 -43l-32 133q122 18 157 227q23 139 23 406v630z" />
    <glyph glyph-name="uni041C" unicode="&#x41c;" horiz-adv-x="1226" 
d="M987 0l-29 594q-20 373 -14 541h-8q-51 -256 -111 -480l-168 -647h-102l-160 621q-72 272 -114 506h-7q2 -121 -16 -551l-27 -584h-141l82 1380h172l160 -630q82 -315 110 -476h7q29 170 102 476l156 630h176l80 -1380h-148z" />
    <glyph glyph-name="uni041D" unicode="&#x41d;" horiz-adv-x="948" 
d="M123 1380h158v-592h387v592h157v-1380h-157v645h-387v-645h-158v1380z" />
    <glyph glyph-name="uni041E" unicode="&#x41e;" horiz-adv-x="913" 
d="M450 1257q-72 0 -127 -86q-92 -146 -94 -481q0 -227 53 -397t179 -170q174 0 213 366q10 93 10 201t-10 202t-35 179q-25 86 -71 136t-118 50zM66 689q0 339 110 523t291 185t281 -183t100 -534t-110 -522q-110 -174 -288 -174t-281 183t-103 522z" />
    <glyph glyph-name="uni041F" unicode="&#x41f;" horiz-adv-x="937" 
d="M123 1380h692v-1380h-158v1243h-376v-1243h-158v1380z" />
    <glyph glyph-name="uni0420" unicode="&#x420;" horiz-adv-x="817" 
d="M344 692q118 0 188 77t70 208q0 282 -233 280q-53 0 -88 -10v-551q37 -4 63 -4zM125 0v1360q102 27 227 26q205 0 306 -100q102 -100 102 -280t-84 -289q-53 -74 -141 -114t-160 -40t-94 2v-565h-156z" />
    <glyph glyph-name="uni0421" unicode="&#x421;" horiz-adv-x="763" 
d="M528 -12q-211 0 -337 173t-125 513q0 195 45 341q78 252 274 341q81 37 185 37t155 -35l-35 -133q-66 29 -137 28q-129 0 -225 -137t-96 -430t90 -426q92 -133 235 -133q77 0 143 29l27 -131q-70 -37 -199 -37z" />
    <glyph glyph-name="uni0422" unicode="&#x422;" horiz-adv-x="724" 
d="M285 0v1239h-252v141h661v-141h-252v-1239h-157z" />
    <glyph glyph-name="uni0423" unicode="&#x423;" horiz-adv-x="755" 
d="M129 -23q-47 0 -74 11l6 127q25 -4 43 -4q76 0 133 80q56 81 85 178q10 41 -3 80l-309 931h170l164 -565q35 -123 64 -240h6q10 39 27 129t24 115l123 561h160l-166 -618q-4 -14 -26 -97q-84 -316 -167 -489q-106 -199 -260 -199z" />
    <glyph glyph-name="uni0424" unicode="&#x424;" horiz-adv-x="1038" 
d="M815 700q0 244 -66 364q-67 120 -157 130v-1001q223 37 223 507zM449 193v1001q-95 -14 -159 -135t-64 -363t62 -360q63 -120 161 -143zM449 1419h145v-110q170 -14 275 -167t106 -444q0 -455 -242 -580q-63 -34 -141 -42v-115h-146v115q-381 49 -380 616q0 301 111 451
q112 150 272 166v110z" />
    <glyph glyph-name="uni0425" unicode="&#x425;" horiz-adv-x="802" 
d="M774 0h-164l-125 332q-51 137 -86 241h-6l-82 -245l-118 -328h-162l282 705l-274 675h164l125 -319q43 -113 80 -219h4q33 96 75 225l113 313h160l-271 -671z" />
    <glyph glyph-name="uni0426" unicode="&#x426;" horiz-adv-x="962" 
d="M123 1380h158v-1243h374v1243h158v-1245l92 -2l-8 -418h-123l-10 285h-641v1380z" />
    <glyph glyph-name="uni0427" unicode="&#x427;" horiz-adv-x="892" 
d="M111 1380h155v-471q0 -238 189 -237q86 0 159 43v665h156v-1394h-156v602h-6q-104 -49 -225 -49t-197 85t-75 255v501z" />
    <glyph glyph-name="uni0428" unicode="&#x428;" horiz-adv-x="1294" 
d="M125 1380h154v-1243h292v1243h154v-1243h293v1243h153v-1380h-1046v1380z" />
    <glyph glyph-name="uni0429" unicode="&#x429;" horiz-adv-x="1318" 
d="M125 1380h154v-1243h292v1243h154v-1243h293v1243h153v-1245l91 -2l-9 -418h-123l-10 285h-995v1380z" />
    <glyph glyph-name="uni042A" unicode="&#x42a;" horiz-adv-x="1048" 
d="M555 119q129 0 202 84t73 214t-75 210t-202 80q-35 -1 -78 -7v-573q53 -8 80 -8zM31 1380h444v-549q49 6 105 7q188 0 301 -112t113 -298t-101 -299q-119 -137 -369 -137q-129 0 -205 14v1239h-288v135z" />
    <glyph glyph-name="uni042B" unicode="&#x42b;" horiz-adv-x="1200" 
d="M918 1382h157v-1382h-157v1382zM356 119q125 0 198 84t73 214t-74 210t-195 80q-42 -1 -77 -7v-575q39 -6 75 -6zM125 1380h156v-551q43 8 102 9q184 0 296 -112t112 -296t-99 -295q-125 -143 -370 -143q-121 0 -197 14v1374z" />
    <glyph glyph-name="uni042C" unicode="&#x42c;" horiz-adv-x="854" 
d="M356 119q129 0 203 84t74 214t-75 210t-200 80q-42 -1 -77 -7v-575q39 -6 75 -6zM125 1380h156v-549q43 6 104 7q188 0 300 -111t112 -296t-99 -296q-125 -143 -370 -143q-127 0 -203 14v1374z" />
    <glyph glyph-name="uni042D" unicode="&#x42d;" horiz-adv-x="792" 
d="M150 637v141h417q0 159 -65 307q-33 76 -96 123q-64 47 -146 47t-151 -32l-41 127q98 45 202 45t190 -44q85 -44 134 -113t91 -195q42 -125 42 -329t-48 -360t-162 -262t-279 -106q-109 0 -203 45l37 131q74 -35 162 -35t156 50q69 50 105 132q66 150 70 328h-415z" />
    <glyph glyph-name="uni042E" unicode="&#x42e;" horiz-adv-x="1236" 
d="M801 1257q-113 1 -164 -165t-51 -401t51 -401t165 -167q114 0 163 166t49 397t-34 351t-77 170t-102 50zM123 1380h156v-589h151q16 293 120 449t268 157q163 -1 259 -185q97 -184 97 -532t-106 -522t-270 -174q-165 0 -263 170t-105 497h-151v-651h-156v1380z" />
    <glyph glyph-name="uni042F" unicode="&#x42f;" horiz-adv-x="831" 
d="M494 723q37 0 57 2v526q-41 8 -82 9q-117 0 -176 -73t-59 -195t72 -196q73 -74 188 -73zM74 999q0 201 135 306q105 81 257 81t241 -24v-1362h-156v600h-57q-104 0 -158 -61q-33 -39 -52 -110q-18 -71 -36 -174t-28 -155t-34 -100h-163q40 82 66 240q25 158 49 230
t65 120q41 55 104 67v5q-106 33 -170 117q-63 85 -63 220z" />
    <glyph glyph-name="uni0430" unicode="&#x430;" horiz-adv-x="745" 
d="M479 313v201q-272 0 -272 -231q0 -90 36 -133q36 -44 87 -44t90 39q59 59 59 168zM633 655v-430q0 -145 10 -225h-141l-10 104h-7q-68 -121 -198 -120q-100 0 -167 78t-67 204q0 176 120 268t302 93v30q0 109 -36 166t-124 57t-161 -51l-35 111q92 66 231 66
q283 -1 283 -351z" />
    <glyph glyph-name="uni0431" unicode="&#x431;" horiz-adv-x="794" 
d="M402 111q166 0 167 411q0 91 -23 179q-42 163 -143 163q-100 0 -141 -110q-33 -86 -33 -177q1 -91 7 -153t22 -138q16 -77 54 -126t90 -49zM438 991q131 0 210 -119q79 -120 79 -372t-85 -385t-236 -133q-258 0 -316 399q-14 96 -14 205q0 381 94 567q86 178 276 227
q20 6 104 24t114 30l-9 -138q-25 -10 -93 -25t-87 -22q-143 -33 -205 -164q-47 -100 -61 -258h4q27 70 88 117t137 47z" />
    <glyph glyph-name="uni0432" unicode="&#x432;" horiz-adv-x="806" 
d="M264 459v-355q55 -6 80 -6q102 0 172 42t70 135t-75 139t-179 45h-68zM266 571h70q80 0 148 46t67 122q0 152 -205 152q-31 0 -80 -8v-312zM743 283q0 -297 -443 -297q-91 0 -189 10v989q290 53 468 -28q125 -58 123 -197q0 -86 -55 -148t-141 -86v-4q111 -18 174 -83
t63 -156z" />
    <glyph glyph-name="uni0433" unicode="&#x433;" horiz-adv-x="598" 
d="M111 991h460v-133h-305v-858h-155v991z" />
    <glyph glyph-name="uni0434" unicode="&#x434;" horiz-adv-x="854" 
d="M356 719q0 -375 -120 -594h329v739h-209v-145zM217 991h504v-868l84 -2l-8 -385h-121l-10 264h-512l-11 -264h-120l-9 385l66 2q137 214 137 579v289z" />
    <glyph glyph-name="uni0435" unicode="&#x435;" horiz-adv-x="743" 
d="M378 883q-68 0 -108 -85q-41 -85 -47 -200h309q2 139 -42 212t-112 73zM221 481q0 -369 234 -368q94 0 163 37l27 -115q-90 -47 -219 -47q-174 0 -267 133t-93 367t93 376t238 142t216 -126t71 -309q0 -41 -4 -90h-459z" />
    <glyph glyph-name="uni0436" unicode="&#x436;" horiz-adv-x="1097" 
d="M475 555v436h150v-436h34l240 436h174l-295 -452q170 -35 223 -273q45 -190 80 -266h-153q-31 53 -68 219q-33 125 -86 177t-133 53h-16v-449h-150v449h-16q-99 1 -141 -51t-82 -189q-37 -152 -64 -209h-154q18 43 82 258q66 246 224 281l-297 452h174l241 -436h33z" />
    <glyph glyph-name="uni0437" unicode="&#x437;" horiz-adv-x="690" 
d="M227 571q80 0 142 46q61 46 61 121t-44 113t-118 38t-172 -51l-30 98q100 70 234 70t211 -66t77 -167t-56 -161t-147 -86v-2q106 -16 173 -82t67 -168q0 -139 -108 -215q-108 -75 -249 -75t-241 55l34 113q95 -50 189 -50t154 50t60 134q0 82 -69 126q-70 44 -166 45h-57
l2 114h53z" />
    <glyph glyph-name="uni0438" unicode="&#x438;" horiz-adv-x="831" 
d="M111 991h143v-340q0 -293 -14 -475h4q33 94 147 387l166 428h166v-991h-145v326q0 240 16 485h-6q-42 -151 -142 -401t-174 -410h-161v991z" />
    <glyph glyph-name="uni0439" unicode="&#x439;" horiz-adv-x="831" 
d="M417 1229q110 0 122 139h110q-27 -229 -233 -229t-232 229h111q12 -139 122 -139zM111 991h143v-340q0 -293 -14 -475h4q33 94 147 387l166 428h166v-991h-145v326q0 240 16 485h-6q-42 -151 -142 -401t-174 -410h-161v991z" />
    <glyph glyph-name="uni043A" unicode="&#x43a;" horiz-adv-x="751" 
d="M111 991h153v-430h23l260 430h174l-309 -446q174 -29 241 -281q57 -205 82 -264h-162q-20 48 -60 194t-90 199t-142 53h-17v-446h-153v991z" />
    <glyph glyph-name="uni043B" unicode="&#x43b;" horiz-adv-x="784" 
d="M152 991h524v-991h-158v862h-217v-315q0 -238 -33 -364t-133 -175q-51 -23 -106 -22l-27 125q49 8 82 45q68 68 68 381v454z" />
    <glyph glyph-name="uni043C" unicode="&#x43c;" horiz-adv-x="1101" 
d="M252 844q0 -143 -12 -426l-19 -418h-143l69 991h185l131 -434q49 -168 88 -317h4q51 203 84 317l127 434h188l68 -991h-148l-20 426q-10 211 -14 418h-4q-51 -215 -99 -381l-135 -457h-115l-129 440q-53 190 -100 398h-6z" />
    <glyph glyph-name="uni043D" unicode="&#x43d;" horiz-adv-x="829" 
d="M111 991h157v-420h293v420h158v-991h-158v436h-293v-436h-157v991z" />
    <glyph glyph-name="uni043E" unicode="&#x43e;" horiz-adv-x="784" 
d="M225 494q0 -388 178 -386q57 0 97 68q61 106 61 307q0 266 -84 360q-35 38 -84 38q-126 0 -161 -259q-7 -60 -7 -128zM400 1006q140 0 230 -132t89 -386q0 -256 -98 -380q-97 -124 -235 -124t-228 130t-90 382t96 381t236 129z" />
    <glyph glyph-name="uni043F" unicode="&#x43f;" horiz-adv-x="819" 
d="M111 991h600v-991h-158v860h-285v-860h-157v991z" />
    <glyph glyph-name="uni0440" unicode="&#x440;" horiz-adv-x="817" 
d="M264 616v-254q0 -49 8 -81q37 -166 146 -166q92 0 133 106q41 107 41 273t-43 271t-133 105q-52 0 -96 -54t-50 -124q-6 -33 -6 -76zM109 -393v1075q0 31 -9 309h140l8 -127h4q76 142 210 142t211 -134t77 -382q0 -250 -90 -378t-213 -128q-124 0 -179 114h-4v-491h-155z
" />
    <glyph glyph-name="uni0441" unicode="&#x441;" horiz-adv-x="618" 
d="M430 -12q-166 0 -264 130t-98 361t105 379t286 148q86 0 139 -31l-31 -129q-53 27 -112 26q-113 0 -171 -112t-58 -278q0 -167 62 -265t171 -98q61 -1 112 26l23 -120q-63 -37 -164 -37z" />
    <glyph glyph-name="uni0442" unicode="&#x442;" horiz-adv-x="649" 
d="M20 991h609v-131h-226v-860h-157v860h-226v131z" />
    <glyph glyph-name="uni0443" unicode="&#x443;" horiz-adv-x="708" 
d="M25 991h165l134 -569q8 -35 20 -103t21 -102h4q31 172 41 203l118 571h156l-162 -637q-117 -467 -246 -639q-82 -104 -178 -149l-59 133q74 41 136 120t87 152t12 107z" />
    <glyph glyph-name="uni0444" unicode="&#x444;" horiz-adv-x="976" 
d="M764 492q0 352 -205 405v-805q205 48 205 400zM215 495q0 -93 16 -171q17 -78 65 -147t124 -85v805q-76 -18 -124 -86q-48 -67 -64 -145t-17 -171zM418 1401h143v-395q162 -20 256 -150t94 -362t-92 -362t-258 -148v-377h-143v377q-164 18 -257 146t-93 362t93 361
q93 128 257 151v397z" />
    <glyph glyph-name="uni0445" unicode="&#x445;" horiz-adv-x="696" 
d="M29 991h170l90 -213q20 -50 40 -102q19 -52 27 -70h4q4 12 66 172l88 213h162l-236 -489l234 -502h-170l-94 225q-20 49 -66 170h-4q-12 -35 -66 -172l-92 -223h-159l235 498z" />
    <glyph glyph-name="uni0446" unicode="&#x446;" horiz-adv-x="841" 
d="M111 991h157v-860h283v860h158v-868l84 -2l-9 -385h-120l-11 264h-542v991z" />
    <glyph glyph-name="uni0447" unicode="&#x447;" horiz-adv-x="804" 
d="M96 991h158v-379q0 -84 31 -130t105 -46t149 45v510h155v-995h-155v371h-4q-76 -51 -192 -51q-115 0 -181 69q-66 70 -66 203v403z" />
    <glyph glyph-name="uni0448" unicode="&#x448;" horiz-adv-x="1208" 
d="M111 991h155v-860h260v860h156v-860h260v860h156v-991h-987v991z" />
    <glyph glyph-name="uni0449" unicode="&#x449;" horiz-adv-x="1232" 
d="M111 991h155v-860h260v860h156v-860h262v860h154v-868l84 -2l-8 -385h-121l-11 264h-931v991z" />
    <glyph glyph-name="uni044A" unicode="&#x44a;" horiz-adv-x="950" 
d="M496 113q102 0 170 53q68 54 68 156t-70 152t-177 50q-24 0 -65 -4v-401q37 -6 74 -6zM895 330q0 -156 -114 -248t-312 -92q-100 0 -203 16v856h-239v129h395v-350l94 6q162 0 270 -80q108 -81 109 -237z" />
    <glyph glyph-name="uni044B" unicode="&#x44b;" horiz-adv-x="1081" 
d="M819 991h152v-991h-152v991zM336 113q92 0 156 57q63 56 63 152t-65 149t-158 53q-25 0 -66 -4v-401q37 -6 70 -6zM111 991h155v-350q49 6 94 6q152 0 254 -83q102 -82 102 -236t-113 -246q-114 -92 -290 -92q-100 0 -202 16v985z" />
    <glyph glyph-name="uni044C" unicode="&#x44c;" horiz-adv-x="794" 
d="M336 113q104 0 173 53q69 54 69 156t-70 152t-176 50q-25 0 -66 -4v-403q49 -4 70 -4zM313 -10q-100 0 -202 16v985h155v-350l94 6q164 0 272 -81q108 -80 108 -236t-114 -248t-313 -92z" />
    <glyph glyph-name="uni044D" unicode="&#x44d;" horiz-adv-x="663" 
d="M102 449v114h334q-4 129 -60 223t-175 95q-70 0 -131 -29l-27 109q66 45 186 45q173 0 271 -140t98 -358q0 -219 -103 -371t-294 -151q-109 0 -174 41l28 116q57 -31 149 -31t163 95q70 94 71 242h-336z" />
    <glyph glyph-name="uni044E" unicode="&#x44e;" horiz-adv-x="1073" 
d="M696 109q154 -1 154 427q0 106 -36 226q-36 119 -122 119q-47 0 -80 -38t-55 -128t-22 -232q0 -141 36 -258q37 -116 125 -116zM111 991h153v-416h123q16 215 103 323t214 108q126 0 214 -132t88 -386t-94 -379t-222 -125q-127 0 -212 118t-93 347h-121v-449h-153v991z
" />
    <glyph glyph-name="uni044F" unicode="&#x44f;" horiz-adv-x="776" 
d="M514 530v359q-31 6 -68 6q-90 0 -149 -44t-59 -131t64 -138t151 -52h61zM668 0h-154v424h-47q-136 0 -186 -105q-23 -47 -49 -161t-48 -158h-166q31 50 41 86l23 92q43 178 94 232q51 55 123 65v4q-95 19 -157 81t-62 177t96 191t254 76t238 -21v-983z" />
    <glyph glyph-name="uni0451" unicode="&#x451;" horiz-adv-x="743" 
d="M564 1159q-38 0 -64 26q-26 27 -27 65q0 38 27 65q28 27 64 27t62 -28q26 -26 26 -65t-26 -65q-24 -26 -62 -25zM332 1249q0 -39 -24 -65t-63 -25q-38 0 -65 26q-26 27 -26 65t26 65q27 27 64 27q36 0 62 -28q26 -26 26 -65zM378 883q-68 0 -108 -85q-41 -85 -47 -200
h309q2 139 -42 212t-112 73zM221 481q0 -369 234 -368q94 0 163 37l27 -115q-90 -47 -219 -47q-174 0 -267 133t-93 367t93 376t238 142t216 -126t71 -309q0 -41 -4 -90h-459z" />
    <glyph glyph-name="uni0452" unicode="&#x452;" horiz-adv-x="847" 
d="M616 440q0 428 -167 428q-70 0 -115 -72t-45 -163v-633h-158v1147h-106v110h106v160h158v-160h358v-110h-358v-268h4q76 123 205 122q276 0 276 -548q0 -397 -145 -574q-39 -51 -95 -87t-104 -42l-39 127q78 16 129 92q96 143 96 471z" />
    <glyph glyph-name="uni0453" unicode="&#x453;" horiz-adv-x="598" 
d="M410 1397h161l-215 -277h-104zM111 991h460v-133h-305v-858h-155v991z" />
    <glyph glyph-name="uni0454" unicode="&#x454;" horiz-adv-x="677" 
d="M483 883q-123 1 -186 -97t-68 -223h349v-114h-351q4 -152 74 -245t182 -93q80 0 138 30l28 -112q-73 -43 -195 -43t-214 74q-172 139 -172 434q0 212 105 362t308 150q111 0 170 -45l-35 -113q-70 35 -133 35z" />
    <glyph glyph-name="uni0455" unicode="&#x455;" horiz-adv-x="591" 
d="M237 113q73 0 113 39t39 101q0 62 -27 105t-100 93q-199 127 -199 280q0 121 78 198q77 77 181 77t190 -52l-41 -118q-66 45 -129 45t-97 -37t-34 -88t25 -87t98 -85q205 -131 205 -301q0 -143 -85 -219t-211 -76t-198 57l39 119q80 -51 153 -51z" />
    <glyph glyph-name="uni0456" unicode="&#x456;" horiz-adv-x="376" 
d="M94 1248q0 44 26 73t68 29q41 0 67 -28t26 -75t-26 -75t-68 -28q-41 0 -67 30t-26 74zM268 0h-157v991h157v-991z" />
    <glyph glyph-name="uni0457" unicode="&#x457;" horiz-adv-x="376" 
d="M349 1159q-39 0 -65 26q-26 27 -26 65t27 65t63 27t63 -28q25 -26 25 -65t-24 -65t-63 -25zM119 1249q-1 -39 -25 -65t-62 -25q-38 0 -65 26q-27 27 -27 65t27 65t64 27t63 -28q26 -26 25 -65zM268 0h-157v991h157v-991z" />
    <glyph glyph-name="uni0458" unicode="&#x458;" horiz-adv-x="385" 
d="M203 1350q41 0 67 -28t25 -75q0 -47 -26 -75q-25 -28 -67 -28t-68 30t-26 74t27 73t68 29zM123 109v882h158v-928q0 -153 -24 -237q-44 -154 -180 -209q-63 -25 -114 -27l-20 125q98 27 133 78q47 72 47 316z" />
    <glyph glyph-name="uni0459" unicode="&#x459;" horiz-adv-x="1208" 
d="M750 113q104 0 173 53q69 54 69 156t-69 152t-178 50q-24 0 -65 -4v-401q37 -6 70 -6zM1153 330q0 -154 -116 -247t-316 -93q-94 0 -197 16v856h-223v-315q0 -240 -32 -365t-134 -174q-57 -23 -106 -22l-27 125q49 8 82 45q41 39 54 128t14 253v454h528v-350l94 6
q162 0 270 -81q108 -82 109 -236z" />
    <glyph glyph-name="uni045A" unicode="&#x45a;" horiz-adv-x="1230" 
d="M780 113q98 0 166 52t68 151q0 98 -70 148t-176 50q-25 0 -66 -4v-391q37 -6 78 -6zM1176 324q0 -148 -109 -240q-121 -94 -324 -94q-86 0 -196 14v473h-279v-477h-157v991h157v-385h279v385h155v-360l97 6q161 0 269 -82q108 -83 108 -231z" />
    <glyph glyph-name="uni045B" unicode="&#x45b;" horiz-adv-x="849" 
d="M739 0h-157v633q0 236 -133 235q-119 0 -154 -157q-6 -31 -6 -84v-627h-158v1147h-106v110h106v160h158v-160h358v-110h-358v-268h4q75 124 215 122q100 0 166 -86t65 -260v-655z" />
    <glyph glyph-name="uni045C" unicode="&#x45c;" horiz-adv-x="751" 
d="M451 1397h163l-215 -277h-104zM111 991h153v-430h23l260 430h174l-309 -446q174 -29 241 -281q57 -205 82 -264h-162q-20 48 -60 194t-90 199t-142 53h-17v-446h-153v991z" />
    <glyph glyph-name="uni045E" unicode="&#x45e;" horiz-adv-x="708" 
d="M25 991h165l134 -569q8 -35 20 -103t21 -102h4q31 172 41 203l118 571h156l-162 -637q-117 -467 -246 -639q-82 -104 -178 -149l-59 133q74 41 136 120t87 152t12 107zM355 1229q110 0 122 139h111q-26 -229 -232 -229t-233 229h110q12 -139 122 -139z" />
    <glyph glyph-name="uni045F" unicode="&#x45f;" horiz-adv-x="819" 
d="M111 991h157v-860h283v860h158v-991h-226l-12 -272h-121l-12 272h-227v991z" />
    <glyph glyph-name="uni0490" unicode="&#x490;" horiz-adv-x="684" 
d="M125 1380h410l26 230h115l-21 -367h-374v-1243h-156v1380z" />
    <glyph glyph-name="uni0491" unicode="&#x491;" horiz-adv-x="591" 
d="M111 991h331l23 195h115l-15 -326h-299v-860h-155v991z" />
    <glyph glyph-name="uni04D9" unicode="&#x4d9;" horiz-adv-x="671" 
d="M518 393h-309q-2 -137 42 -210q43 -73 111 -73t109 86q41 84 47 197zM676 504q0 -234 -92 -375t-238 -141t-218 126q-71 126 -71 310q0 45 4 86h459q0 371 -231 371q-92 0 -166 -39l-27 110q90 53 221 54q175 0 267 -134t92 -368z" />
    <glyph glyph-name="Wgrave" unicode="&#x1e80;" horiz-adv-x="1339" 
d="M387 1675h186l193 -221h-125zM455 0h-150l-264 1380h162l116 -665q41 -229 70 -498h6q16 162 84 500l127 663h133l129 -649q63 -334 80 -514h6q18 168 72 506l115 657h155l-268 -1380h-156l-131 672q-43 219 -71 452h-4q-27 -233 -76 -458z" />
    <glyph glyph-name="wgrave" unicode="&#x1e81;" horiz-adv-x="1159" 
d="M344 1397h162l158 -277h-105zM27 991h163l97 -485q41 -213 53 -316h8q18 131 62 312l114 489h121l109 -475q45 -205 63 -326h8q14 129 54 320l94 481h157l-249 -991h-129l-115 481q-29 111 -55 297h-4q-23 -154 -58 -303l-119 -475h-133z" />
    <glyph glyph-name="Wacute" unicode="&#x1e82;" horiz-adv-x="1339" 
d="M776 1675h187l-254 -221h-125zM455 0h-150l-264 1380h162l116 -665q41 -229 70 -498h6q16 162 84 500l127 663h133l129 -649q63 -334 80 -514h6q18 168 72 506l115 657h155l-268 -1380h-156l-131 672q-43 219 -71 452h-4q-27 -233 -76 -458z" />
    <glyph glyph-name="wacute" unicode="&#x1e83;" horiz-adv-x="1159" 
d="M670 1397h161l-215 -277h-104zM27 991h163l97 -485q41 -213 53 -316h8q18 131 62 312l114 489h121l109 -475q45 -205 63 -326h8q14 129 54 320l94 481h157l-249 -991h-129l-115 481q-29 111 -55 297h-4q-23 -154 -58 -303l-119 -475h-133z" />
    <glyph glyph-name="Wdieresis" unicode="&#x1e84;" horiz-adv-x="1339" 
d="M928 1580q0 -42 -24 -68t-64 -27q-39 1 -64 27q-24 26 -24 67t25 69q26 28 64 28q39 0 63 -28q24 -26 24 -68zM596 1580q0 -42 -24 -68t-64 -27q-39 1 -64 27q-24 26 -24 67t25 69q26 28 64 28q39 0 63 -28q24 -26 24 -68zM455 0h-150l-264 1380h162l116 -665
q41 -229 70 -498h6q16 162 84 500l127 663h133l129 -649q63 -334 80 -514h6q18 168 72 506l115 657h155l-268 -1380h-156l-131 672q-43 219 -71 452h-4q-27 -233 -76 -458z" />
    <glyph glyph-name="wdieresis" unicode="&#x1e85;" horiz-adv-x="1159" 
d="M738 1159q-38 0 -64 26q-26 27 -27 65q0 38 27 65q28 27 64 27t62 -28q26 -26 26 -65t-26 -65q-24 -26 -62 -25zM508 1249q0 -39 -24 -65t-63 -25q-38 0 -65 26q-26 27 -26 65t26 65q27 27 64 27q36 0 62 -28q26 -26 26 -65zM27 991h163l97 -485q41 -213 53 -316h8
q18 131 62 312l114 489h121l109 -475q45 -205 63 -326h8q14 129 54 320l94 481h157l-249 -991h-129l-115 481q-29 111 -55 297h-4q-23 -154 -58 -303l-119 -475h-133z" />
    <glyph glyph-name="uni1EA0" unicode="&#x1ea0;" horiz-adv-x="890" 
d="M350 -256q0 40 26 66t65 26q38 0 63 -26q24 -26 24 -65q0 -40 -24 -66q-24 -25 -63 -25t-65 26t-26 64zM311 541h262l-71 350q-20 100 -56 315h-6q-31 -193 -57 -317zM596 414h-307l-90 -414h-154l315 1380h175l307 -1380h-156z" />
    <glyph glyph-name="uni1EA1" unicode="&#x1ea1;" horiz-adv-x="745" 
d="M274 -256q0 40 27 66t65 26t62 -26t25 -65q0 -40 -25 -66q-24 -25 -62 -25t-65 26t-27 64zM479 313v201q-272 0 -272 -231q0 -90 36 -133q36 -44 87 -44t90 39q59 59 59 168zM633 655v-430q0 -145 10 -225h-141l-10 104h-7q-68 -121 -198 -120q-100 0 -167 78t-67 204
q0 176 120 268t302 93v30q0 109 -36 166t-124 57t-161 -51l-35 111q92 66 231 66q283 -1 283 -351z" />
    <glyph glyph-name="uni1EA2" unicode="&#x1ea2;" horiz-adv-x="890" 
d="M487 1620q0 63 -59 63q-41 0 -86 -65l-57 43q59 119 174 119q61 0 103 -39t42 -85t-20 -78t-54 -66t-51 -66l-84 18q10 31 51 78t41 78zM311 541h262l-71 350q-20 100 -56 315h-6q-31 -195 -57 -315zM596 414h-307l-90 -414h-154l315 1380h175l307 -1380h-156z" />
    <glyph glyph-name="uni1EA3" unicode="&#x1ea3;" horiz-adv-x="745" 
d="M416 1290q0 34 -18 54t-48 20q-47 0 -80 -66l-57 43q51 121 166 121q69 0 111 -41t42 -101t-58 -133t-73 -102l-84 19q10 39 55 95q44 56 44 91zM479 313v201q-272 0 -272 -231q0 -90 36 -133q36 -44 87 -44t90 39q59 59 59 168zM633 655v-430q0 -145 10 -225h-141
l-10 104h-7q-68 -121 -198 -120q-100 0 -167 78t-67 204q0 176 120 268t302 93v30q0 109 -36 166t-124 57t-161 -51l-35 111q92 66 231 66q283 -1 283 -351z" />
    <glyph glyph-name="uni1EA4" unicode="&#x1ea4;" horiz-adv-x="890" 
d="M733 1806h164l-205 -207h-96zM393 1655h123l160 -201h-129l-90 117h-4l-88 -117h-127zM311 541h262l-71 352q-20 98 -56 313h-8q-25 -174 -55 -315zM594 414h-305l-90 -414h-154l315 1380h175l307 -1380h-156z" />
    <glyph glyph-name="uni1EA5" unicode="&#x1ea5;" horiz-adv-x="745" 
d="M612 1520h140l-158 -240h-84zM305 1397h113l127 -277h-113l-67 172h-9l-63 -172h-115zM479 313v201q-272 0 -272 -231q0 -90 36 -133q36 -44 87 -44t90 39q59 59 59 168zM633 655v-430q0 -145 10 -225h-141l-10 104h-7q-68 -121 -198 -120q-100 0 -167 78t-67 204
q0 176 120 268t302 93v30q0 109 -36 166t-124 57t-161 -51l-35 111q92 66 231 66q283 -1 283 -351z" />
    <glyph glyph-name="uni1EA6" unicode="&#x1ea6;" horiz-adv-x="890" 
d="M387 1655h123l158 -201h-127l-90 117h-5l-90 -117h-125zM483 1778h164l135 -207h-94zM311 541h262l-71 352q-6 29 -58 313h-6q-29 -180 -55 -315zM594 414h-305l-90 -414h-154l315 1380h172l308 -1380h-156z" />
    <glyph glyph-name="uni1EA7" unicode="&#x1ea7;" horiz-adv-x="745" 
d="M309 1397h111l127 -277h-113l-65 172h-9l-65 -172h-115zM420 1522h137l92 -240h-82zM479 311v203q-272 0 -272 -231q0 -90 36 -133q36 -44 87 -44t90 39q59 59 59 166zM633 655v-430q0 -145 10 -225h-141l-10 104h-7q-68 -121 -198 -120q-100 0 -167 78t-67 204
q0 176 120 268t302 93v30q0 109 -36 166t-124 57t-161 -51l-35 111q92 66 231 66q283 -1 283 -351z" />
    <glyph glyph-name="uni1EA8" unicode="&#x1ea8;" horiz-adv-x="890" 
d="M721 1711q0 61 -59 63q-45 0 -87 -66l-53 41q55 113 168 113q57 0 97 -36t40 -87q1 -51 -57 -117t-68 -82l-73 19q10 31 51 77t41 75zM389 1653h123l158 -199h-127l-90 117h-4l-91 -117h-125zM311 541h262l-71 350q-20 100 -56 315h-6q-31 -195 -57 -315zM596 414h-307
l-90 -414h-154l315 1380h175l307 -1380h-156z" />
    <glyph glyph-name="uni1EA9" unicode="&#x1ea9;" horiz-adv-x="745" 
d="M606 1447q0 62 -66 62q-34 0 -77 -63l-53 41q55 115 163 115q61 0 103 -38t41 -84q1 -46 -19 -75t-54 -63t-50 -62l-78 16q10 31 50 76t40 75zM303 1397h111l127 -277h-113l-68 172h-6l-65 -172h-115zM479 311v203q-272 0 -272 -231q0 -90 36 -133q36 -44 87 -44t90 39
q59 59 59 166zM633 655v-430q0 -150 12 -225h-143l-10 104h-7q-68 -121 -198 -120q-100 0 -167 78t-67 204q0 176 120 268t302 93v30q0 109 -36 166t-124 57t-161 -51l-35 111q92 66 231 66q283 -1 283 -351z" />
    <glyph glyph-name="uni1EAA" unicode="&#x1eaa;" horiz-adv-x="890" 
d="M347 1853q47 -1 109 -35t83 -34q49 0 51 71h84q0 -174 -129 -174q-39 0 -97 35t-79 35q-42 0 -52 -72h-84q-2 72 32 123t82 51zM381 1655h135l178 -201h-137l-106 113h-5l-106 -113h-135zM311 541h262l-71 350q-20 100 -56 315h-6q-31 -195 -57 -315zM596 414h-307
l-90 -414h-154l315 1380h175l307 -1380h-156z" />
    <glyph glyph-name="uni1EAB" unicode="&#x1eab;" horiz-adv-x="745" 
d="M272 1526q48 0 107 -34t84 -34q49 0 51 72h84q0 -174 -129 -174q-35 0 -95 35t-81 34q-41 1 -51 -71h-84q-2 72 31 122q35 50 83 50zM319 1331h109l156 -213h-125l-82 123h-4l-84 -123h-125zM479 313v201q-272 0 -272 -231q0 -90 36 -133q36 -44 87 -44t90 39
q59 59 59 168zM633 655v-430q0 -145 10 -225h-141l-10 104h-7q-68 -121 -198 -120q-100 0 -167 78t-67 204q0 176 120 268t302 93v30q0 109 -36 166t-124 57t-161 -51l-35 111q92 66 231 66q283 -1 283 -351z" />
    <glyph glyph-name="uni1EAC" unicode="&#x1eac;" horiz-adv-x="890" 
d="M537 -255q0 -39 -27 -65t-65 -26q-39 0 -65 27t-26 65t27 64t65 26t65 -26q26 -26 26 -65zM381 1655h135l178 -201h-137l-106 113h-5l-106 -113h-135zM311 541h262l-71 350q-20 100 -56 315h-6q-31 -195 -57 -315zM596 414h-307l-90 -414h-154l315 1380h175l307 -1380
h-156z" />
    <glyph glyph-name="uni1EAD" unicode="&#x1ead;" horiz-adv-x="745" 
d="M274 -256q0 40 27 66t65 26t62 -26t25 -65q0 -40 -25 -66q-24 -25 -62 -25t-65 26t-27 64zM319 1397h107l162 -277h-119l-94 178h-4l-95 -178h-118zM479 313v201q-272 0 -272 -231q0 -90 36 -133q36 -44 87 -44t90 39q59 59 59 168zM633 655v-430q0 -145 10 -225h-141
l-10 104h-7q-68 -121 -198 -120q-100 0 -167 78t-67 204q0 176 120 268t302 93v30q0 109 -36 166t-124 57t-161 -51l-35 111q92 66 231 66q283 -1 283 -351z" />
    <glyph glyph-name="uni1EAE" unicode="&#x1eae;" horiz-adv-x="890" 
d="M526 1792h162l-203 -205h-96zM452 1520q114 0 136 88h82q-12 -84 -72 -134t-149 -50q-88 0 -147 48q-59 50 -69 136h82q23 -88 137 -88zM311 541h262l-71 350q-20 100 -56 315h-8q-23 -172 -55 -317zM594 414h-305l-90 -414h-154l315 1380h175l307 -1380h-156z" />
    <glyph glyph-name="uni1EAF" unicode="&#x1eaf;" horiz-adv-x="745" 
d="M370 1194q60 0 97 34t41 91h86q2 -103 -62 -165t-165 -62q-102 0 -163 64t-59 163h86q4 -55 41 -90q38 -35 98 -35zM436 1511h152l-189 -235h-96zM479 313v201q-272 0 -272 -231q0 -90 36 -133q36 -44 87 -44t90 39q59 59 59 168zM633 655v-430q0 -145 10 -225h-141
l-10 104h-7q-68 -121 -198 -120q-100 0 -167 78t-67 204q0 176 120 268t302 93v30q0 109 -36 166t-124 57t-161 -51l-35 111q92 66 231 66q283 -1 283 -351z" />
    <glyph glyph-name="uni1EB0" unicode="&#x1eb0;" horiz-adv-x="890" 
d="M446 1520q114 0 136 88h82q-12 -84 -72 -134t-148 -50q-90 0 -148 48q-58 50 -69 136h82q23 -88 137 -88zM217 1792h164l137 -205h-96zM311 541h262l-71 350q-20 100 -56 315h-8q-23 -172 -55 -317zM594 414h-305l-90 -414h-154l315 1380h175l307 -1380h-156z" />
    <glyph glyph-name="uni1EB1" unicode="&#x1eb1;" horiz-adv-x="745" 
d="M372 1194q60 0 98 35t42 92h86q2 -101 -61 -165t-167 -64t-164 64q-61 64 -59 165h86q6 -57 43 -92q36 -35 96 -35zM150 1511h149l135 -233h-98zM479 311v203q-82 0 -148 -28q-124 -52 -124 -203q0 -90 36 -133q36 -44 87 -44t90 39q59 59 59 166zM633 655v-430
q0 -150 12 -225h-141l-10 104h-7q-72 -121 -198 -120q-102 0 -169 78t-67 204q0 176 120 268t302 93v30q0 109 -36 166t-124 57t-161 -51l-35 111q92 66 231 66q283 -1 283 -351z" />
    <glyph glyph-name="uni1EB2" unicode="&#x1eb2;" horiz-adv-x="890" 
d="M450 1520q112 0 134 90h82q-12 -86 -72 -135t-148 -49q-90 0 -148 48t-69 136h82q27 -90 139 -90zM487 1736q0 30 -16 46t-43 16q-47 0 -86 -65l-53 41q55 115 168 114q57 0 96 -36t39 -88t-58 -118t-65 -81l-74 18q10 31 51 77t41 76zM311 541h262l-71 350
q-20 100 -56 315h-6q-31 -195 -57 -315zM594 414h-305l-90 -414h-154l315 1380h175l305 -1380h-154z" />
    <glyph glyph-name="uni1EB3" unicode="&#x1eb3;" horiz-adv-x="745" 
d="M374 1192q60 0 97 35t41 92h86q2 -101 -61 -165t-165 -64t-164 64q-60 65 -58 165h86q4 -57 40 -92q38 -35 98 -35zM410 1427q0 62 -70 62q-35 0 -74 -64l-53 41q55 115 164 115q61 0 103 -37t42 -89q0 -51 -56 -113t-69 -82l-78 16q10 31 51 76q40 45 40 75zM479 311
v203q-272 0 -272 -231q0 -90 36 -133q36 -44 87 -44t90 39q59 59 59 166zM633 655v-430q0 -150 12 -225h-143l-10 104h-7q-68 -121 -196 -120q-102 0 -169 78t-67 204q0 176 120 268t302 93v30q0 109 -36 166t-124 57t-161 -51l-33 111q88 66 229 66q283 -1 283 -351z" />
    <glyph glyph-name="uni1EB4" unicode="&#x1eb4;" horiz-adv-x="890" 
d="M442 1520q112 0 136 88h81q-12 -84 -71 -134q-58 -50 -148 -50t-148 48q-58 50 -69 136h82q25 -88 137 -88zM342 1829q46 0 106 -34t84 -34q49 0 52 72h84q0 -174 -129 -174q-39 0 -99 37q-66 33 -78 33q-35 -1 -47 -52h-88q4 61 36 107t79 45zM311 541h262l-71 350
q-20 100 -56 315h-8q-23 -172 -55 -317zM594 414h-305l-90 -414h-154l315 1380h175l307 -1380h-156z" />
    <glyph glyph-name="uni1EB5" unicode="&#x1eb5;" horiz-adv-x="745" 
d="M372 1192q60 0 97 36t41 93h84q2 -100 -59 -165q-61 -64 -163 -64t-164 64q-60 65 -58 165h83q4 -55 42 -92q37 -37 97 -37zM268 1546q48 0 109 -35t82 -34q49 0 51 71h84q0 -174 -129 -174q-39 0 -97 35t-79 35q-35 0 -47 -51h-88q4 61 35 107t79 46zM479 313v201
q-272 0 -272 -231q0 -90 36 -133q36 -44 87 -44t90 39q59 59 59 168zM633 655v-430q0 -145 10 -225h-141l-10 104h-7q-68 -121 -198 -120q-100 0 -167 78t-67 204q0 176 120 268t302 93v30q0 109 -36 166t-124 57t-161 -51l-35 111q92 66 231 66q283 -1 283 -351z" />
    <glyph glyph-name="uni1EB6" unicode="&#x1eb6;" horiz-adv-x="890" 
d="M537 -255q0 -39 -27 -65t-65 -26q-39 0 -65 27t-26 65t27 64t65 26t65 -26q26 -26 26 -65zM231 1661h93q16 -88 125 -88t126 88h93q0 -88 -58 -142q-58 -55 -160 -55q-101 0 -160 52t-59 145zM311 541h262l-71 350q-20 100 -56 315h-6q-31 -195 -57 -315zM596 414h-307
l-90 -414h-154l315 1380h175l307 -1380h-156z" />
    <glyph glyph-name="uni1EB7" unicode="&#x1eb7;" horiz-adv-x="745" 
d="M274 -256q0 40 27 66t65 26t62 -26t25 -65q0 -40 -25 -66q-24 -25 -62 -25t-65 26t-27 64zM374 1245q56 0 91 35t37 90h88q4 -100 -56 -166t-162 -66t-162 66q-58 66 -54 166h88q4 -55 39 -90t91 -35zM479 313v201q-272 0 -272 -231q0 -90 36 -133q36 -44 87 -44t90 39
q59 59 59 168zM633 655v-430q0 -145 10 -225h-141l-10 104h-7q-68 -121 -198 -120q-100 0 -167 78t-67 204q0 176 120 268t302 93v30q0 109 -36 166t-124 57t-161 -51l-35 111q92 66 231 66q283 -1 283 -351z" />
    <glyph glyph-name="uni1EB8" unicode="&#x1eb8;" horiz-adv-x="724" 
d="M453 -255q0 -39 -27 -65t-65 -26q-39 0 -65 27t-26 65t27 64t65 26t65 -26q26 -26 26 -65zM627 788v-133h-346v-518h393v-137h-551v1380h526v-137h-368v-455h346z" />
    <glyph glyph-name="uni1EB9" unicode="&#x1eb9;" horiz-adv-x="743" 
d="M274 -256q0 38 27 64t65 26t62 -26t25 -65q0 -40 -25 -66q-24 -25 -62 -25t-65 26t-27 66zM378 885q-68 0 -108 -86q-41 -86 -47 -201h309q2 139 -42 213t-112 74zM221 481q0 -369 234 -368q94 0 163 37l27 -115q-90 -47 -219 -47q-174 0 -267 133t-93 369t93 376
q93 142 238 142t216 -126t71 -311q0 -41 -4 -90h-459z" />
    <glyph glyph-name="uni1EBA" unicode="&#x1eba;" horiz-adv-x="724" 
d="M428 1620q0 63 -59 63q-41 0 -86 -65l-58 43q59 119 174 119q61 0 103 -38t43 -91q-1 -53 -57 -119t-68 -86l-84 18q10 31 51 78t41 78zM627 788v-133h-346v-518h393v-137h-551v1380h526v-137h-368v-455h346z" />
    <glyph glyph-name="uni1EBB" unicode="&#x1ebb;" horiz-adv-x="743" 
d="M416 1290q0 74 -73 74q-36 0 -75 -66l-57 43q51 121 166 121q69 0 111 -41t42 -101t-60 -134t-71 -101l-84 19q10 37 56 94q45 57 45 92zM378 883q-68 0 -108 -85q-41 -85 -47 -200h309q2 139 -42 212t-112 73zM221 481q0 -369 234 -368q94 0 163 37l27 -115
q-90 -47 -219 -47q-174 0 -267 133t-93 367t93 376t238 142t216 -126t71 -309q0 -41 -4 -90h-459z" />
    <glyph glyph-name="uni1EBC" unicode="&#x1ebc;" horiz-adv-x="724" 
d="M281 1663q47 0 108 -36t84 -36q23 1 35 17t16 59h82q4 -184 -127 -184q-49 0 -100 35q-57 33 -76 32q-41 0 -49 -80h-84q-2 88 31 140t80 53zM627 788v-133h-346v-518h393v-137h-551v1380h526v-137h-368v-455h346z" />
    <glyph glyph-name="uni1EBD" unicode="&#x1ebd;" horiz-adv-x="743" 
d="M267 1341q51 1 111 -35t81 -36q49 0 51 73h84q0 -182 -129 -182q-39 0 -100 35t-78 35q-43 0 -49 -82h-88q-2 84 31 138q34 54 86 54zM378 883q-68 0 -108 -85q-41 -85 -47 -200h309q2 139 -42 212t-112 73zM221 481q0 -369 234 -368q94 0 163 37l27 -115
q-90 -47 -219 -47q-174 0 -267 133t-93 367t93 376t238 142t216 -126t71 -309q0 -41 -4 -90h-459z" />
    <glyph glyph-name="uni1EBE" unicode="&#x1ebe;" horiz-adv-x="724" 
d="M670 1806h164l-205 -207h-94zM332 1655h123l157 -201h-129l-88 117h-4l-90 -117h-125zM627 788v-133h-346v-518h393v-137h-551v1380h526v-137h-368v-455h346z" />
    <glyph glyph-name="uni1EBF" unicode="&#x1ebf;" horiz-adv-x="743" 
d="M653 1520h140l-158 -240h-84zM346 1397h113l127 -277h-113l-67 172h-7l-65 -172h-115zM378 883q-68 0 -108 -85q-41 -85 -47 -200h309q2 139 -42 212t-112 73zM221 481q0 -369 234 -368q94 0 163 37l27 -115q-90 -47 -219 -47q-174 0 -267 133t-93 367t93 376t238 142
t216 -126t71 -309q0 -41 -4 -90h-459z" />
    <glyph glyph-name="uni1EC0" unicode="&#x1ec0;" horiz-adv-x="724" 
d="M319 1655h123l158 -201h-129l-88 117h-4l-90 -117h-125zM416 1776h164l135 -205h-94zM627 788v-133h-346v-518h393v-137h-551v1380h526v-137h-368v-455h346z" />
    <glyph glyph-name="uni1EC1" unicode="&#x1ec1;" horiz-adv-x="743" 
d="M346 1397h111l127 -277h-113l-65 172h-9l-65 -172h-115zM457 1522h139l92 -240h-84zM378 883q-68 0 -108 -85q-41 -85 -47 -200h309q2 139 -42 212t-112 73zM221 481q0 -369 234 -368q94 0 163 37l27 -115q-90 -47 -219 -47q-174 0 -267 133t-93 367t93 376t238 142
t216 -126t71 -309q0 -41 -4 -90h-459z" />
    <glyph glyph-name="uni1EC2" unicode="&#x1ec2;" horiz-adv-x="724" 
d="M657 1711q0 61 -59 63q-45 0 -86 -66l-53 41q55 115 168 115q57 0 97 -36t40 -88t-58 -118t-67 -82l-74 19q10 31 51 77t41 75zM326 1655h125l157 -201h-129l-90 117h-4l-88 -117h-127zM627 788v-133h-344v-518h393v-137h-551v1380h524v-137h-366v-455h344z" />
    <glyph glyph-name="uni1EC3" unicode="&#x1ec3;" horiz-adv-x="743" 
d="M635 1447q0 62 -67 62q-34 0 -76 -63l-54 41q55 115 164 115q60 0 102 -38t42 -84t-20 -75q-19 -29 -52 -63t-49 -62l-80 16q10 31 50 76t40 75zM330 1397h112l127 -277h-112l-68 172h-6l-68 -172h-114zM378 883q-68 0 -108 -85q-41 -85 -47 -200h309q2 139 -42 212
t-112 73zM221 481q0 -369 234 -368q94 0 163 37l27 -115q-90 -47 -219 -47q-174 0 -267 133t-93 367t93 376t238 142t216 -126t71 -309l-2 -90h-461z" />
    <glyph glyph-name="uni1EC4" unicode="&#x1ec4;" horiz-adv-x="724" 
d="M292 1853q48 -1 109 -35t82 -34q49 0 52 71h83q0 -174 -129 -174q-39 0 -97 35t-79 35q-41 0 -51 -72h-84q-2 72 32 123t82 51zM326 1655h135l178 -201h-137l-107 113h-4l-106 -113h-135zM627 788v-133h-346v-518h393v-137h-551v1380h526v-137h-368v-455h346z" />
    <glyph glyph-name="uni1EC5" unicode="&#x1ec5;" horiz-adv-x="743" 
d="M296 1526q48 0 108 -34t83 -34q49 0 52 72h84q0 -174 -129 -174q-36 0 -96 35t-81 34q-41 1 -51 -71h-84q-2 72 32 122t82 50zM344 1331h109l155 -213h-125l-84 123h-4l-82 -123h-125zM378 883q-68 0 -108 -85q-41 -85 -47 -200h309q2 139 -42 212t-112 73zM221 481
q0 -369 234 -368q94 0 163 37l27 -115q-90 -47 -219 -47q-174 0 -267 133t-93 367t93 376t238 142t216 -126t71 -309q0 -41 -4 -90h-459z" />
    <glyph glyph-name="uni1EC6" unicode="&#x1ec6;" horiz-adv-x="724" 
d="M388 -346q-38 0 -64 27t-27 65q0 38 27 64q28 26 66 26t64 -26t26 -65t-28 -65q-26 -26 -64 -26zM319 1655h136l178 -201h-137l-107 113h-4l-106 -113h-136zM627 788v-133h-346v-518h393v-137h-551v1380h526v-137h-368v-455h346z" />
    <glyph glyph-name="uni1EC7" unicode="&#x1ec7;" horiz-adv-x="743" 
d="M274 -254q0 38 27 66q27 26 64 26t63 -26t25 -66q0 -40 -25 -66q-24 -26 -62 -26t-65 27t-27 65zM317 1397h107l162 -277h-119l-94 178h-4l-95 -178h-118zM378 885q-68 0 -108 -86q-41 -86 -47 -201h309q2 139 -42 213t-112 74zM221 481q0 -369 234 -368q94 0 163 37
l27 -115q-90 -47 -219 -47q-174 0 -267 133t-93 369t93 376q93 142 238 142t216 -126t71 -311q0 -41 -4 -90h-459z" />
    <glyph glyph-name="uni1EC8" unicode="&#x1ec8;" horiz-adv-x="407" 
d="M246 1620q0 31 -16 47t-44 16q-45 0 -86 -65l-57 43q55 119 174 119q61 0 102 -38t41 -85t-19 -79t-54 -66t-51 -66l-84 18q12 31 53 78t41 78zM123 1380h158v-1380h-158v1380z" />
    <glyph glyph-name="uni1EC9" unicode="&#x1ec9;" horiz-adv-x="376" 
d="M233 1292q0 74 -65 74q-45 0 -80 -66l-59 43q55 121 168 121q69 0 111 -41t42 -101t-60 -134t-71 -101l-84 19q10 37 54 94t44 92zM268 0h-157v991h157v-991z" />
    <glyph glyph-name="uni1ECA" unicode="&#x1eca;" horiz-adv-x="407" 
d="M295 -255q-1 -39 -27 -65t-64 -26t-65 27t-27 65t27 64t66 26t65 -26t25 -65zM123 1380h158v-1380h-158v1380z" />
    <glyph glyph-name="uni1ECB" unicode="&#x1ecb;" horiz-adv-x="376" 
d="M92 -256q0 40 26 66t65 26q38 0 63 -26q24 -26 24 -65q0 -40 -24 -66q-24 -25 -63 -25t-65 26t-26 64zM94 1248q0 44 26 73t68 29q41 0 67 -28t26 -75t-26 -75t-68 -28q-41 0 -67 30t-26 74zM268 0h-157v991h157v-991z" />
    <glyph glyph-name="uni1ECC" unicode="&#x1ecc;" horiz-adv-x="913" 
d="M547 -255q-1 -39 -27 -65t-64 -26t-65 27t-27 65t27 64t66 26t65 -26t25 -65zM450 1257q-72 0 -127 -86q-92 -146 -94 -481q0 -227 53 -397t179 -170q174 0 213 366q10 93 10 201t-10 202t-35 179q-25 86 -71 136t-118 50zM66 689q0 339 110 523t291 185t281 -183
t100 -534t-110 -522q-110 -174 -288 -174t-281 183t-103 522z" />
    <glyph glyph-name="uni1ECD" unicode="&#x1ecd;" horiz-adv-x="784" 
d="M295 -256q1 40 27 66t63 26t63 -26t25 -66q-1 -39 -25 -66q-24 -26 -62 -26t-64 26t-27 66zM225 494q0 -388 178 -386q57 0 97 68q61 106 61 307q0 266 -84 360q-35 38 -84 38q-126 0 -161 -259q-7 -60 -7 -128zM400 1006q140 0 230 -132t89 -386q0 -256 -98 -380
q-97 -124 -235 -124t-228 130t-90 382t96 381t236 129z" />
    <glyph glyph-name="uni1ECE" unicode="&#x1ece;" horiz-adv-x="913" 
d="M498 1620q0 31 -16 47t-44 16q-45 0 -86 -65l-57 43q59 119 174 119q61 0 103 -38t42 -85t-20 -78t-56 -67t-51 -66l-81 18q10 31 51 78t41 78zM450 1257q-72 0 -127 -86q-92 -146 -94 -481q0 -227 53 -397t179 -170q174 0 213 366q10 93 10 201t-10 202t-35 179
q-25 86 -71 136t-118 50zM66 689q0 339 110 523t291 185t281 -183t100 -534t-110 -522q-110 -174 -288 -174t-281 183t-103 522z" />
    <glyph glyph-name="uni1ECF" unicode="&#x1ecf;" horiz-adv-x="784" 
d="M436 1294q0 66 -65 68q-45 0 -82 -66l-58 45q55 121 168 121q68 0 111 -41t43 -101q1 -60 -59 -134t-72 -101l-86 17q10 39 55 96t45 96zM225 494q0 -388 178 -386q57 0 97 68q61 106 61 307q0 266 -84 360q-35 38 -84 38q-126 0 -161 -259q-7 -60 -7 -128zM400 1006
q140 0 230 -132t89 -386q0 -256 -98 -380q-97 -124 -235 -124t-228 130t-90 382t96 381t236 129z" />
    <glyph glyph-name="uni1ED0" unicode="&#x1ed0;" horiz-adv-x="913" 
d="M748 1806h163l-204 -207h-95zM410 1655h122l158 -201h-127l-90 117h-4l-90 -117h-125zM457 1257q-223 0 -228 -567q0 -227 53 -397t179 -170q174 0 213 366q10 95 10 203t-10 200t-35 179q-25 86 -72 136t-110 50zM66 689q0 339 110 523t290 185q179 1 279 -183
q99 -184 101 -534t-108 -522q-110 -174 -288 -174t-281 183t-103 522z" />
    <glyph glyph-name="uni1ED1" unicode="&#x1ed1;" horiz-adv-x="784" 
d="M649 1520h139l-157 -240h-84zM344 1397h111l127 -277h-113l-66 172h-8l-65 -172h-115zM225 494q0 -388 178 -386q57 0 97 68q61 106 61 307q0 266 -84 360q-35 38 -84 38q-126 0 -161 -259q-7 -60 -7 -128zM400 1006q140 0 230 -132t89 -386q0 -256 -98 -380
q-97 -124 -235 -124t-228 130t-90 382t96 381t236 129z" />
    <glyph glyph-name="uni1ED2" unicode="&#x1ed2;" horiz-adv-x="913" 
d="M403 1655h123l158 -201h-127l-90 117h-4l-90 -117h-125zM500 1776h164l135 -205h-94zM450 1257q-72 0 -127 -86q-92 -146 -94 -481q0 -227 53 -397t179 -170q174 0 213 366q10 95 10 203t-10 200t-35 179q-25 86 -71 136t-118 50zM66 689q0 339 110 523t291 185t281 -183
t100 -534t-110 -522q-110 -174 -288 -174t-281 183t-103 522z" />
    <glyph glyph-name="uni1ED3" unicode="&#x1ed3;" horiz-adv-x="784" 
d="M346 1397h111l129 -277h-115l-65 172h-9l-65 -172h-115zM457 1522h139l92 -240h-82zM225 494q0 -388 178 -386q57 0 97 68q61 106 61 307q0 266 -84 360q-35 38 -84 38q-126 0 -161 -259q-7 -60 -7 -128zM400 1006q140 0 230 -132t89 -386q0 -256 -98 -380
q-97 -124 -235 -124t-228 130t-90 382t96 381t236 129z" />
    <glyph glyph-name="uni1ED4" unicode="&#x1ed4;" horiz-adv-x="913" 
d="M731 1711q0 61 -57 63q-45 0 -88 -64l-54 39q59 115 170 115q56 0 96 -36t40 -82t-20 -77t-53 -65q-34 -34 -50 -62l-74 17q10 31 50 77t40 75zM401 1655h123l158 -201h-127l-90 117h-4l-90 -117h-125zM450 1257q-72 0 -127 -86q-92 -146 -94 -481q0 -227 53 -397
t179 -170q174 0 213 366q10 93 10 201t-10 202t-35 179q-25 86 -71 136t-118 50zM66 689q0 339 110 523t291 185t281 -183t100 -534t-110 -522q-110 -174 -288 -174t-281 183t-103 522z" />
    <glyph glyph-name="uni1ED5" unicode="&#x1ed5;" horiz-adv-x="784" 
d="M647 1447q0 62 -66 62q-34 0 -77 -63l-53 41q55 115 163 115q60 0 102 -38t42 -84t-20 -75t-53 -63q-34 -34 -50 -62l-78 16q10 31 50 76t40 75zM342 1397h111l129 -277h-115l-66 172h-6l-67 -172h-115zM225 494q0 -388 178 -386q57 0 97 68q61 106 61 307q0 266 -84 360
q-35 38 -84 38q-126 0 -161 -259q-7 -60 -7 -128zM400 1006q140 0 230 -132t89 -386q0 -256 -98 -380q-97 -124 -235 -124t-228 130t-90 382t96 381t236 129z" />
    <glyph glyph-name="uni1ED6" unicode="&#x1ed6;" horiz-adv-x="913" 
d="M360 1853q48 -1 109 -35t82 -34q49 0 51 71h84q0 -174 -129 -174q-39 0 -97 35t-79 35q-41 0 -51 -72h-84q-2 72 32 123t82 51zM393 1655h135l179 -201h-138l-106 113h-4l-107 -113h-135zM450 1257q-72 0 -127 -86q-92 -146 -94 -481q0 -227 53 -397t179 -170
q174 0 213 366q10 93 10 201t-10 202t-35 179q-25 86 -71 136t-118 50zM66 689q0 339 110 523t291 185t281 -183t100 -534t-110 -522q-110 -174 -288 -174t-281 183t-103 522z" />
    <glyph glyph-name="uni1ED7" unicode="&#x1ed7;" horiz-adv-x="784" 
d="M292 1526q48 0 107 -34t84 -34q49 0 52 72h83q0 -174 -129 -174q-35 0 -95 35t-81 34q-41 1 -51 -71h-84q-2 72 32 122t82 50zM340 1331h109l155 -213h-125l-82 123h-4l-84 -123h-125zM225 494q0 -388 178 -386q57 0 97 68q61 106 61 307q0 266 -84 360q-35 38 -84 38
q-126 0 -161 -259q-7 -60 -7 -128zM400 1006q140 0 230 -132t89 -386q0 -256 -98 -380q-97 -124 -235 -124t-228 130t-90 382t96 381t236 129z" />
    <glyph glyph-name="uni1ED8" unicode="&#x1ed8;" horiz-adv-x="913" 
d="M547 -255q-1 -39 -27 -65t-64 -26t-65 27t-27 65t27 64t66 26t65 -26t25 -65zM391 1655h135l179 -201h-138l-106 113h-4l-107 -113h-135zM450 1257q-72 0 -127 -86q-92 -146 -94 -481q0 -227 53 -397t179 -170q174 0 213 366q10 93 10 201t-10 202t-35 179
q-25 86 -71 136t-118 50zM66 689q0 339 110 523t291 185t281 -183t100 -534t-110 -522q-110 -174 -288 -174t-281 183t-103 522z" />
    <glyph glyph-name="uni1ED9" unicode="&#x1ed9;" horiz-adv-x="784" 
d="M473 -254q-1 -40 -25 -66t-62 -26t-64 27t-27 65q1 38 27 66q26 26 63 26t63 -26t25 -66zM340 1397h106l162 -277h-119l-94 178h-4l-94 -178h-119zM225 494q0 -388 178 -386q57 0 97 68q61 106 61 307q0 266 -84 360q-35 38 -84 38q-126 0 -161 -259q-7 -60 -7 -128z
M400 1006q140 0 230 -132t89 -386q0 -256 -98 -380q-97 -124 -235 -124t-228 130t-90 382t96 381t236 129z" />
    <glyph glyph-name="uni1EDA" unicode="&#x1eda;" horiz-adv-x="913" 
d="M555 1675h186l-254 -221h-125zM893 1377q0 -73 -38 -120t-110 -45q103 -180 103 -530t-110 -524t-288 -174t-281 183t-103 522t110 523q111 184 295 185q81 0 178 -56q50 -28 68 -28q53 0 53 56t-31 122l121 20q33 -61 33 -134zM461 123q174 0 213 366q10 93 10 201
t-10 202t-35 179q-25 86 -71 136t-120 50t-127 -90q-55 -90 -73 -210q-18 -121 -20 -311t54 -356t179 -167z" />
    <glyph glyph-name="uni1EDB" unicode="&#x1edb;" horiz-adv-x="784" 
d="M473 1397h162l-215 -277h-105zM799 1005q0 -75 -40 -116t-114 -41q74 -128 74 -372t-98 -368q-97 -124 -235 -124t-228 130t-90 382t96 381t235 129q67 0 125 -30t92 -30q60 0 60 60t-31 116l119 19q35 -61 35 -136zM225 494q0 -388 178 -386q57 0 97 68q61 106 61 307
q0 266 -84 360q-35 38 -84 38q-126 0 -161 -259q-7 -60 -7 -128z" />
    <glyph glyph-name="uni1EDC" unicode="&#x1edc;" horiz-adv-x="913" 
d="M197 1675h186l192 -221h-124zM893 1377q0 -73 -38 -120t-110 -45q103 -180 103 -530t-110 -524t-288 -174t-281 183t-103 522t110 523q111 184 295 185q81 0 178 -56q50 -28 68 -28q53 0 53 56t-31 122l121 20q33 -61 33 -134zM461 123q174 0 213 366q10 93 10 201
t-10 202t-35 179q-25 86 -71 136t-120 50t-127 -90q-55 -90 -73 -210q-18 -121 -20 -311t54 -356t179 -167z" />
    <glyph glyph-name="uni1EDD" unicode="&#x1edd;" horiz-adv-x="784" 
d="M178 1397h162l158 -277h-105zM799 1005q0 -75 -40 -116t-114 -41q74 -128 74 -372t-98 -368q-97 -124 -235 -124t-228 130t-90 382t96 381t235 129q67 0 125 -30t92 -30q60 0 60 60t-31 116l119 19q35 -61 35 -136zM225 494q0 -388 178 -386q57 0 97 68q61 106 61 307
q0 266 -84 360q-35 38 -84 38q-126 0 -161 -259q-7 -60 -7 -128z" />
    <glyph glyph-name="uni1EDE" unicode="&#x1ede;" horiz-adv-x="913" 
d="M498 1620q0 31 -16 47t-44 16q-45 0 -86 -65l-57 43q59 119 174 119q61 0 103 -38t42 -85t-20 -78t-56 -67t-51 -66l-81 18q10 31 51 78t41 78zM893 1377q0 -73 -38 -120t-110 -45q103 -180 103 -530t-110 -524t-288 -174t-281 183t-103 522t110 523q111 184 295 185
q81 0 178 -56q50 -28 68 -28q53 0 53 56t-31 122l121 20q33 -61 33 -134zM461 123q174 0 213 366q10 93 10 201t-10 202t-35 179q-25 86 -71 136t-120 50t-127 -90q-55 -90 -73 -210q-18 -121 -20 -311t54 -356t179 -167z" />
    <glyph glyph-name="uni1EDF" unicode="&#x1edf;" horiz-adv-x="784" 
d="M436 1289q0 34 -18 53q-18 20 -55 20t-74 -66l-58 45q51 121 168 121q68 0 111 -41t43 -101q1 -60 -59 -134t-72 -101l-86 17q10 39 55 96t45 91zM799 1004q0 -74 -40 -115t-114 -41q74 -128 74 -372t-98 -368q-97 -124 -235 -124t-228 130t-90 382t96 381t235 129
q67 0 125 -30t92 -30q59 0 60 64q0 53 -31 110l119 19q35 -61 35 -135zM225 494q0 -388 178 -386q57 0 97 68q61 106 61 307q0 266 -84 360q-35 38 -84 38q-126 0 -161 -259q-7 -60 -7 -128z" />
    <glyph glyph-name="uni1EE0" unicode="&#x1ee0;" horiz-adv-x="913" 
d="M541 1591q25 1 37 17t16 59h82q4 -184 -129 -186q-43 0 -99 35t-75 34q-41 0 -49 -80h-84q-2 86 30 139q33 52 80 53t109 -34q57 -37 82 -37zM893 1378q0 -74 -38 -121t-110 -45q103 -182 103 -532t-110 -522q-110 -174 -288 -174t-281 183t-103 522t110 523
q111 184 295 185q78 0 153 -43t93 -43q53 0 53 56t-31 122l121 20q33 -57 33 -131zM461 123q174 0 213 366q10 95 10 203t-10 200t-35 179q-25 86 -72 136t-110 50t-111 -50q-114 -120 -117 -515q-3 -236 53 -402t179 -167z" />
    <glyph glyph-name="uni1EE1" unicode="&#x1ee1;" horiz-adv-x="784" 
d="M288 1341q52 1 111 -35t78 -36q49 0 51 73h84q0 -182 -129 -182q-48 0 -100 35t-76 35q-43 0 -49 -82h-88q-2 84 32 138t86 54zM799 1005q0 -75 -40 -116t-114 -41q74 -128 74 -372t-98 -368q-97 -124 -235 -124t-228 130t-90 382t96 381t235 129q65 0 123 -30t94 -30
q56 0 58 58t-29 116l119 21q35 -61 35 -136zM393 881q-126 0 -161 -259q-7 -60 -7 -128q0 -263 85 -350q36 -36 85 -36t84 38q53 55 75 222q7 60 7 127q0 254 -84 348q-35 38 -84 38z" />
    <glyph glyph-name="uni1EE2" unicode="&#x1ee2;" horiz-adv-x="913" 
d="M547 -255q-1 -39 -27 -65t-64 -26t-65 27t-27 65t27 64t66 26t65 -26t25 -65zM893 1377q0 -73 -38 -120t-110 -45q103 -180 103 -530t-110 -524t-288 -174t-281 183t-103 522t110 523q111 184 295 185q81 0 178 -56q50 -28 68 -28q53 0 53 56t-31 122l121 20
q33 -61 33 -134zM461 123q174 0 213 366q10 93 10 201t-10 202t-35 179q-25 86 -71 136t-120 50t-127 -90q-55 -90 -73 -210q-18 -121 -20 -311t54 -356t179 -167z" />
    <glyph glyph-name="uni1EE3" unicode="&#x1ee3;" horiz-adv-x="784" 
d="M301 -256q1 40 27 66t64 26t63 -26t25 -65q0 -40 -26 -66q-24 -25 -62 -25t-64 26t-27 64zM799 1004q0 -74 -40 -115t-114 -41q74 -128 74 -372t-98 -368q-97 -124 -235 -124t-228 130t-90 382t96 381t235 129q67 0 125 -30t92 -30q59 0 60 64q0 53 -31 110l119 19
q35 -61 35 -135zM225 494q0 -388 178 -386q57 0 97 68q61 106 61 307q0 266 -84 360q-35 38 -84 38q-126 0 -161 -259q-7 -60 -7 -128z" />
    <glyph glyph-name="uni1EE4" unicode="&#x1ee4;" horiz-adv-x="935" 
d="M468 -346q-38 0 -65 27t-27 65t27 64t66 26t65 -26t26 -65t-28 -65q-26 -26 -64 -26zM121 1380h158v-925q0 -332 186 -332q193 0 192 332v925h158v-901q0 -256 -94 -376t-258 -119q-342 0 -342 477v919z" />
    <glyph glyph-name="uni1EE5" unicode="&#x1ee5;" horiz-adv-x="815" 
d="M309 -256q1 40 27 66t64 26t63 -26t25 -65q0 -40 -26 -66q-24 -25 -62 -25t-64 26t-27 64zM348 -16q-242 0 -242 381v626h158v-604q0 -131 29 -201t97 -70t105 44q36 43 44 83t8 95v653h158v-721l8 -270h-138l-12 104h-4q-27 -44 -83 -82t-128 -38z" />
    <glyph glyph-name="uni1EE6" unicode="&#x1ee6;" horiz-adv-x="935" 
d="M510 1620q0 63 -59 63q-45 0 -86 -65l-58 43q59 119 174 119q61 0 103 -38t41 -85q1 -47 -19 -79t-55 -66t-51 -66l-82 18q10 31 51 78t41 78zM121 1380h158v-925q0 -332 186 -332q193 0 192 332v925h158v-901q0 -256 -94 -376t-258 -119q-342 0 -342 477v919z" />
    <glyph glyph-name="uni1EE7" unicode="&#x1ee7;" horiz-adv-x="815" 
d="M451 1292q0 74 -74 74q-37 0 -72 -66l-59 43q55 121 168 121q66 0 110 -41t43 -101q1 -60 -59 -134t-72 -101l-86 19q10 37 56 94q45 57 45 92zM348 -16q-242 0 -242 381v626h158v-604q0 -131 29 -201t97 -70t105 44q36 43 44 83t8 95v653h158v-721l8 -270h-138l-12 104
h-4q-27 -44 -83 -82t-128 -38z" />
    <glyph glyph-name="uni1EE8" unicode="&#x1ee8;" horiz-adv-x="970" 
d="M569 1675h187l-254 -221h-125zM981 1436q0 -147 -145 -154l-21 -2v-801q0 -256 -94 -376t-258 -119q-342 0 -342 477v919h158v-925q0 -332 186 -332q193 0 192 332v925h127q42 0 58 14t16 58q0 45 -27 98l121 19q29 -66 29 -133z" />
    <glyph glyph-name="uni1EE9" unicode="&#x1ee9;" horiz-adv-x="815" 
d="M506 1397h162l-215 -277h-105zM106 365v626h158v-604q0 -131 29 -202t97 -69t105 44q36 43 44 83t8 95v653h119q41 -1 56 15q16 16 16 62t-29 97l120 21q33 -57 33 -128q0 -149 -145 -157h-12v-633l8 -268h-138l-12 102h-4q-27 -45 -83 -82t-128 -36q-242 0 -242 381z
" />
    <glyph glyph-name="uni1EEA" unicode="&#x1eea;" horiz-adv-x="970" 
d="M178 1675h187l192 -221h-125zM981 1436q0 -147 -145 -154l-21 -2v-801q0 -256 -94 -376t-258 -119q-342 0 -342 477v919h158v-925q0 -332 186 -332q193 0 192 332v925h127q42 0 58 14t16 58q0 45 -27 98l121 19q29 -66 29 -133z" />
    <glyph glyph-name="uni1EEB" unicode="&#x1eeb;" horiz-adv-x="815" 
d="M176 1397h162l158 -277h-105zM106 365v626h158v-604q0 -131 29 -202t97 -69t105 44q36 43 44 83t8 95v653h119q41 -1 56 15q16 16 16 62t-29 97l120 21q33 -57 33 -128q0 -149 -145 -157h-12v-633l8 -268h-138l-12 102h-4q-27 -45 -83 -82t-128 -36q-242 0 -242 381z" />
    <glyph glyph-name="uni1EEC" unicode="&#x1eec;" horiz-adv-x="970" 
d="M526 1620q0 63 -59 63q-43 0 -84 -65l-57 43q55 119 172 119q61 0 103 -39t42 -85t-20 -78q-21 -32 -55 -66t-50 -66l-84 18q10 31 51 78t41 78zM981 1436q0 -147 -145 -154l-21 -2v-801q0 -256 -94 -376t-258 -119q-342 0 -342 477v919h158v-925q0 -332 186 -332
q193 0 192 332v925h127q42 0 58 14t16 58q0 45 -27 98l121 19q29 -66 29 -133z" />
    <glyph glyph-name="uni1EED" unicode="&#x1eed;" horiz-adv-x="815" 
d="M469 1292q-1 74 -73 74q-36 0 -74 -66l-58 43q55 121 168 121q66 0 110 -41t44 -101t-60 -134t-71 -101l-86 19q10 37 55 94t45 92zM106 365v626h158v-604q0 -131 29 -202t97 -69t105 44q36 43 44 83t8 95v653h119q41 -1 56 15q16 16 16 61t-29 98l120 21q33 -57 33 -128
q0 -149 -145 -157h-12v-633l8 -268h-138l-12 102h-4q-27 -45 -83 -82t-128 -36q-242 0 -242 381z" />
    <glyph glyph-name="uni1EEE" unicode="&#x1eee;" horiz-adv-x="970" 
d="M380 1663q48 0 107 -36t82 -36q23 1 35 17t17 59h81q4 -184 -127 -184q-49 0 -101 34t-73 33q-41 0 -49 -80h-84q-2 88 31 140t81 53zM981 1436q0 -147 -145 -154l-21 -2v-801q0 -256 -94 -376t-258 -119q-342 0 -342 477v919h158v-925q0 -332 186 -332q193 0 192 332
v925h127q42 0 58 14t16 60q0 47 -27 96l121 21q29 -63 29 -135z" />
    <glyph glyph-name="uni1EEF" unicode="&#x1eef;" horiz-adv-x="815" 
d="M305 1341q51 1 113 -35t80 -36q49 0 51 73h84q0 -182 -129 -182q-38 0 -100 35t-78 35q-44 0 -50 -82h-88q-2 84 32 138t85 54zM106 365v626h158v-604q0 -131 29 -202t97 -69t105 44q36 43 44 83t8 95v653h119q41 -1 56 15q16 16 16 61t-29 98l120 19q33 -57 33 -127
q0 -148 -145 -156h-12v-633l8 -268h-138l-12 102h-4q-27 -45 -83 -82t-128 -36q-242 0 -242 381z" />
    <glyph glyph-name="uni1EF0" unicode="&#x1ef0;" horiz-adv-x="970" 
d="M389 -256q1 40 27 66t64 26t63 -26t25 -65q0 -40 -26 -66q-24 -25 -62 -25t-64 26t-27 64zM981 1436q0 -147 -145 -154l-21 -2v-801q0 -256 -94 -376t-258 -119q-342 0 -342 477v919h158v-925q0 -332 186 -332q193 0 192 332v925h127q42 0 58 14t16 58q0 45 -27 98
l121 19q29 -66 29 -133z" />
    <glyph glyph-name="uni1EF1" unicode="&#x1ef1;" horiz-adv-x="815" 
d="M305 -256q1 40 27 66t64 26t63 -26t25 -65q0 -40 -26 -66q-24 -25 -62 -25t-64 26t-27 64zM106 365v626h158v-604q0 -131 29 -202t97 -69t105 44q36 43 44 83t8 95v653h119q41 -1 56 15q16 16 16 61t-29 98l120 21q33 -57 33 -128q0 -149 -145 -157h-12v-633l8 -268h-138
l-12 102h-4q-27 -45 -83 -82t-128 -36q-242 0 -242 381z" />
    <glyph glyph-name="Ygrave" unicode="&#x1ef2;" horiz-adv-x="806" 
d="M127 1661h186l193 -221h-125zM481 0h-157v584l-306 796h168l123 -346q82 -242 103 -311h4q25 98 100 317l117 340h164l-316 -790v-590z" />
    <glyph glyph-name="ygrave" unicode="&#x1ef3;" horiz-adv-x="708" 
d="M127 1397h162l157 -277h-104zM25 991h165l134 -569q8 -35 20 -103t21 -102h4q31 172 41 203l118 571h156l-162 -637q-117 -467 -246 -639q-82 -104 -178 -149l-59 133q74 41 136 120t87 152t12 107z" />
    <glyph glyph-name="uni1EF4" unicode="&#x1ef4;" horiz-adv-x="806" 
d="M494 -255q0 -39 -27 -65t-65 -26t-64 27t-27 65q0 38 27 64q28 26 66 26t64 -26t26 -65zM481 0h-157v584l-306 796h168l123 -346q82 -242 103 -311h4q25 98 100 317l117 340h164l-316 -790v-590z" />
    <glyph glyph-name="uni1EF5" unicode="&#x1ef5;" horiz-adv-x="708" 
d="M505 -164q39 0 63 -26t24 -65q0 -40 -25 -66q-25 -25 -63 -25t-64 26q-27 26 -26 64q0 39 26 66q27 26 65 26zM27 991h163l134 -569q8 -35 20 -103t21 -102h4q26 143 41 203l118 571h156l-162 -637q-115 -469 -246 -639q-82 -104 -178 -149l-59 133q74 41 136 119t88 153
t13 105z" />
    <glyph glyph-name="uni1EF6" unicode="&#x1ef6;" horiz-adv-x="806" 
d="M444 1620q0 63 -59 63q-45 0 -86 -65l-57 43q59 119 174 119q61 0 103 -39t42 -85t-20 -78q-19 -32 -55 -66t-52 -66l-82 18q10 31 51 78t41 78zM481 0h-157v584l-306 796h168l123 -346q82 -242 103 -311h4q25 98 100 317l117 340h164l-316 -790v-590z" />
    <glyph glyph-name="uni1EF7" unicode="&#x1ef7;" horiz-adv-x="708" 
d="M401 1292q0 74 -72 74q-36 0 -75 -66l-57 43q55 121 168 121q69 0 111 -41t42 -101t-60 -134t-71 -101l-86 19q10 37 55 94t45 92zM25 991h165l134 -569q8 -35 20 -103t21 -102h4q31 172 41 203l118 571h156l-162 -637q-117 -467 -246 -639q-82 -104 -178 -149l-59 133
q74 41 136 120t87 152t12 107z" />
    <glyph glyph-name="uni1EF8" unicode="&#x1ef8;" horiz-adv-x="806" 
d="M298 1663q48 0 107 -36t82 -36q23 1 35 17t17 59h82q4 -184 -127 -184q-50 0 -102 34t-73 33q-41 0 -49 -80h-84q-2 88 31 140t81 53zM481 0h-157v584l-306 796h168l123 -346q82 -242 103 -311h4q25 98 100 317l117 340h164l-316 -790v-590z" />
    <glyph glyph-name="uni1EF9" unicode="&#x1ef9;" horiz-adv-x="708" 
d="M263 1341q51 1 111 -35t79 -36q49 0 51 73h84q0 -182 -129 -182q-49 0 -101 35t-75 35q-44 0 -50 -82h-88q-2 84 32 138t86 54zM25 991h165l134 -569q8 -35 20 -103t21 -102h4q31 172 41 203l118 571h156l-162 -637q-117 -467 -246 -639q-82 -104 -178 -149l-59 133
q74 41 136 120t87 152t12 107z" />
    <glyph glyph-name="uni2010" unicode="&#x2010;" horiz-adv-x="571" 
d="M61 596h449v-121h-449v121z" />
    <glyph glyph-name="endash" unicode="&#x2013;" horiz-adv-x="1024" 
d="M61 590h902v-113h-902v113z" />
    <glyph glyph-name="emdash" unicode="&#x2014;" horiz-adv-x="2048" 
d="M61 590h1926v-113h-1926v113z" />
    <glyph glyph-name="quoteleft" unicode="&#x2018;" horiz-adv-x="362" 
d="M205 934l-160 -21q33 121 88 261t96 210l95 15q-86 -238 -119 -465z" />
    <glyph glyph-name="quoteright" unicode="&#x2019;" horiz-adv-x="362" 
d="M160 1380l159 21q-33 -121 -88 -260t-96 -211l-94 -15q86 238 119 465z" />
    <glyph glyph-name="quotesinglbase" unicode="&#x201a;" horiz-adv-x="362" 
d="M135 -231l-94 -15q86 238 119 465l159 21q-33 -121 -88 -261t-96 -210z" />
    <glyph glyph-name="quotedblleft" unicode="&#x201c;" horiz-adv-x="628" 
d="M473 934l-160 -21q31 119 86 259t99 212l94 15q-86 -238 -119 -465zM201 934l-160 -21q33 123 89 263t97 208l92 15q-85 -238 -118 -465z" />
    <glyph glyph-name="quotedblright" unicode="&#x201d;" horiz-adv-x="628" 
d="M430 1380l160 21q-33 -123 -88 -262t-99 -209l-92 -15q86 238 119 465zM158 1380l159 21q-31 -119 -86 -258t-98 -213l-94 -15q86 238 119 465z" />
    <glyph glyph-name="quotedblbase" unicode="&#x201e;" horiz-adv-x="628" 
d="M403 -231l-92 -15q86 238 119 465l160 21q-34 -123 -90 -263t-97 -208zM133 -231l-94 -15q86 238 119 465l159 21q-31 -119 -86 -259t-98 -212z" />
    <glyph glyph-name="dagger" unicode="&#x2020;" horiz-adv-x="778" 
d="M317 1380h144l-12 -405l268 12v-137l-268 12l12 -962h-144l13 962l-269 -12v137l269 -12z" />
    <glyph glyph-name="daggerdbl" unicode="&#x2021;" horiz-adv-x="778" 
d="M317 1380h144l-10 -399l266 12v-137l-266 12v-442l266 14v-137l-266 12l10 -415h-144l9 415l-265 -12v137l267 -14v442l-267 -12v137l267 -12z" />
    <glyph glyph-name="bullet" unicode="&#x2022;" horiz-adv-x="526" 
d="M263 332q-83 0 -139 55t-56 141q-2 86 55 142t139 57q82 0 139 -56q57 -55 57 -141t-56 -142t-139 -56z" />
    <glyph glyph-name="ellipsis" unicode="&#x2026;" horiz-adv-x="2048" 
d="M1707 -16q-46 0 -76 32q-29 32 -29 85q0 52 30 86q31 34 76 34t74 -33q28 -33 28 -87t-28 -86q-29 -31 -75 -31zM1025 -16q-46 0 -76 32q-29 32 -29 85q0 52 30 86q31 34 76 34t74 -33q28 -33 28 -87t-28 -86q-29 -31 -75 -31zM343 -16q-46 0 -76 32q-29 32 -29 85
q0 52 30 86q31 34 76 34t74 -33q28 -33 28 -87t-28 -86q-29 -31 -75 -31z" />
    <glyph glyph-name="perthousand" unicode="&#x2030;" horiz-adv-x="1912" 
d="M1599 694q-67 0 -97 -91t-30 -215t30 -214t100 -90q128 0 128 305t-131 305zM1606 793q110 0 178 -111q68 -110 68 -300t-74 -293q-72 -103 -180 -103t-177 108t-69 294q0 185 71 295q72 110 183 110zM1006 694q-68 0 -98 -91t-29 -214q0 -305 130 -305t130 305t-133 305
zM1013 793q111 0 179 -111q68 -110 68 -300t-73 -293t-181 -103t-179 108q-69 108 -69 294q0 185 71 295q72 110 184 110zM354 -29h-102l711 1387h98zM309 1249q-67 0 -97 -91t-30 -214q0 -305 130 -305t130 305t-133 305zM308 541q-108 1 -178 109t-69 293q-1 185 71 295
t184 110t180 -110t68 -300t-74 -294q-74 -103 -182 -103z" />
    <glyph glyph-name="guilsinglleft" unicode="&#x2039;" horiz-adv-x="430" 
d="M389 874l-211 -358l211 -356h-129l-209 356l211 358h127z" />
    <glyph glyph-name="guilsinglright" unicode="&#x203a;" horiz-adv-x="430" 
d="M254 516l-211 358h127l211 -358l-209 -356h-129z" />
    <glyph glyph-name="fraction" unicode="&#x2044;" horiz-adv-x="223" 
d="M-186 -16h-101l697 1364h100z" />
    <glyph glyph-name="zero.superior" unicode="&#x2070;" horiz-adv-x="542" 
d="M270 946q111 0 111 307t-109 308q-53 0 -83 -81t-29 -225q-1 -309 110 -309zM266 844q-111 0 -171 110t-60 300t63 300t179 109q117 0 173 -110q56 -109 56 -305t-64 -300t-176 -104z" />
    <glyph glyph-name="four.superior" unicode="&#x2074;" horiz-adv-x="552" 
d="M319 1167v205q0 80 9 150h-4q-57 -115 -72 -142l-113 -209v-4h180zM434 854h-115v219h-301v72l295 514h121v-492h94v-94h-94v-219z" />
    <glyph glyph-name="five.superior" unicode="&#x2075;" horiz-adv-x="503" 
d="M449 1653v-109h-240l-27 -182q8 2 35 2q98 0 162 -57q80 -66 80 -187q0 -120 -76 -198q-77 -78 -187 -78t-169 37l24 96q61 -31 128 -31t111 42t44 118q0 166 -193 166q-18 0 -73 -6l49 387h332z" />
    <glyph glyph-name="six.superior" unicode="&#x2076;" horiz-adv-x="544" 
d="M383 1113q-1 169 -121 169q-60 0 -94 -78q-8 -20 -8 -55q0 -99 33 -155t83 -56t78 47t29 128zM444 1663v-102q-236 0 -282 -263h4q55 74 144 74t144 -67q54 -68 54 -185q0 -116 -60 -196t-172 -80q-110 0 -175 92t-64 240q0 223 114 355q113 132 293 132z" />
    <glyph glyph-name="seven.superior" unicode="&#x2077;" horiz-adv-x="466" 
d="M20 1653h439v-80l-281 -719h-123l277 688v2h-312v109z" />
    <glyph glyph-name="eight.superior" unicode="&#x2078;" horiz-adv-x="544" 
d="M276 1577q-44 0 -70 -33t-26 -82q0 -92 107 -139q82 47 82 135q0 53 -24 86t-69 33zM160 1071q0 -63 30 -101t83 -38q52 0 82 36t30 97q0 111 -121 166q-104 -51 -104 -160zM282 1663q93 0 148 -56t55 -137q0 -117 -112 -184v-4q135 -74 135 -209q0 -101 -67 -165
t-173 -64t-169 61q-62 61 -62 150q0 139 133 219v2q-106 68 -106 171t62 159q63 56 156 57z" />
    <glyph glyph-name="nine.superior" unicode="&#x2079;" horiz-adv-x="536" 
d="M375 1386q0 72 -30 128t-78 55q-48 0 -79 -46q-30 -46 -30 -124t28 -121t90 -43q60 0 91 63q8 16 8 88zM92 844v102q30 0 86 9t105 57q72 68 92 198h-4q-49 -63 -137 -63q-88 -1 -144 65q-55 66 -55 176t65 193q66 82 174 82t166 -91q59 -91 60 -237q0 -233 -123 -374
q-102 -117 -285 -117z" />
    <glyph glyph-name="parenleft.superior" unicode="&#x207d;" horiz-adv-x="325" 
d="M172 1236q0 -294 133 -501h-92q-141 197 -141 499t141 499h92q-133 -203 -133 -497z" />
    <glyph glyph-name="parenright.superior" unicode="&#x207e;" horiz-adv-x="325" 
d="M254 1239q0 -299 -143 -504h-93q134 207 134 499t-134 499h93q143 -195 143 -494z" />
    <glyph glyph-name="zero.inferior" unicode="&#x2080;" horiz-adv-x="542" 
d="M270 -209q111 0 111 307t-109 308q-53 0 -83 -81t-29 -225q-1 -309 110 -309zM266 -311q-111 -1 -171 109t-60 300t63 300t179 110q117 0 173 -110t56 -306t-64 -299q-64 -104 -176 -104z" />
    <glyph glyph-name="one.inferior" unicode="&#x2081;" horiz-adv-x="434" 
d="M322 -301h-123v682h-4l-150 -80l-22 98l192 99h107v-799z" />
    <glyph glyph-name="two.inferior" unicode="&#x2082;" horiz-adv-x="501" 
d="M315 272q-1 132 -129 130q-64 0 -129 -56l-34 90q75 72 193 72t174 -62t56 -157q0 -156 -210 -404l-62 -75v-5h285v-106h-455v59l84 103q76 94 110 139t75 126q42 82 42 146z" />
    <glyph glyph-name="three.inferior" unicode="&#x2083;" horiz-adv-x="481" 
d="M297 298q1 112 -117 112q-60 0 -119 -43l-26 88q80 53 178 53q99 0 153 -53t54 -133q0 -131 -129 -183v-4q61 -14 107 -67q46 -52 47 -146t-73 -164t-188 -70q-112 0 -182 46l27 94q66 -41 136 -41t111 38t41 105q0 156 -180 156h-16v86h12q55 0 110 35q54 35 54 91z" />
    <glyph glyph-name="four.inferior" unicode="&#x2084;" horiz-adv-x="552" 
d="M319 12v205q0 80 9 150h-4q-37 -78 -72 -142l-113 -209v-4h180zM434 -301h-115v219h-301v72l295 514h121v-492h94v-94h-94v-219z" />
    <glyph glyph-name="five.inferior" unicode="&#x2085;" horiz-adv-x="503" 
d="M449 498v-109h-240l-27 -182q8 2 35 2q98 0 162 -57q80 -66 80 -187t-76 -199q-77 -78 -187 -77q-110 0 -169 37l24 96q61 -31 128 -31t111 42t44 118q0 166 -193 166q-18 0 -73 -6l49 387h332z" />
    <glyph glyph-name="six.inferior" unicode="&#x2086;" horiz-adv-x="544" 
d="M383 -42q-1 169 -121 169q-60 0 -94 -78q-8 -20 -8 -55q0 -98 33 -154t83 -57q50 0 78 47t29 128zM444 508v-102q-236 0 -282 -263h4q55 74 144 74t144 -67q54 -68 54 -185t-60 -197t-172 -79q-110 0 -175 92t-64 239q0 223 119 363q110 125 288 125z" />
    <glyph glyph-name="seven.inferior" unicode="&#x2087;" horiz-adv-x="466" 
d="M20 498h439v-80l-281 -719h-123l277 688v2h-312v109z" />
    <glyph glyph-name="eight.inferior" unicode="&#x2088;" horiz-adv-x="544" 
d="M276 422q-44 0 -70 -33t-26 -82q0 -92 107 -139q82 47 82 135q0 53 -24 86t-69 33zM160 -84q0 -63 30 -101t83 -38q52 0 82 36t30 97q0 111 -121 166q-104 -51 -104 -160zM282 508q93 0 148 -56t55 -137q0 -117 -112 -184v-4q135 -74 135 -209q0 -102 -67 -166t-173 -63
q-106 0 -169 61q-62 61 -62 150q0 139 133 219v2q-106 68 -106 171q0 104 62 160q63 56 156 56z" />
    <glyph glyph-name="nine.inferior" unicode="&#x2089;" horiz-adv-x="536" 
d="M375 231q0 71 -30 127t-78 56t-79 -46q-30 -46 -30 -124t28 -121t90 -43q60 0 91 63q8 16 8 88zM92 -209q30 0 86 9t105 59q70 63 92 196h-4q-53 -63 -139 -63t-142 66q-55 66 -55 176t65 192q66 82 174 82t166 -91q59 -91 60 -237q0 -233 -123 -375q-101 -116 -285 -116
v102z" />
    <glyph glyph-name="parenleft.inferior" unicode="&#x208d;" horiz-adv-x="325" 
d="M172 81q0 -294 133 -501h-92q-141 197 -141 499t141 499h92q-133 -203 -133 -497z" />
    <glyph glyph-name="parenright.inferior" unicode="&#x208e;" horiz-adv-x="325" 
d="M254 84q0 -299 -143 -504h-93q134 207 134 499t-134 499h93q143 -195 143 -494z" />
    <glyph glyph-name="dong" unicode="&#x20ab;" horiz-adv-x="788" 
d="M514 578v178q0 28 -4 62t-39 72t-80 38q-73 0 -107 -72t-34 -182t34 -182q34 -70 99 -70q90 0 127 113q4 20 4 43zM514 1339h137v-137h82v-90h-82v-618q0 -41 6 -170h-116l-11 90h-6q-55 -100 -169 -100q-115 0 -183 94q-68 96 -68 269t76 267t178 94t154 -84h2v158h-195
v90h195v137zM147 219h508v-113h-508v113z" />
    <glyph glyph-name="Euro" unicode="&#x20ac;" horiz-adv-x="788" 
d="M555 -16q-174 0 -286 133t-134 403h-98v96h92v29q0 63 2 88h-96v96h104q27 242 144 380t288 139q98 0 174 -50l-34 -129q-59 41 -151 41t-157 -77q-84 -90 -106 -304h348v-96h-356q-2 -20 -2 -78v-39h358v-96h-352q29 -399 280 -399q84 0 160 45l27 -125
q-90 -57 -205 -57z" />
    <glyph glyph-name="uni2113" unicode="&#x2113;" horiz-adv-x="811" 
d="M469 -20q-276 0 -283 385v24q-14 -12 -86 -70l-49 82q78 61 135 119v498q0 434 252 434q92 0 152 -71t59 -201q0 -328 -309 -668v-72q0 -184 42 -254t130 -70t178 105l72 -74q-43 -75 -121 -121t-172 -46zM340 1024v-352q186 256 186 504q0 150 -84 149q-102 0 -102 -301
z" />
    <glyph glyph-name="uni2116" unicode="&#x2116;" horiz-adv-x="1443" 
d="M262 0h-139v1366h145l240 -643q111 -293 168 -477h2q-16 348 -16 626v494h137v-1366h-148l-245 657q-74 190 -156 465h-2q14 -258 14 -647v-475zM1350 481h-424v97h424v-97zM1135 1247q-59 0 -88 -77t-29 -171t30 -169t89 -74q121 0 121 246t-123 245zM1145 1339
q238 0 237 -338q0 -174 -70 -256q-70 -81 -178 -81q-106 0 -174 87t-67 251q-1 164 71 250q72 87 181 87z" />
    <glyph glyph-name="trademark" unicode="&#x2122;" horiz-adv-x="1042" 
d="M561 1307q0 -55 -4 -158l-16 -326h-92l32 557h148l67 -264q18 -88 29 -141h2q27 131 29 137l69 268h142l32 -557h-96l-16 326q0 35 -4 158h-4q-23 -119 -35 -166l-74 -310h-100l-74 318q-6 37 -31 158h-4zM51 1380h365v-88h-133v-469h-101v469h-131v88z" />
    <glyph glyph-name="Omega" unicode="&#x2126;" horiz-adv-x="966" 
d="M696 135h203v-135h-362v106q86 94 135 268t48 365q-1 190 -51 344q-57 174 -196 174q-74 1 -130 -83q-97 -145 -97 -433q0 -176 52 -362t130 -273v-106h-360v135h200v6q-82 115 -134 278t-52 345q0 293 116 463t297 170t284 -169t104 -454q1 -190 -53 -358t-134 -275v-6z
" />
    <glyph glyph-name="estimated" unicode="&#x212e;" horiz-adv-x="1673" 
d="M1323 696v377q0 25 -20 45q-195 195 -465 195t-465 -201q-20 -20 -21 -47v-369q0 -10 10 -10h951q10 0 10 10zM1602 647h-1240q-10 0 -10 -8v-375q0 -20 19 -43q190 -203 478 -203t482 228h113q-106 -125 -266 -197t-340 -72q-317 0 -542 202q-224 202 -224 487
q0 284 224 486t542 202t540 -202q223 -202 224 -486v-19z" />
    <glyph glyph-name="partialdiff" unicode="&#x2202;" horiz-adv-x="768" 
d="M375 115q90 -1 160 155t75 371q-53 139 -154 139t-168 -110t-67 -265q0 -156 43 -223t111 -67zM356 1491q172 0 295 -177q123 -178 123 -552t-125 -576t-291 -202q-133 0 -214 108t-81 320q1 212 107 354t242 143q136 0 206 -110h3v37q0 256 -83 388t-198 132t-197 -62
l-47 107q133 90 260 90z" />
    <glyph glyph-name="Delta" unicode="&#x2206;" horiz-adv-x="843" 
d="M647 135l-158 678q-43 190 -67 346h-6q-23 -141 -68 -342l-155 -682h454zM803 0h-764v90l303 1253h162l299 -1251v-92z" />
    <glyph glyph-name="product" unicode="&#x220f;" horiz-adv-x="919" 
d="M899 1192h-123v-1376h-145v1376h-348v-1376h-146v1376h-123v139h885v-139z" />
    <glyph glyph-name="summation" unicode="&#x2211;" horiz-adv-x="780" 
d="M774 -184h-754v104l379 651l-358 656v104h686v-135h-496v-8l330 -608l-358 -619v-8h571v-137z" />
    <glyph glyph-name="minus" unicode="&#x2212;" horiz-adv-x="1220" 
d="M82 604h1057v-112h-1057v112z" />
    <glyph glyph-name="uni2215" unicode="&#x2215;" horiz-adv-x="223" 
d="M-186 -16h-101l697 1364h100z" />
    <glyph glyph-name="uni2219" unicode="&#x2219;" horiz-adv-x="397" 
d="M303 530q-1 -52 -29 -84t-74 -32t-76 32t-30 82q0 51 31 85t76 34t73 -32t29 -85z" />
    <glyph glyph-name="radical" unicode="&#x221a;" horiz-adv-x="1085" 
d="M1061 1690l-406 -1883h-112l-264 875l-146 -53l-33 92l262 96l193 -670q35 -121 37 -165h2q10 82 27 163l321 1545h119z" />
    <glyph glyph-name="infinity" unicode="&#x221e;" horiz-adv-x="1484" 
d="M195 537q0 -77 50 -129q49 -52 117 -52t130 35t90 62q29 27 86 86q-10 8 -60 57q-50 50 -72 68t-68 40t-89 21q-78 0 -131 -55t-53 -133zM1292 541q0 78 -50 131t-118 53t-128 -35q-60 -36 -90 -64t-87 -87q9 -9 59 -57t72 -65t69 -39q45 -22 107 -22t114 54t52 131z
M350 244q-110 0 -192 84t-82 209t87 213t218 88q66 0 109 -22l56 -28q40 -20 86 -63t51 -47t32 -32t28 -30q57 57 81 80q102 97 170 119q69 22 128 23q127 0 208 -84t81 -210t-88 -213t-202 -87t-199 61q-25 19 -38 27t-39 33t-34 31t-36 35l-32 32q-125 -125 -203 -172
q-80 -47 -190 -47z" />
    <glyph glyph-name="integral" unicode="&#x222b;" horiz-adv-x="636" 
d="M514 1624q45 0 78 -14l-23 -109q-33 8 -55 8q-49 0 -82 -45q-53 -70 -53 -323l14 -967q0 -283 -78 -389q-61 -90 -178 -90q-51 0 -88 16l25 111q33 -8 55 -8q51 0 80 43q55 78 55 317l-14 977q0 297 96 401q66 72 168 72z" />
    <glyph glyph-name="approxequal" unicode="&#x2248;" horiz-adv-x="1220" 
d="M1036 253q-82 -42 -166 -42q-84 1 -131 17t-88 34t-51 22t-45 21t-77 33t-113 16q-129 0 -246 -112l-60 86q55 57 137 98t172 41q89 0 149 -26q24 -9 63 -26t51 -21t47 -21t77 -33q42 -17 113 -16q129 -1 244 114l62 -86q-56 -57 -138 -99zM1027 656q-83 -42 -169 -42
t-131 18t-84 34q-39 18 -51 22t-59 26q-93 44 -179 44q-127 0 -243 -113l-62 86q57 57 139 98t146 41t122 -12q59 -12 107 -34q49 -23 59 -27t58 -26q47 -22 94 -33t97 -11t118 34t115 81l59 -86q-53 -58 -136 -100z" />
    <glyph glyph-name="notequal" unicode="&#x2260;" horiz-adv-x="1220" 
d="M1139 293h-633l-162 -256h-121l162 256h-303v113h375l184 290h-559v113h631l161 256h123l-163 -256h305v-113h-377l-184 -290h561v-113z" />
    <glyph glyph-name="lessequal" unicode="&#x2264;" horiz-adv-x="1220" 
d="M1083 0h-946v109h946v-109zM1083 199l-946 399v111l946 399v-125l-794 -328v-4l794 -327v-125z" />
    <glyph glyph-name="greaterequal" unicode="&#x2265;" horiz-adv-x="1220" 
d="M1083 0h-946v109h946v-109zM1083 598l-946 -399v125l795 327v4l-795 328v125l946 -399v-111z" />
    <glyph glyph-name="lozenge" unicode="&#x25ca;" horiz-adv-x="970" 
d="M731 662l-227 509q-10 25 -21 58h-4q-4 -18 -20 -58l-221 -501l227 -510q12 -31 18 -58h6q4 20 21 58zM866 666l-323 -699h-117l-324 699l324 698h117z" />
    <glyph glyph-name="G_tildecomb" unicode="&#xe000;" horiz-adv-x="892" 
d="M427 1663q48 0 107 -36t82 -36q23 1 35 17t17 59h82q4 -184 -127 -184q-49 0 -101 34t-73 33q-40 0 -50 -80h-84q-2 88 31 140t81 53zM801 721v-686q-111 -47 -244 -47q-203 0 -326 133q-168 180 -165 551q2 371 155 546q154 175 365 175q123 0 194 -39l-35 -135
q-66 33 -157 32q-150 0 -254 -135t-104 -430t92 -429q94 -134 235 -134q72 0 96 16v451h-178v131h326z" />
    <glyph glyph-name="M_uni0302" unicode="&#xe001;" horiz-adv-x="1226" 
d="M545 1655h135l178 -201h-137l-107 113h-4l-106 -113h-135zM987 0l-29 594q-20 373 -14 541h-8q-51 -256 -111 -480l-168 -647h-102l-160 621q-72 272 -114 506h-7q2 -121 -16 -551l-27 -584h-141l82 1380h172l160 -630q82 -315 110 -476h7q29 170 102 476l156 630h176
l80 -1380h-148z" />
    <glyph glyph-name="N_uni0302" unicode="&#xe002;" horiz-adv-x="952" 
d="M408 1655h135l178 -201h-137l-107 113h-4l-106 -113h-136zM266 0h-141v1380h147l254 -647q137 -358 176 -481h5q-18 326 -19 635v493h141v-1380h-147l-262 664q-104 254 -166 469h-4q16 -246 16 -656v-477z" />
    <glyph glyph-name="g_tildecomb" unicode="&#xe005;" horiz-adv-x="817" 
d="M301 1341q51 1 113 -35t80 -36q49 0 51 73h84q0 -182 -129 -182q-38 0 -100 35t-78 35q-44 0 -50 -82h-88q-2 84 32 138t85 54zM457 362v287q0 45 -8 72q-37 150 -144 149q-84 0 -130 -102t-46 -276t49 -268t127 -93q104 0 141 141q11 39 11 90zM612 682v-555
q0 -185 -24 -279q-64 -256 -338 -258q-129 0 -217 50l37 122q82 -43 184 -43q203 0 203 304v100h-4q-51 -121 -187 -121t-215 135q-80 135 -80 372q1 237 95 367t214 130t189 -125h4l8 110h140q-9 -270 -9 -309z" />
    <glyph glyph-name="m_uni0302" unicode="&#xe006;" horiz-adv-x="1269" 
d="M582 1397h106l162 -277h-119l-94 178h-4l-94 -178h-119zM922 1006q106 0 172 -85t65 -266v-655h-155v621q0 117 -29 185t-111 68q-49 0 -89 -40q-62 -61 -62 -197v-637h-156v649q0 225 -137 225q-51 0 -93 -42q-41 -42 -51 -98q-10 -58 -10 -105v-629h-155v735l-9 256
h138l8 -123h4q74 138 226 138t204 -152h4q84 152 236 152z" />
    <glyph glyph-name="n_uni0302" unicode="&#xe007;" horiz-adv-x="829" 
d="M719 666v-666h-158v637q0 236 -137 235q-51 0 -92 -42q-64 -66 -64 -207v-623h-157v735l-9 256h138l8 -121h4q74 135 227 136q109 0 175 -84t65 -256zM360 1397h107l162 -277h-119l-94 178h-4l-95 -178h-118z" />
    <glyph glyph-name="zero.slashfitted" unicode="&#xe008;" horiz-adv-x="788" 
d="M733 665q0 -343 -95 -512t-249 -169q-111 0 -186 86l-47 -109l-78 43l69 150q-92 162 -92 505t92 516t259 173q106 0 180 -82l51 114l76 -37l-72 -157q92 -178 92 -521zM393 119q94 0 142 147q47 148 47 364t-31 351l-279 -766q45 -96 121 -96zM395 1212q-94 0 -141 -147
t-47 -363t31 -348l278 758q-43 100 -121 100z" />
    <glyph glyph-name="dong.alt" unicode="&#xe184;" horiz-adv-x="788" 
d="M514 578v178q0 28 -4 62t-39 72t-80 38q-73 0 -107 -72t-34 -182t34 -182q34 -70 99 -70q90 0 127 113q4 20 4 43zM514 1339h137v-137h82v-90h-82v-618q0 -41 6 -170h-116l-11 90h-6q-55 -100 -169 -100q-113 0 -181 94q-68 96 -68 269t75 267t177 94t154 -84h2v158h-195
v90h195v137z" />
    <glyph glyph-name="breve_acutecomb" unicode="&#xe300;" 
d="M308 1194q60 0 98 34q37 34 40 91h86q2 -103 -61 -165t-165 -62t-164 64q-60 65 -58 163h86q4 -55 41 -90t97 -35zM375 1511h151l-188 -235h-96z" />
    <glyph glyph-name="breve_gravecomb" unicode="&#xe301;" 
d="M307 1194q59 0 97 35t42 92h86q2 -101 -61 -165t-167 -64t-164 64q-60 65 -58 165h86q4 -57 42 -92t97 -35zM84 1511h149l134 -233h-97z" />
    <glyph glyph-name="breve_hookabovecomb" unicode="&#xe302;" 
d="M307 1192q59 0 97 35t42 92h86q2 -101 -61 -165t-167 -64t-164 64q-60 65 -58 165h86q4 -57 42 -92t97 -35zM344 1427q0 30 -17 46t-44 16q-45 0 -84 -64l-54 41q55 115 166 115q61 0 103 -37t43 -89q-1 -51 -57 -113t-68 -82l-80 16q10 31 51 76t41 75z" />
    <glyph glyph-name="breve_tildecomb" unicode="&#xe303;" 
d="M307 1192q59 0 96 36t41 93h84q2 -100 -59 -165q-61 -64 -163 -64t-164 64q-60 65 -58 165h84q4 -55 42 -92t97 -37zM203 1546q47 0 108 -35t82 -34q49 0 51 71h84q0 -174 -129 -174q-39 0 -97 35t-79 35q-35 0 -47 -51h-88q4 61 36 107t79 46z" />
    <glyph glyph-name="circumflex_acutecomb" unicode="&#xe304;" 
d="M557 1520h139l-157 -240h-84zM252 1397h110l127 -277h-112l-68 172h-6l-65 -172h-115z" />
    <glyph glyph-name="circumflex_gravecomb" unicode="&#xe305;" 
d="M252 1397h110l127 -277h-112l-66 172h-8l-65 -172h-115zM362 1522h138l94 -240h-84z" />
    <glyph glyph-name="circumflex_hookabovecomb" unicode="&#xe306;" 
d="M557 1447q0 62 -67 62q-33 0 -76 -63l-56 41q57 113 166 112q61 0 102 -36q40 -37 40 -89t-56 -114t-65 -80l-80 16q10 31 51 76t41 75zM252 1397h110l127 -277h-112l-66 172h-8l-65 -172h-115z" />
    <glyph glyph-name="circumflex_tildecomb" unicode="&#xe307;" 
d="M206 1526q48 0 107 -34t84 -34q49 0 52 72h83q0 -174 -129 -174q-35 0 -95 35t-81 34q-41 1 -51 -71h-84q-2 72 32 122t82 50zM254 1331h108l156 -213h-125l-82 123h-4l-84 -123h-125z" />
    <glyph glyph-name="space_dotbelowcomb" unicode="&#xe308;" 
d="M211 -256q1 40 27 66t64 26t63 -26t25 -65q0 -40 -26 -66q-24 -25 -62 -25t-64 26t-27 64z" />
    <glyph glyph-name="space_hookabovecomb" unicode="&#xe309;" 
d="M344 1291q0 73 -73 73q-37 0 -74 -66l-58 43q51 123 168 123q66 0 109 -41t43 -101q-1 -60 -59 -134t-70 -103l-86 19q10 39 55 96t45 91z" />
    <glyph glyph-name="space_uni031B" unicode="&#xe310;" 
d="M375 899v92h20q45 1 61 15t17 60q0 46 -29 99l121 19q33 -57 33 -129t-42 -114t-128 -42h-53z" />
    <glyph glyph-name="breve_acutecomb.cap" unicode="&#xe311;" 
d="M387 1792h162l-203 -205h-96zM312 1520q114 0 137 88h81q-12 -84 -72 -134t-150 -50t-146 48q-58 50 -68 136h82q22 -88 136 -88z" />
    <glyph glyph-name="breve_gravecomb.cap" unicode="&#xe312;" 
d="M306 1520q114 0 136 88h82q-12 -84 -71 -134t-149 -50t-148 48q-58 50 -68 136h82q22 -88 136 -88zM78 1792h164l137 -205h-96z" />
    <glyph glyph-name="breve_hookabovecomb.cap" unicode="&#xe313;" 
d="M310 1520q114 0 136 88h82q-12 -84 -71 -134t-149 -50t-148 48q-58 50 -70 136h84q22 -88 136 -88zM348 1735q0 31 -16 47t-41 16q-43 0 -88 -65l-53 39q55 115 167 114q57 0 97 -36t41 -82t-19 -76t-55 -64t-51 -63l-74 16q10 33 51 78t41 76z" />
    <glyph glyph-name="breve_tildecomb.cap" unicode="&#xe314;" 
d="M306 1520q114 0 136 88h82q-12 -84 -71 -134t-149 -50t-148 48q-58 50 -68 136h82q22 -88 136 -88zM204 1829q46 0 107 -34t86 -34q49 0 52 72h83q0 -174 -129 -174q-39 0 -98 37q-66 31 -78 30q-39 0 -47 -51h-88q4 63 35 109t77 45z" />
    <glyph glyph-name="circumflex_acutecomb.cap" unicode="&#xe315;" 
d="M590 1806h164l-205 -207h-94zM252 1655h123l157 -201h-126l-91 117h-4l-90 -117h-125z" />
    <glyph glyph-name="circumflex_gravecomb.cap" unicode="&#xe316;" 
d="M244 1655h123l157 -201h-127l-90 117h-4l-90 -117h-125zM340 1778h164l135 -207h-94z" />
    <glyph glyph-name="circumflex_hookabovecomb.cap" unicode="&#xe317;" 
d="M578 1711q0 61 -58 63q-45 0 -88 -64l-51 39q55 115 168 115q57 0 96 -36t39 -82t-19 -77t-53 -65t-51 -62l-74 17q11 31 51 77t40 75zM248 1655h123l157 -201h-127l-90 117h-4l-88 -117h-127z" />
    <glyph glyph-name="circumflex_tildecomb.cap" unicode="&#xe318;" 
d="M208 1853q48 -1 109 -35t82 -34q49 0 52 71h84q0 -174 -129 -174q-40 0 -98 35t-79 35q-41 0 -51 -72h-84q-2 72 32 123t82 51zM242 1655h135l178 -201h-137l-107 113h-4l-106 -113h-135z" />
    <glyph glyph-name="space_dotbelowcomb.cap" unicode="&#xe319;" 
d="M308 -346q-38 0 -64 27t-27 65q0 38 27 64q28 26 66 26t64 -26t26 -65t-28 -65q-26 -26 -64 -26z" />
    <glyph glyph-name="space_hookabovecomb.cap" unicode="&#xe320;" 
d="M338 1620q0 63 -59 63q-41 0 -86 -65l-58 43q59 119 174 119q61 0 103 -38t43 -91q-1 -53 -57 -119t-68 -86l-84 18q10 31 51 78t41 78z" />
    <glyph glyph-name="space_uni031B.cap" unicode="&#xe321;" 
d="M373 1280v100h18q45 0 63 14t17 58q0 45 -27 98l121 19q31 -61 31 -133q0 -156 -172 -156h-51z" />
    <glyph glyph-name="dotaccent.cap" unicode="&#xefed;" 
d="M308 1489q-38 0 -64 27q-26 26 -27 64q0 38 27 65q28 27 66 27t64 -28q26 -26 26 -64t-28 -64q-26 -26 -64 -27z" />
    <glyph glyph-name="breve.cap" unicode="&#xefee;" 
d="M88 1661h92q16 -88 125 -88t127 88h92q0 -88 -58 -142q-58 -55 -160 -55t-160 52t-58 145z" />
    <glyph glyph-name="ogonek.cap" unicode="&#xeff1;" 
d="M272 -199q0 -45 26 -69t66 -25q40 0 80 19l23 -88q-59 -46 -143 -46t-130 46t-47 120q1 119 105 252h110q-90 -135 -90 -209z" />
    <glyph glyph-name="cedilla.cap" unicode="&#xeff2;" 
d="M469 -262q0 -68 -55 -108t-129 -40t-140 37l33 86q49 -31 103 -30q74 0 73 63q0 74 -141 88l82 176h98l-59 -112q55 -8 95 -50t40 -110z" />
    </font>
</defs>
</svg>
